<svg width="360" height="161" viewBox="0 0 360 161" fill="none" xmlns="http://www.w3.org/2000/svg">
<g clip-path="url(#clip0_6359_23509)">
<path d="M0 0H360V145C360 153.837 352.837 161 344 161H16C7.16344 161 0 153.837 0 145V0Z" fill="url(#paint0_radial_6359_23509)"/>
<path fill-rule="evenodd" clip-rule="evenodd" d="M277.83 38.6368H220.872C220.788 38.6389 220.704 38.64 220.62 38.64C220.536 38.64 220.452 38.6389 220.368 38.6368H132.369C148.414 38.5545 182.009 36.8431 205.44 30.3601C206.279 29.2427 207.615 28.5199 209.12 28.5199C209.774 28.5199 210.397 28.6566 210.96 28.9028C211.002 23.6033 215.311 19.32 220.62 19.32C223.427 19.32 225.954 20.5169 227.719 22.4282C228.726 21.0987 230.323 20.24 232.12 20.24C232.197 20.24 232.273 20.2416 232.349 20.2447C233.125 16.4142 235.805 13.2745 239.358 11.8558C241.544 4.98068 247.98 0 255.58 0C264.03 0 271.041 6.15756 272.372 14.2303C274.103 13.3662 276.055 12.88 278.12 12.88C284.925 12.88 290.497 18.157 290.968 24.842L291 24.84V25.76V38.6368H278.41C278.314 38.6389 278.217 38.64 278.12 38.64C278.023 38.64 277.926 38.6389 277.83 38.6368ZM130 38.6368H132.369C131.53 38.6411 130.739 38.6409 130 38.6368Z" fill="white" fill-opacity="0.4"/>
<path d="M360.242 6H345.337V7.96625H360.242V6Z" fill="#78A28F"/>
<path d="M360.242 7.76963H343.964V10.719H360.242V7.76963Z" fill="#78A28F"/>
<path d="M342.199 19.3705H360.242V22.5165H342.199L342.199 19.3705Z" fill="#78A28F"/>
<path d="M360.242 33.5275V30.3815H342.199V33.5275H360.242Z" fill="#78A28F"/>
<path d="M360.242 45.325V42.179H342.199V45.325H360.242Z" fill="#78A28F"/>
<path d="M360.242 56.336V53.19H342.199V56.336H360.242Z" fill="#78A28F"/>
<path d="M344.944 19.3705H342.199V56.336H344.944V19.3705Z" fill="#78A28F"/>
<path d="M342.199 19.3705H344.944L348.082 10.719H345.337L342.199 19.3705Z" fill="#78A28F"/>
<path d="M344.944 56.336H342.199L338.276 68.5268H342.199L344.944 56.336Z" fill="#78A28F"/>
<path d="M344.944 20.157L344.16 18.9773L359.85 9.9325L360.635 11.1123L344.944 20.157Z" fill="#78A28F"/>
<path d="M332.906 33.2523L332 32.5444L332.003 32.1511L344.297 19.2009L345.384 20.1083L332.906 33.2523Z" fill="#78A28F"/>
<path d="M332.911 55.6328L332.01 54.9234L332.013 54.5304L344.191 41.6144L345.272 42.5236L332.911 55.6328Z" fill="#78A28F"/>
<path d="M345.729 31.9545L344.944 30.7748L360.635 21.73L361.419 22.9098L345.729 31.9545Z" fill="#78A28F"/>
<path d="M345.729 43.3588L344.944 42.179L360.635 33.1343L361.419 34.314L345.729 43.3588Z" fill="#78A28F"/>
<path d="M345.729 54.3698L344.944 53.19L360.635 44.1453L361.419 45.325L345.729 54.3698Z" fill="#78A28F"/>
<path d="M342.591 68.5268L341.806 67.347L360.242 55.9428L361.027 57.1225L342.591 68.5268Z" fill="#78A28F"/>
<path d="M362.204 20.9435L362.988 19.7638L347.298 10.719L346.513 11.8988L362.204 20.9435Z" fill="#78A28F"/>
<path d="M359.85 31.9545L360.635 30.7748L344.944 21.73L344.16 22.9098L359.85 31.9545Z" fill="#78A28F"/>
<path d="M359.85 43.3588L360.635 42.179L344.944 33.1343L344.16 34.314L359.85 43.3588Z" fill="#78A28F"/>
<path d="M359.85 54.3698L360.635 53.19L344.944 44.1453L344.16 45.325L359.85 54.3698Z" fill="#78A28F"/>
<path d="M361.811 66.5605L362.596 65.774L344.944 55.9428L344.16 57.1225L361.811 66.5605Z" fill="#78A28F"/>
<path d="M332.196 31.9545H342.591V33.5275H332V32.1511L332.196 31.9545Z" fill="#78A28F"/>
<path d="M332.196 54.3698H342.591V55.9428H332V54.5664L332.196 54.3698Z" fill="#78A28F"/>
<path d="M332 33.5275H333.569V34.7073H332V33.5275Z" fill="#78A28F"/>
<path d="M332 55.9428H333.569V57.1225H332V55.9428Z" fill="#78A28F"/>
<path d="M342.199 19.3705H360.242V22.5165H342.199L342.199 19.3705ZM342.199 19.3705H344.944M342.199 19.3705V56.336M342.199 19.3705L345.337 10.719H348.082L344.944 19.3705M342.199 56.336H360.242V53.19H342.199V56.336ZM342.199 56.336H344.944M342.199 56.336L338.276 68.5268H342.199L344.944 56.336M344.944 19.3705V56.336M332 33.5275H342.591V31.9545H332.196L332 32.1511V33.5275ZM332 33.5275H333.569V34.7073H332V33.5275ZM332 55.9428H342.591V54.3698H332.196L332 54.5664V55.9428ZM332 55.9428H333.569V57.1225H332V55.9428ZM345.337 6H360.242V7.96625H345.337V6ZM343.964 7.76963H360.242V10.719H343.964V7.76963ZM360.242 30.3815V33.5275H342.199V30.3815H360.242ZM360.242 42.179V45.325H342.199V42.179H360.242ZM344.16 18.9773L344.944 20.157L360.635 11.1123L359.85 9.9325L344.16 18.9773ZM332 32.5444L332.906 33.2523L345.384 20.1083L344.297 19.2009L332.003 32.1511L332 32.5444ZM332.01 54.9234L332.911 55.6328L345.272 42.5236L344.191 41.6144L332.013 54.5304L332.01 54.9234ZM344.944 30.7748L345.729 31.9545L361.419 22.9098L360.635 21.73L344.944 30.7748ZM344.944 42.179L345.729 43.3588L361.419 34.314L360.635 33.1343L344.944 42.179ZM344.944 53.19L345.729 54.3698L361.419 45.325L360.635 44.1453L344.944 53.19ZM341.806 67.347L342.591 68.5268L361.027 57.1225L360.242 55.9428L341.806 67.347ZM362.988 19.7638L362.204 20.9435L346.513 11.8988L347.298 10.719L362.988 19.7638ZM360.635 30.7748L359.85 31.9545L344.16 22.9098L344.944 21.73L360.635 30.7748ZM360.635 42.179L359.85 43.3588L344.16 34.314L344.944 33.1343L360.635 42.179ZM360.635 53.19L359.85 54.3698L344.16 45.325L344.944 44.1453L360.635 53.19ZM362.596 65.774L361.811 66.5605L344.16 57.1225L344.944 55.9428L362.596 65.774Z" stroke="#78A28F"/>
<path fill-rule="evenodd" clip-rule="evenodd" d="M75.0054 161.996H7.17101C7.07467 161.999 6.97804 162 6.88113 162C6.78423 162 6.6876 161.999 6.59126 161.996H-98.1798C-79.0784 161.898 -39.0849 159.861 -11.1911 152.143C-10.192 150.813 -8.60123 149.952 -6.80948 149.952C-6.03046 149.952 -5.28942 150.115 -4.6185 150.408C-4.56922 144.099 0.560463 139 6.88113 139C10.2222 139 13.2306 140.425 15.3316 142.7C16.5316 141.117 18.4321 140.095 20.5713 140.095C20.6627 140.095 20.7537 140.097 20.8442 140.101C21.7679 135.541 24.9577 131.803 29.1873 130.114C31.7905 121.929 39.4527 116 48.4998 116C58.559 116 66.9061 123.33 68.4908 132.941C70.5505 131.912 72.8742 131.333 75.3332 131.333C83.4342 131.333 90.068 137.616 90.6282 145.574L90.6665 145.572L90.6665 146.666L90.6665 161.996H75.6609C75.5519 161.999 75.4427 162 75.3332 162C75.2236 162 75.1144 161.999 75.0054 161.996ZM-101 161.996H-98.1798C-99.1786 162.001 -100.12 162.001 -101 161.996Z" fill="white" fill-opacity="0.4"/>
<g filter="url(#filter0_d_6359_23509)">
<path d="M98 128L57 162H361V66H313.5L260.5 79L225 82L154.5 114L98 128Z" fill="#78A28F"/>
</g>
<path d="M262.164 100.579C293.058 91.2061 353.954 96.6649 361 95.8541V162H79.5C113 149 97.5 154.5 130 143.5C162.5 132.5 161 133 225 113C289 92.9999 250.5 104.117 262.164 100.579Z" fill="#BBD0C7"/>
<path d="M288.684 91.4595C307.105 75.6777 355.342 79.7544 360.5 79V164H114.5C115.661 162.15 191.446 137.143 214.275 132.437C237.105 127.73 236.368 109.456 260.316 106.134C284.263 102.811 280.282 98.6582 288.684 91.4595Z" fill="#347357"/>
<rect x="79.3035" y="110.303" width="4.58036" height="3.5625" fill="#78A28F"/>
<path d="M77.8467 110.537L80.1925 110.567L81.1553 108.703L81.4155 93.0001L77.1819 108.596L77.8467 110.537Z" fill="#78A28F"/>
<rect x="78.7944" y="110.812" width="3.05357" height="39.1875" fill="#78A28F"/>
<path d="M79.3035 113.612L80.8303 111.83L82.866 112.339L94.8258 122.518L80.3213 115.393L79.3035 113.612Z" fill="#78A28F"/>
<path d="M77.7688 113.543L76.2932 111.719L74.2438 112.17L61.9999 122.005L76.7008 115.294L77.7688 113.543Z" fill="#78A28F"/>
<path d="M80.3217 110.303H77.7771L75.9958 111.83L77.2682 114.375H79.8128L81.8485 112.085L80.3217 110.303Z" fill="#78A28F"/>
<rect x="54.3928" y="120.393" width="4.33929" height="3.375" fill="#78A28F"/>
<path d="M53.0127 120.614L55.2351 120.643L56.1473 118.876L56.3937 104L52.383 118.775L53.0127 120.614Z" fill="#78A28F"/>
<rect x="54" y="121" width="3" height="40" fill="#78A28F"/>
<path d="M54.3928 123.527L55.8393 121.839L57.7678 122.321L69.0982 131.964L55.3571 125.214L54.3928 123.527Z" fill="#78A28F"/>
<path d="M52.9389 123.461L51.541 121.734L49.5995 122.161L38 131.478L51.9271 125.121L52.9389 123.461Z" fill="#78A28F"/>
<path d="M55.3572 120.393H52.9465L51.259 121.839L52.4644 124.25H54.8751L56.8037 122.08L55.3572 120.393Z" fill="#78A28F"/>
<rect x="32.4653" y="131.465" width="3.56438" height="2.7723" fill="#78A28F"/>
<path d="M31.3317 131.647L33.1572 131.67L33.9065 130.22L34.1089 118L30.8144 130.136L31.3317 131.647Z" fill="#78A28F"/>
<rect x="32.0693" y="131.861" width="2.37626" height="30.4953" fill="#78A28F"/>
<path d="M32.4653 134.039L33.6535 132.653L35.2376 133.049L44.5446 140.97L33.2574 135.425L32.4653 134.039Z" fill="#78A28F"/>
<path d="M31.271 133.986L30.1227 132.567L28.5279 132.917L18.9998 140.571L30.4399 135.349L31.271 133.986Z" fill="#78A28F"/>
<path d="M33.258 131.465H31.2778L29.8916 132.653L30.8817 134.633H32.8619L34.4461 132.851L33.258 131.465Z" fill="#78A28F"/>
<path d="M290.761 56L270 76.7616V111H311.523V76.7616L290.761 56Z" fill="#99B9AB"/>
<path d="M311.556 76.7616L290.794 56H339.238L360 76.7616H311.556Z" fill="#347357"/>
<path d="M359.968 76.7943H311.589L311.589 111H359.967L359.968 76.7943Z" fill="#BBD0C7"/>
<rect x="287.399" y="86.9792" width="6.92055" height="10.3808" fill="#347357"/>
<path d="M301.041 135.219C301.041 143.708 301.041 131.301 301.041 142.151C297.123 142.151 292 140.995 292 132.507C292 124.018 295.918 116.534 301.041 109C301.041 119.247 301.041 126.731 301.041 135.219Z" fill="#234D3A"/>
<path d="M301.041 135.219C301.041 143.708 301.041 131.301 301.041 142.151C304.959 142.151 310.384 140.995 310.384 132.507C310.384 124.018 306.164 116.534 301.041 109C301.041 119.247 301.041 126.731 301.041 135.219Z" fill="#234D3A"/>
<line x1="301.541" y1="124.069" x2="301.541" y2="153" stroke="#1A392B"/>
<path d="M342.63 129.027C342.63 137.13 342.63 125.288 342.63 135.644C338.89 135.644 334 134.541 334 126.438C334 118.336 337.74 111.192 342.63 104C342.63 113.781 342.63 120.925 342.63 129.027Z" fill="#234D3A"/>
<path d="M342.63 129.027C342.63 137.13 342.63 125.288 342.63 135.644C346.37 135.644 351.548 134.541 351.548 126.438C351.548 118.336 347.52 111.192 342.63 104C342.63 113.781 342.63 120.925 342.63 129.027Z" fill="#234D3A"/>
<line x1="343.13" y1="118.384" x2="343.13" y2="146" stroke="#1A392B"/>
<path d="M320.863 121.603C320.863 130.863 320.863 117.329 320.863 129.164C316.589 129.164 311 127.904 311 118.644C311 109.384 315.274 101.219 320.863 93C320.863 104.178 320.863 112.343 320.863 121.603Z" fill="#1A392B"/>
<path d="M320.863 121.603C320.863 130.863 320.863 117.329 320.863 129.164C325.137 129.164 331.055 127.904 331.055 118.644C331.055 109.384 326.452 101.219 320.863 93C320.863 104.178 320.863 112.343 320.863 121.603Z" fill="#1A392B"/>
<line x1="321.363" y1="109.438" x2="321.363" y2="141" stroke="#11261D"/>
<path d="M262.41 68.6885C262.41 73.7677 262.41 66.3443 262.41 72.8361C260.066 72.8361 257 72.1448 257 67.0656C257 61.9864 259.344 57.5082 262.41 53C262.41 59.1311 262.41 63.6093 262.41 68.6885Z" fill="#78A28F"/>
<path d="M262.41 68.6885C262.41 73.7677 262.41 66.3443 262.41 72.8361C264.754 72.8361 268 72.1448 268 67.0656C268 61.9864 265.475 57.5082 262.41 53C262.41 59.1311 262.41 63.6093 262.41 68.6885Z" fill="#78A28F"/>
<line x1="262.91" y1="62.0165" x2="262.91" y2="79.328" stroke="#78A28F"/>
<path d="M249.41 72.6885C249.41 77.7677 249.41 70.3443 249.41 76.8361C247.066 76.8361 244 76.1448 244 71.0656C244 65.9864 246.344 61.5082 249.41 57C249.41 63.1311 249.41 67.6093 249.41 72.6885Z" fill="#78A28F"/>
<path d="M249.41 72.6885C249.41 77.7677 249.41 70.3443 249.41 76.8361C251.754 76.8361 255 76.1448 255 71.0656C255 65.9864 252.475 61.5082 249.41 57C249.41 63.1311 249.41 67.6093 249.41 72.6885Z" fill="#78A28F"/>
<line x1="249.91" y1="66.0165" x2="249.91" y2="83.328" stroke="#78A28F"/>
<path d="M235 165C280.118 164.782 371.284 164.478 375 165C367.038 154.558 360.403 146.726 347.796 140.853C335.19 134.98 317.938 135.632 305.995 144.116C294.052 152.6 287.417 149.337 278.128 148.031C268.839 146.726 263.531 151.295 260.213 153.252C256.896 155.21 255.959 156.623 247.607 156.516C240.95 157.363 238.403 159.523 235 165Z" fill="#2B6048"/>
<path fill-rule="evenodd" clip-rule="evenodd" d="M54.1578 84.9982H85.1095C85.1562 84.9994 85.203 85 85.25 85C85.297 85 85.3439 84.9994 85.3905 84.9982H133.213C124.492 84.9535 106.234 84.0234 93.5001 80.4999C93.044 79.8928 92.3179 79.5 91.5 79.5C91.1444 79.5 90.8061 79.5743 90.4999 79.7081C90.4773 76.8279 88.1355 74.5 85.25 74.5C83.7247 74.5 82.3513 75.1505 81.3921 76.1893C80.8443 75.4667 79.9766 75 78.9999 75C78.9583 75 78.9168 75.0008 78.8755 75.0025C78.4539 72.9207 76.9975 71.2144 75.0665 70.4433C73.8781 66.7069 70.3801 64 66.25 64C61.6577 64 57.8471 67.3465 57.1236 71.7338C56.1833 71.2642 55.1225 70.9999 54 70.9999C50.3018 70.9999 47.2733 73.8679 47.0175 77.501L47 77.4999V77.9999V84.9982H53.8422C53.8947 84.9994 53.9473 84.9999 54 84.9999C54.0527 84.9999 54.1053 84.9994 54.1578 84.9982ZM134.5 84.9982H133.213C133.668 85.0005 134.098 85.0005 134.5 84.9982Z" fill="white" fill-opacity="0.4"/>
<path d="M232.254 57.0684L234.152 56.5311C234.072 56.9221 233.782 57.2564 233.367 57.3737C232.953 57.491 232.529 57.3585 232.254 57.0684ZM235.266 50.839L233.716 51.2775C233.555 51.3229 233.462 51.4883 233.507 51.6467C233.553 51.8051 233.72 51.8968 233.88 51.8514L234.364 51.7144L234.967 53.8188L234.774 53.8736L234.746 53.778C234.64 53.4087 234.25 53.1944 233.876 53.3002L230.776 54.1774C230.402 54.2832 230.184 54.6696 230.29 55.0388L230.317 55.1345L230.124 55.1893L229.521 53.0849L230.005 52.9478C230.165 52.9025 230.259 52.7371 230.213 52.5787C230.168 52.4203 230.001 52.3285 229.841 52.3739L228.291 52.8125C228.13 52.8579 228.037 53.0233 228.082 53.1817C228.128 53.3401 228.295 53.4318 228.455 53.3864L228.939 53.2494L229.542 55.3538L229.445 55.3812C229.285 55.4266 229.192 55.592 229.237 55.7504C229.282 55.9088 229.449 56.0005 229.61 55.9551L230.482 55.7084L230.619 56.1867C230.677 56.3918 230.825 56.546 231.008 56.6271L230.728 57.4853C230.666 57.6718 230.688 57.8766 230.787 58.0459L231.524 59.3144C231.595 59.4355 231.738 59.4888 231.868 59.452C231.892 59.4454 231.914 59.436 231.936 59.4236C232.081 59.3409 232.131 59.1584 232.048 59.0159L231.311 57.7471C231.297 57.7234 231.294 57.694 231.303 57.6675L231.644 56.6203L234.433 55.8312L235.279 56.5429C235.3 56.5608 235.313 56.587 235.314 56.6149L235.359 58.0792C235.364 58.2437 235.504 58.3729 235.67 58.3671C235.696 58.3665 235.72 58.3621 235.743 58.3556C235.874 58.3187 235.967 58.1979 235.963 58.0585L235.918 56.5947C235.912 56.3986 235.822 56.2135 235.671 56.0871L234.978 55.5039C235.09 55.3393 235.134 55.1305 235.075 54.9258L234.938 54.4475L235.81 54.2008C235.97 54.1555 236.064 53.9901 236.018 53.8317C235.973 53.6733 235.806 53.5815 235.645 53.6269L235.549 53.6543L234.946 51.5499L235.43 51.4129C235.591 51.3675 235.684 51.2021 235.639 51.0437C235.593 50.8853 235.426 50.7936 235.266 50.839Z" fill="#78A28F"/>
<path d="M305.958 45.4791C305.721 45.4791 305.483 45.3999 305.325 45.1624C305.008 44.8458 305.088 44.2916 305.404 44.0541C308.967 41.1249 314.033 41.1249 317.596 44.0541C317.913 44.3708 317.992 44.8458 317.675 45.1624C317.358 45.4791 316.883 45.5583 316.567 45.2416C313.638 42.7874 309.363 42.7874 306.433 45.2416C306.354 45.4791 306.117 45.4791 305.958 45.4791Z" fill="#347357"/>
<path d="M319.892 42.7084C319.733 42.7084 319.496 42.6292 319.337 42.4709C314.825 38.5125 308.096 38.5125 303.662 42.4709C303.346 42.7875 302.871 42.7084 302.554 42.3917C302.237 42.075 302.317 41.6 302.633 41.2834C307.7 36.7709 315.379 36.7709 320.446 41.2834C320.762 41.6 320.842 42.075 320.525 42.3917C320.287 42.6292 320.129 42.7084 319.892 42.7084Z" fill="#347357"/>
<path d="M314.271 48.3294C314.113 48.3294 313.954 48.2502 313.796 48.1711C312.45 47.2211 310.55 47.2211 309.204 48.1711C308.808 48.4086 308.333 48.3294 308.096 48.0127C307.858 47.6169 307.938 47.1419 308.254 46.9044C310.154 45.5586 312.767 45.5586 314.667 46.9044C315.063 47.1419 315.142 47.6169 314.825 48.0127C314.746 48.2502 314.508 48.3294 314.271 48.3294Z" fill="#347357"/>
<g opacity="0.5">
<path d="M230.945 85C229.924 85.8342 229.367 87.1973 229.214 88H229.746C229.964 87.1898 230.098 86.2572 230.945 85L230.945 85ZM228.305 85.3468C228.666 85.7622 229.01 86.2229 229.284 86.6649C229.333 86.7444 229.381 86.8247 229.427 86.9057C229.483 86.7754 229.543 86.6468 229.607 86.5202C229.25 86.0491 228.825 85.6273 228.305 85.3468L228.305 85.3468ZM231 86.2313C230.645 86.5388 230.457 86.9883 230.376 87.4923C230.471 87.6632 230.56 87.8316 230.644 87.9942H230.915C230.741 87.5215 230.836 86.9203 231 86.2313ZM228.226 86.3328C228.729 86.8173 229.059 87.5802 228.778 87.9915H229.088C229.119 87.8254 229.166 87.6368 229.231 87.4343C229.104 86.8768 228.67 86.3493 228.226 86.3328V86.3328ZM228 86.9144C228.365 87.4498 228.425 87.741 228.282 87.9899H228.747C228.657 87.5135 228.53 87.2206 228 86.9144V86.9144ZM230.073 87.216C230 87.4896 229.941 87.748 229.875 87.9981H230.507C230.375 87.7449 230.232 87.4796 230.073 87.216Z" fill="#347357"/>
<path d="M229.945 89C228.924 89.8342 228.367 91.1973 228.214 92H228.746C228.964 91.1898 229.098 90.2572 229.945 89L229.945 89ZM227.305 89.3468C227.666 89.7622 228.01 90.2229 228.284 90.6649C228.333 90.7444 228.381 90.8247 228.427 90.9057C228.483 90.7754 228.543 90.6468 228.607 90.5202C228.25 90.0491 227.825 89.6273 227.305 89.3468L227.305 89.3468ZM230 90.2313C229.645 90.5388 229.457 90.9883 229.376 91.4923C229.471 91.6632 229.56 91.8316 229.644 91.9942H229.915C229.741 91.5215 229.836 90.9203 230 90.2313ZM227.226 90.3328C227.729 90.8173 228.059 91.5802 227.778 91.9915H228.088C228.119 91.8254 228.166 91.6368 228.231 91.4343C228.104 90.8768 227.67 90.3493 227.226 90.3328V90.3328ZM227 90.9144C227.365 91.4498 227.425 91.741 227.282 91.9899H227.747C227.657 91.5135 227.53 91.2206 227 90.9144V90.9144ZM229.073 91.216C229 91.4896 228.941 91.748 228.875 91.9981H229.507C229.375 91.7449 229.232 91.4796 229.073 91.216Z" fill="#347357"/>
<path d="M228.945 93C227.924 93.8342 227.367 95.1973 227.214 96H227.746C227.964 95.1898 228.098 94.2572 228.945 93L228.945 93ZM226.305 93.3468C226.666 93.7622 227.01 94.2229 227.284 94.6649C227.333 94.7444 227.381 94.8247 227.427 94.9057C227.483 94.7754 227.543 94.6468 227.607 94.5202C227.25 94.0491 226.825 93.6273 226.305 93.3468L226.305 93.3468ZM229 94.2313C228.645 94.5388 228.457 94.9883 228.376 95.4923C228.471 95.6632 228.56 95.8316 228.644 95.9942H228.915C228.741 95.5215 228.836 94.9203 229 94.2313ZM226.226 94.3328C226.729 94.8173 227.059 95.5802 226.778 95.9915H227.088C227.119 95.8254 227.166 95.6368 227.231 95.4343C227.104 94.8768 226.67 94.3493 226.226 94.3328V94.3328ZM226 94.9144C226.365 95.4498 226.425 95.741 226.282 95.9899H226.747C226.657 95.5135 226.53 95.2206 226 94.9144V94.9144ZM228.073 95.216C228 95.4896 227.941 95.748 227.875 95.9981H228.507C228.375 95.7449 228.232 95.4796 228.073 95.216Z" fill="#347357"/>
<path d="M227.945 97C226.924 97.8342 226.367 99.1973 226.214 100H226.746C226.964 99.1898 227.098 98.2572 227.945 97L227.945 97ZM225.305 97.3468C225.666 97.7622 226.01 98.2229 226.284 98.6649C226.333 98.7444 226.381 98.8247 226.427 98.9057C226.483 98.7754 226.543 98.6468 226.607 98.5202C226.25 98.0491 225.825 97.6273 225.305 97.3468L225.305 97.3468ZM228 98.2313C227.645 98.5388 227.457 98.9883 227.376 99.4923C227.471 99.6632 227.56 99.8316 227.644 99.9942H227.915C227.741 99.5215 227.836 98.9203 228 98.2313ZM225.226 98.3328C225.729 98.8173 226.059 99.5802 225.778 99.9915H226.088C226.119 99.8254 226.166 99.6368 226.231 99.4343C226.104 98.8768 225.67 98.3493 225.226 98.3328V98.3328ZM225 98.9144C225.365 99.4498 225.425 99.741 225.282 99.9899H225.747C225.657 99.5135 225.53 99.2206 225 98.9144V98.9144ZM227.073 99.216C227 99.4896 226.941 99.748 226.875 99.9981H227.507C227.375 99.7449 227.232 99.4796 227.073 99.216Z" fill="#347357"/>
<path d="M226.945 101C225.924 101.834 225.367 103.197 225.214 104H225.746C225.964 103.19 226.098 102.257 226.945 101L226.945 101ZM224.305 101.347C224.666 101.762 225.01 102.223 225.284 102.665C225.333 102.744 225.381 102.825 225.427 102.906C225.483 102.775 225.543 102.647 225.607 102.52C225.25 102.049 224.825 101.627 224.305 101.347L224.305 101.347ZM227 102.231C226.645 102.539 226.457 102.988 226.376 103.492C226.471 103.663 226.56 103.832 226.644 103.994H226.915C226.741 103.522 226.836 102.92 227 102.231ZM224.226 102.333C224.729 102.817 225.059 103.58 224.778 103.992H225.088C225.119 103.825 225.166 103.637 225.231 103.434C225.104 102.877 224.67 102.349 224.226 102.333V102.333ZM224 102.914C224.365 103.45 224.425 103.741 224.282 103.99H224.747C224.657 103.514 224.53 103.221 224 102.914V102.914ZM226.073 103.216C226 103.49 225.941 103.748 225.875 103.998H226.507C226.375 103.745 226.232 103.48 226.073 103.216Z" fill="#347357"/>
<path d="M225.945 105C224.924 105.834 224.367 107.197 224.214 108H224.746C224.964 107.19 225.098 106.257 225.945 105L225.945 105ZM223.305 105.347C223.666 105.762 224.01 106.223 224.284 106.665C224.333 106.744 224.381 106.825 224.427 106.906C224.483 106.775 224.543 106.647 224.607 106.52C224.25 106.049 223.825 105.627 223.305 105.347L223.305 105.347ZM226 106.231C225.645 106.539 225.457 106.988 225.376 107.492C225.471 107.663 225.56 107.832 225.644 107.994H225.915C225.741 107.522 225.836 106.92 226 106.231ZM223.226 106.333C223.729 106.817 224.059 107.58 223.778 107.992H224.088C224.119 107.825 224.166 107.637 224.231 107.434C224.104 106.877 223.67 106.349 223.226 106.333V106.333ZM223 106.914C223.365 107.45 223.425 107.741 223.282 107.99H223.747C223.657 107.514 223.53 107.221 223 106.914V106.914ZM225.073 107.216C225 107.49 224.941 107.748 224.875 107.998H225.507C225.375 107.745 225.232 107.48 225.073 107.216Z" fill="#347357"/>
</g>
<g opacity="0.5">
<path d="M224.945 86C223.924 86.8342 223.367 88.1973 223.214 89H223.746C223.964 88.1898 224.098 87.2572 224.945 86L224.945 86ZM222.305 86.3468C222.666 86.7622 223.01 87.2229 223.284 87.6649C223.333 87.7444 223.381 87.8247 223.427 87.9057C223.483 87.7754 223.543 87.6468 223.607 87.5202C223.25 87.0491 222.825 86.6273 222.305 86.3468L222.305 86.3468ZM225 87.2313C224.645 87.5388 224.457 87.9883 224.376 88.4923C224.471 88.6632 224.56 88.8316 224.644 88.9942H224.915C224.741 88.5215 224.836 87.9203 225 87.2313ZM222.226 87.3328C222.729 87.8173 223.059 88.5802 222.778 88.9915H223.088C223.119 88.8254 223.166 88.6368 223.231 88.4343C223.104 87.8768 222.67 87.3493 222.226 87.3328V87.3328ZM222 87.9144C222.365 88.4498 222.425 88.741 222.282 88.9899H222.747C222.657 88.5135 222.53 88.2206 222 87.9144V87.9144ZM224.073 88.216C224 88.4896 223.941 88.748 223.875 88.9981H224.507C224.375 88.7449 224.232 88.4796 224.073 88.216Z" fill="#347357"/>
<path d="M223.945 90C222.924 90.8342 222.367 92.1973 222.214 93H222.746C222.964 92.1898 223.098 91.2572 223.945 90L223.945 90ZM221.305 90.3468C221.666 90.7622 222.01 91.2229 222.284 91.6649C222.333 91.7444 222.381 91.8247 222.427 91.9057C222.483 91.7754 222.543 91.6468 222.607 91.5202C222.25 91.0491 221.825 90.6273 221.305 90.3468L221.305 90.3468ZM224 91.2313C223.645 91.5388 223.457 91.9883 223.376 92.4923C223.471 92.6632 223.56 92.8316 223.644 92.9942H223.915C223.741 92.5215 223.836 91.9203 224 91.2313ZM221.226 91.3328C221.729 91.8173 222.059 92.5802 221.778 92.9915H222.088C222.119 92.8254 222.166 92.6368 222.231 92.4343C222.104 91.8768 221.67 91.3493 221.226 91.3328V91.3328ZM221 91.9144C221.365 92.4498 221.425 92.741 221.282 92.9899H221.747C221.657 92.5135 221.53 92.2206 221 91.9144V91.9144ZM223.073 92.216C223 92.4896 222.941 92.748 222.875 92.9981H223.507C223.375 92.7449 223.232 92.4796 223.073 92.216Z" fill="#347357"/>
<path d="M222.945 94C221.924 94.8342 221.367 96.1973 221.214 97H221.746C221.964 96.1898 222.098 95.2572 222.945 94L222.945 94ZM220.305 94.3468C220.666 94.7622 221.01 95.2229 221.284 95.6649C221.333 95.7444 221.381 95.8247 221.427 95.9057C221.483 95.7754 221.543 95.6468 221.607 95.5202C221.25 95.0491 220.825 94.6273 220.305 94.3468L220.305 94.3468ZM223 95.2313C222.645 95.5388 222.457 95.9883 222.376 96.4923C222.471 96.6632 222.56 96.8316 222.644 96.9942H222.915C222.741 96.5215 222.836 95.9203 223 95.2313ZM220.226 95.3328C220.729 95.8173 221.059 96.5802 220.778 96.9915H221.088C221.119 96.8254 221.166 96.6368 221.231 96.4343C221.104 95.8768 220.67 95.3493 220.226 95.3328V95.3328ZM220 95.9144C220.365 96.4498 220.425 96.741 220.282 96.9899H220.747C220.657 96.5135 220.53 96.2206 220 95.9144V95.9144ZM222.073 96.216C222 96.4896 221.941 96.748 221.875 96.9981H222.507C222.375 96.7449 222.232 96.4796 222.073 96.216Z" fill="#347357"/>
<path d="M221.945 98C220.924 98.8342 220.367 100.197 220.214 101H220.746C220.964 100.19 221.098 99.2572 221.945 98L221.945 98ZM219.305 98.3468C219.666 98.7622 220.01 99.2229 220.284 99.6649C220.333 99.7444 220.381 99.8247 220.427 99.9057C220.483 99.7754 220.543 99.6468 220.607 99.5202C220.25 99.0491 219.825 98.6273 219.305 98.3468L219.305 98.3468ZM222 99.2313C221.645 99.5388 221.457 99.9883 221.376 100.492C221.471 100.663 221.56 100.832 221.644 100.994H221.915C221.741 100.522 221.836 99.9203 222 99.2313ZM219.226 99.3328C219.729 99.8173 220.059 100.58 219.778 100.992H220.088C220.119 100.825 220.166 100.637 220.231 100.434C220.104 99.8768 219.67 99.3493 219.226 99.3328V99.3328ZM219 99.9144C219.365 100.45 219.425 100.741 219.282 100.99H219.747C219.657 100.514 219.53 100.221 219 99.9144V99.9144ZM221.073 100.216C221 100.49 220.941 100.748 220.875 100.998H221.507C221.375 100.745 221.232 100.48 221.073 100.216Z" fill="#347357"/>
<path d="M220.945 102C219.924 102.834 219.367 104.197 219.214 105H219.746C219.964 104.19 220.098 103.257 220.945 102L220.945 102ZM218.305 102.347C218.666 102.762 219.01 103.223 219.284 103.665C219.333 103.744 219.381 103.825 219.427 103.906C219.483 103.775 219.543 103.647 219.607 103.52C219.25 103.049 218.825 102.627 218.305 102.347L218.305 102.347ZM221 103.231C220.645 103.539 220.457 103.988 220.376 104.492C220.471 104.663 220.56 104.832 220.644 104.994H220.915C220.741 104.522 220.836 103.92 221 103.231ZM218.226 103.333C218.729 103.817 219.059 104.58 218.778 104.992H219.088C219.119 104.825 219.166 104.637 219.231 104.434C219.104 103.877 218.67 103.349 218.226 103.333V103.333ZM218 103.914C218.365 104.45 218.425 104.741 218.282 104.99H218.747C218.657 104.514 218.53 104.221 218 103.914V103.914ZM220.073 104.216C220 104.49 219.941 104.748 219.875 104.998H220.507C220.375 104.745 220.232 104.48 220.073 104.216Z" fill="#347357"/>
<path d="M219.945 106C218.924 106.834 218.367 108.197 218.214 109H218.746C218.964 108.19 219.098 107.257 219.945 106L219.945 106ZM217.305 106.347C217.666 106.762 218.01 107.223 218.284 107.665C218.333 107.744 218.381 107.825 218.427 107.906C218.483 107.775 218.543 107.647 218.607 107.52C218.25 107.049 217.825 106.627 217.305 106.347L217.305 106.347ZM220 107.231C219.645 107.539 219.457 107.988 219.376 108.492C219.471 108.663 219.56 108.832 219.644 108.994H219.915C219.741 108.522 219.836 107.92 220 107.231ZM217.226 107.333C217.729 107.817 218.059 108.58 217.778 108.992H218.088C218.119 108.825 218.166 108.637 218.231 108.434C218.104 107.877 217.67 107.349 217.226 107.333V107.333ZM217 107.914C217.365 108.45 217.425 108.741 217.282 108.99H217.747C217.657 108.514 217.53 108.221 217 107.914V107.914ZM219.073 108.216C219 108.49 218.941 108.748 218.875 108.998H219.507C219.375 108.745 219.232 108.48 219.073 108.216Z" fill="#347357"/>
</g>
<g opacity="0.5">
<path d="M235.945 84C234.924 84.8342 234.367 86.1973 234.214 87H234.746C234.964 86.1898 235.098 85.2572 235.945 84L235.945 84ZM233.305 84.3468C233.666 84.7622 234.01 85.2229 234.284 85.6649C234.333 85.7444 234.381 85.8247 234.427 85.9057C234.483 85.7754 234.543 85.6468 234.607 85.5202C234.25 85.0491 233.825 84.6273 233.305 84.3468L233.305 84.3468ZM236 85.2313C235.645 85.5388 235.457 85.9883 235.376 86.4923C235.471 86.6632 235.56 86.8316 235.644 86.9942H235.915C235.741 86.5215 235.836 85.9203 236 85.2313ZM233.226 85.3328C233.729 85.8173 234.059 86.5802 233.778 86.9915H234.088C234.119 86.8254 234.166 86.6368 234.231 86.4343C234.104 85.8768 233.67 85.3493 233.226 85.3328V85.3328ZM233 85.9144C233.365 86.4498 233.425 86.741 233.282 86.9899H233.747C233.657 86.5135 233.53 86.2206 233 85.9144V85.9144ZM235.073 86.216C235 86.4896 234.941 86.748 234.875 86.9981H235.507C235.375 86.7449 235.232 86.4796 235.073 86.216Z" fill="#347357"/>
<path d="M234.945 88C233.924 88.8342 233.367 90.1973 233.214 91H233.746C233.964 90.1898 234.098 89.2572 234.945 88L234.945 88ZM232.305 88.3468C232.666 88.7622 233.01 89.2229 233.284 89.6649C233.333 89.7444 233.381 89.8247 233.427 89.9057C233.483 89.7754 233.543 89.6468 233.607 89.5202C233.25 89.0491 232.825 88.6273 232.305 88.3468L232.305 88.3468ZM235 89.2313C234.645 89.5388 234.457 89.9883 234.376 90.4923C234.471 90.6632 234.56 90.8316 234.644 90.9942H234.915C234.741 90.5215 234.836 89.9203 235 89.2313ZM232.226 89.3328C232.729 89.8173 233.059 90.5802 232.778 90.9915H233.088C233.119 90.8254 233.166 90.6368 233.231 90.4343C233.104 89.8768 232.67 89.3493 232.226 89.3328V89.3328ZM232 89.9144C232.365 90.4498 232.425 90.741 232.282 90.9899H232.747C232.657 90.5135 232.53 90.2206 232 89.9144V89.9144ZM234.073 90.216C234 90.4896 233.941 90.748 233.875 90.9981H234.507C234.375 90.7449 234.232 90.4796 234.073 90.216Z" fill="#347357"/>
<path d="M233.945 92C232.924 92.8342 232.367 94.1973 232.214 95H232.746C232.964 94.1898 233.098 93.2572 233.945 92L233.945 92ZM231.305 92.3468C231.666 92.7622 232.01 93.2229 232.284 93.6649C232.333 93.7444 232.381 93.8247 232.427 93.9057C232.483 93.7754 232.543 93.6468 232.607 93.5202C232.25 93.0491 231.825 92.6273 231.305 92.3468L231.305 92.3468ZM234 93.2313C233.645 93.5388 233.457 93.9883 233.376 94.4923C233.471 94.6632 233.56 94.8316 233.644 94.9942H233.915C233.741 94.5215 233.836 93.9203 234 93.2313ZM231.226 93.3328C231.729 93.8173 232.059 94.5802 231.778 94.9915H232.088C232.119 94.8254 232.166 94.6368 232.231 94.4343C232.104 93.8768 231.67 93.3493 231.226 93.3328V93.3328ZM231 93.9144C231.365 94.4498 231.425 94.741 231.282 94.9899H231.747C231.657 94.5135 231.53 94.2206 231 93.9144V93.9144ZM233.073 94.216C233 94.4896 232.941 94.748 232.875 94.9981H233.507C233.375 94.7449 233.232 94.4796 233.073 94.216Z" fill="#347357"/>
<path d="M232.945 96C231.924 96.8342 231.367 98.1973 231.214 99H231.746C231.964 98.1898 232.098 97.2572 232.945 96L232.945 96ZM230.305 96.3468C230.666 96.7622 231.01 97.2229 231.284 97.6649C231.333 97.7444 231.381 97.8247 231.427 97.9057C231.483 97.7754 231.543 97.6468 231.607 97.5202C231.25 97.0491 230.825 96.6273 230.305 96.3468L230.305 96.3468ZM233 97.2313C232.645 97.5388 232.457 97.9883 232.376 98.4923C232.471 98.6632 232.56 98.8316 232.644 98.9942H232.915C232.741 98.5215 232.836 97.9203 233 97.2313ZM230.226 97.3328C230.729 97.8173 231.059 98.5802 230.778 98.9915H231.088C231.119 98.8254 231.166 98.6368 231.231 98.4343C231.104 97.8768 230.67 97.3493 230.226 97.3328V97.3328ZM230 97.9144C230.365 98.4498 230.425 98.741 230.282 98.9899H230.747C230.657 98.5135 230.53 98.2206 230 97.9144V97.9144ZM232.073 98.216C232 98.4896 231.941 98.748 231.875 98.9981H232.507C232.375 98.7449 232.232 98.4796 232.073 98.216Z" fill="#347357"/>
<path d="M231.945 100C230.924 100.834 230.367 102.197 230.214 103H230.746C230.964 102.19 231.098 101.257 231.945 100L231.945 100ZM229.305 100.347C229.666 100.762 230.01 101.223 230.284 101.665C230.333 101.744 230.381 101.825 230.427 101.906C230.483 101.775 230.543 101.647 230.607 101.52C230.25 101.049 229.825 100.627 229.305 100.347L229.305 100.347ZM232 101.231C231.645 101.539 231.457 101.988 231.376 102.492C231.471 102.663 231.56 102.832 231.644 102.994H231.915C231.741 102.522 231.836 101.92 232 101.231ZM229.226 101.333C229.729 101.817 230.059 102.58 229.778 102.992H230.088C230.119 102.825 230.166 102.637 230.231 102.434C230.104 101.877 229.67 101.349 229.226 101.333V101.333ZM229 101.914C229.365 102.45 229.425 102.741 229.282 102.99H229.747C229.657 102.514 229.53 102.221 229 101.914V101.914ZM231.073 102.216C231 102.49 230.941 102.748 230.875 102.998H231.507C231.375 102.745 231.232 102.48 231.073 102.216Z" fill="#347357"/>
<path d="M230.945 104C229.924 104.834 229.367 106.197 229.214 107H229.746C229.964 106.19 230.098 105.257 230.945 104L230.945 104ZM228.305 104.347C228.666 104.762 229.01 105.223 229.284 105.665C229.333 105.744 229.381 105.825 229.427 105.906C229.483 105.775 229.543 105.647 229.607 105.52C229.25 105.049 228.825 104.627 228.305 104.347L228.305 104.347ZM231 105.231C230.645 105.539 230.457 105.988 230.376 106.492C230.471 106.663 230.56 106.832 230.644 106.994H230.915C230.741 106.522 230.836 105.92 231 105.231ZM228.226 105.333C228.729 105.817 229.059 106.58 228.778 106.992H229.088C229.119 106.825 229.166 106.637 229.231 106.434C229.104 105.877 228.67 105.349 228.226 105.333V105.333ZM228 105.914C228.365 106.45 228.425 106.741 228.282 106.99H228.747C228.657 106.514 228.53 106.221 228 105.914V105.914ZM230.073 106.216C230 106.49 229.941 106.748 229.875 106.998H230.507C230.375 106.745 230.232 106.48 230.073 106.216Z" fill="#347357"/>
</g>
<g opacity="0.5">
<path d="M240.945 83C239.924 83.8342 239.367 85.1973 239.214 86H239.746C239.964 85.1898 240.098 84.2572 240.945 83L240.945 83ZM238.305 83.3468C238.666 83.7622 239.01 84.2229 239.284 84.6649C239.333 84.7444 239.381 84.8247 239.427 84.9057C239.483 84.7754 239.543 84.6468 239.607 84.5202C239.25 84.0491 238.825 83.6273 238.305 83.3468L238.305 83.3468ZM241 84.2313C240.645 84.5388 240.457 84.9883 240.376 85.4923C240.471 85.6632 240.56 85.8316 240.644 85.9942H240.915C240.741 85.5215 240.836 84.9203 241 84.2313ZM238.226 84.3328C238.729 84.8173 239.059 85.5802 238.778 85.9915H239.088C239.119 85.8254 239.166 85.6368 239.231 85.4343C239.104 84.8768 238.67 84.3493 238.226 84.3328V84.3328ZM238 84.9144C238.365 85.4498 238.425 85.741 238.282 85.9899H238.747C238.657 85.5135 238.53 85.2206 238 84.9144V84.9144ZM240.073 85.216C240 85.4896 239.941 85.748 239.875 85.9981H240.507C240.375 85.7449 240.232 85.4796 240.073 85.216Z" fill="#347357"/>
<path d="M239.945 87C238.924 87.8342 238.367 89.1973 238.214 90H238.746C238.964 89.1898 239.098 88.2572 239.945 87L239.945 87ZM237.305 87.3468C237.666 87.7622 238.01 88.2229 238.284 88.6649C238.333 88.7444 238.381 88.8247 238.427 88.9057C238.483 88.7754 238.543 88.6468 238.607 88.5202C238.25 88.0491 237.825 87.6273 237.305 87.3468L237.305 87.3468ZM240 88.2313C239.645 88.5388 239.457 88.9883 239.376 89.4923C239.471 89.6632 239.56 89.8316 239.644 89.9942H239.915C239.741 89.5215 239.836 88.9203 240 88.2313ZM237.226 88.3328C237.729 88.8173 238.059 89.5802 237.778 89.9915H238.088C238.119 89.8254 238.166 89.6368 238.231 89.4343C238.104 88.8768 237.67 88.3493 237.226 88.3328V88.3328ZM237 88.9144C237.365 89.4498 237.425 89.741 237.282 89.9899H237.747C237.657 89.5135 237.53 89.2206 237 88.9144V88.9144ZM239.073 89.216C239 89.4896 238.941 89.748 238.875 89.9981H239.507C239.375 89.7449 239.232 89.4796 239.073 89.216Z" fill="#347357"/>
<path d="M238.945 91C237.924 91.8342 237.367 93.1973 237.214 94H237.746C237.964 93.1898 238.098 92.2572 238.945 91L238.945 91ZM236.305 91.3468C236.666 91.7622 237.01 92.2229 237.284 92.6649C237.333 92.7444 237.381 92.8247 237.427 92.9057C237.483 92.7754 237.543 92.6468 237.607 92.5202C237.25 92.0491 236.825 91.6273 236.305 91.3468L236.305 91.3468ZM239 92.2313C238.645 92.5388 238.457 92.9883 238.376 93.4923C238.471 93.6632 238.56 93.8316 238.644 93.9942H238.915C238.741 93.5215 238.836 92.9203 239 92.2313ZM236.226 92.3328C236.729 92.8173 237.059 93.5802 236.778 93.9915H237.088C237.119 93.8254 237.166 93.6368 237.231 93.4343C237.104 92.8768 236.67 92.3493 236.226 92.3328V92.3328ZM236 92.9144C236.365 93.4498 236.425 93.741 236.282 93.9899H236.747C236.657 93.5135 236.53 93.2206 236 92.9144V92.9144ZM238.073 93.216C238 93.4896 237.941 93.748 237.875 93.9981H238.507C238.375 93.7449 238.232 93.4796 238.073 93.216Z" fill="#347357"/>
<path d="M237.945 95C236.924 95.8342 236.367 97.1973 236.214 98H236.746C236.964 97.1898 237.098 96.2572 237.945 95L237.945 95ZM235.305 95.3468C235.666 95.7622 236.01 96.2229 236.284 96.6649C236.333 96.7444 236.381 96.8247 236.427 96.9057C236.483 96.7754 236.543 96.6468 236.607 96.5202C236.25 96.0491 235.825 95.6273 235.305 95.3468L235.305 95.3468ZM238 96.2313C237.645 96.5388 237.457 96.9883 237.376 97.4923C237.471 97.6632 237.56 97.8316 237.644 97.9942H237.915C237.741 97.5215 237.836 96.9203 238 96.2313ZM235.226 96.3328C235.729 96.8173 236.059 97.5802 235.778 97.9915H236.088C236.119 97.8254 236.166 97.6368 236.231 97.4343C236.104 96.8768 235.67 96.3493 235.226 96.3328V96.3328ZM235 96.9144C235.365 97.4498 235.425 97.741 235.282 97.9899H235.747C235.657 97.5135 235.53 97.2206 235 96.9144V96.9144ZM237.073 97.216C237 97.4896 236.941 97.748 236.875 97.9981H237.507C237.375 97.7449 237.232 97.4796 237.073 97.216Z" fill="#347357"/>
<path d="M236.945 99C235.924 99.8342 235.367 101.197 235.214 102H235.746C235.964 101.19 236.098 100.257 236.945 99L236.945 99ZM234.305 99.3468C234.666 99.7622 235.01 100.223 235.284 100.665C235.333 100.744 235.381 100.825 235.427 100.906C235.483 100.775 235.543 100.647 235.607 100.52C235.25 100.049 234.825 99.6273 234.305 99.3468L234.305 99.3468ZM237 100.231C236.645 100.539 236.457 100.988 236.376 101.492C236.471 101.663 236.56 101.832 236.644 101.994H236.915C236.741 101.522 236.836 100.92 237 100.231ZM234.226 100.333C234.729 100.817 235.059 101.58 234.778 101.992H235.088C235.119 101.825 235.166 101.637 235.231 101.434C235.104 100.877 234.67 100.349 234.226 100.333V100.333ZM234 100.914C234.365 101.45 234.425 101.741 234.282 101.99H234.747C234.657 101.514 234.53 101.221 234 100.914V100.914ZM236.073 101.216C236 101.49 235.941 101.748 235.875 101.998H236.507C236.375 101.745 236.232 101.48 236.073 101.216Z" fill="#347357"/>
<path d="M235.945 103C234.924 103.834 234.367 105.197 234.214 106H234.746C234.964 105.19 235.098 104.257 235.945 103L235.945 103ZM233.305 103.347C233.666 103.762 234.01 104.223 234.284 104.665C234.333 104.744 234.381 104.825 234.427 104.906C234.483 104.775 234.543 104.647 234.607 104.52C234.25 104.049 233.825 103.627 233.305 103.347L233.305 103.347ZM236 104.231C235.645 104.539 235.457 104.988 235.376 105.492C235.471 105.663 235.56 105.832 235.644 105.994H235.915C235.741 105.522 235.836 104.92 236 104.231ZM233.226 104.333C233.729 104.817 234.059 105.58 233.778 105.992H234.088C234.119 105.825 234.166 105.637 234.231 105.434C234.104 104.877 233.67 104.349 233.226 104.333V104.333ZM233 104.914C233.365 105.45 233.425 105.741 233.282 105.99H233.747C233.657 105.514 233.53 105.221 233 104.914V104.914ZM235.073 105.216C235 105.49 234.941 105.748 234.875 105.998H235.507C235.375 105.745 235.232 105.48 235.073 105.216Z" fill="#347357"/>
</g>
<g opacity="0.5">
<path d="M245.945 82C244.924 82.8342 244.367 84.1973 244.214 85H244.746C244.964 84.1898 245.098 83.2572 245.945 82L245.945 82ZM243.305 82.3468C243.666 82.7622 244.01 83.2229 244.284 83.6649C244.333 83.7444 244.381 83.8247 244.427 83.9057C244.483 83.7754 244.543 83.6468 244.607 83.5202C244.25 83.0491 243.825 82.6273 243.305 82.3468L243.305 82.3468ZM246 83.2313C245.645 83.5388 245.457 83.9883 245.376 84.4923C245.471 84.6632 245.56 84.8316 245.644 84.9942H245.915C245.741 84.5215 245.836 83.9203 246 83.2313ZM243.226 83.3328C243.729 83.8173 244.059 84.5802 243.778 84.9915H244.088C244.119 84.8254 244.166 84.6368 244.231 84.4343C244.104 83.8768 243.67 83.3493 243.226 83.3328V83.3328ZM243 83.9144C243.365 84.4498 243.425 84.741 243.282 84.9899H243.747C243.657 84.5135 243.53 84.2206 243 83.9144V83.9144ZM245.073 84.216C245 84.4896 244.941 84.748 244.875 84.9981H245.507C245.375 84.7449 245.232 84.4796 245.073 84.216Z" fill="#347357"/>
<path d="M244.945 86C243.924 86.8342 243.367 88.1973 243.214 89H243.746C243.964 88.1898 244.098 87.2572 244.945 86L244.945 86ZM242.305 86.3468C242.666 86.7622 243.01 87.2229 243.284 87.6649C243.333 87.7444 243.381 87.8247 243.427 87.9057C243.483 87.7754 243.543 87.6468 243.607 87.5202C243.25 87.0491 242.825 86.6273 242.305 86.3468L242.305 86.3468ZM245 87.2313C244.645 87.5388 244.457 87.9883 244.376 88.4923C244.471 88.6632 244.56 88.8316 244.644 88.9942H244.915C244.741 88.5215 244.836 87.9203 245 87.2313ZM242.226 87.3328C242.729 87.8173 243.059 88.5802 242.778 88.9915H243.088C243.119 88.8254 243.166 88.6368 243.231 88.4343C243.104 87.8768 242.67 87.3493 242.226 87.3328V87.3328ZM242 87.9144C242.365 88.4498 242.425 88.741 242.282 88.9899H242.747C242.657 88.5135 242.53 88.2206 242 87.9144V87.9144ZM244.073 88.216C244 88.4896 243.941 88.748 243.875 88.9981H244.507C244.375 88.7449 244.232 88.4796 244.073 88.216Z" fill="#347357"/>
<path d="M243.945 90C242.924 90.8342 242.367 92.1973 242.214 93H242.746C242.964 92.1898 243.098 91.2572 243.945 90L243.945 90ZM241.305 90.3468C241.666 90.7622 242.01 91.2229 242.284 91.6649C242.333 91.7444 242.381 91.8247 242.427 91.9057C242.483 91.7754 242.543 91.6468 242.607 91.5202C242.25 91.0491 241.825 90.6273 241.305 90.3468L241.305 90.3468ZM244 91.2313C243.645 91.5388 243.457 91.9883 243.376 92.4923C243.471 92.6632 243.56 92.8316 243.644 92.9942H243.915C243.741 92.5215 243.836 91.9203 244 91.2313ZM241.226 91.3328C241.729 91.8173 242.059 92.5802 241.778 92.9915H242.088C242.119 92.8254 242.166 92.6368 242.231 92.4343C242.104 91.8768 241.67 91.3493 241.226 91.3328V91.3328ZM241 91.9144C241.365 92.4498 241.425 92.741 241.282 92.9899H241.747C241.657 92.5135 241.53 92.2206 241 91.9144V91.9144ZM243.073 92.216C243 92.4896 242.941 92.748 242.875 92.9981H243.507C243.375 92.7449 243.232 92.4796 243.073 92.216Z" fill="#347357"/>
<path d="M242.945 94C241.924 94.8342 241.367 96.1973 241.214 97H241.746C241.964 96.1898 242.098 95.2572 242.945 94L242.945 94ZM240.305 94.3468C240.666 94.7622 241.01 95.2229 241.284 95.6649C241.333 95.7444 241.381 95.8247 241.427 95.9057C241.483 95.7754 241.543 95.6468 241.607 95.5202C241.25 95.0491 240.825 94.6273 240.305 94.3468L240.305 94.3468ZM243 95.2313C242.645 95.5388 242.457 95.9883 242.376 96.4923C242.471 96.6632 242.56 96.8316 242.644 96.9942H242.915C242.741 96.5215 242.836 95.9203 243 95.2313ZM240.226 95.3328C240.729 95.8173 241.059 96.5802 240.778 96.9915H241.088C241.119 96.8254 241.166 96.6368 241.231 96.4343C241.104 95.8768 240.67 95.3493 240.226 95.3328V95.3328ZM240 95.9144C240.365 96.4498 240.425 96.741 240.282 96.9899H240.747C240.657 96.5135 240.53 96.2206 240 95.9144V95.9144ZM242.073 96.216C242 96.4896 241.941 96.748 241.875 96.9981H242.507C242.375 96.7449 242.232 96.4796 242.073 96.216Z" fill="#347357"/>
<path d="M241.945 98C240.924 98.8342 240.367 100.197 240.214 101H240.746C240.964 100.19 241.098 99.2572 241.945 98L241.945 98ZM239.305 98.3468C239.666 98.7622 240.01 99.2229 240.284 99.6649C240.333 99.7444 240.381 99.8247 240.427 99.9057C240.483 99.7754 240.543 99.6468 240.607 99.5202C240.25 99.0491 239.825 98.6273 239.305 98.3468L239.305 98.3468ZM242 99.2313C241.645 99.5388 241.457 99.9883 241.376 100.492C241.471 100.663 241.56 100.832 241.644 100.994H241.915C241.741 100.522 241.836 99.9203 242 99.2313ZM239.226 99.3328C239.729 99.8173 240.059 100.58 239.778 100.992H240.088C240.119 100.825 240.166 100.637 240.231 100.434C240.104 99.8768 239.67 99.3493 239.226 99.3328V99.3328ZM239 99.9144C239.365 100.45 239.425 100.741 239.282 100.99H239.747C239.657 100.514 239.53 100.221 239 99.9144V99.9144ZM241.073 100.216C241 100.49 240.941 100.748 240.875 100.998H241.507C241.375 100.745 241.232 100.48 241.073 100.216Z" fill="#347357"/>
<path d="M240.945 102C239.924 102.834 239.367 104.197 239.214 105H239.746C239.964 104.19 240.098 103.257 240.945 102L240.945 102ZM238.305 102.347C238.666 102.762 239.01 103.223 239.284 103.665C239.333 103.744 239.381 103.825 239.427 103.906C239.483 103.775 239.543 103.647 239.607 103.52C239.25 103.049 238.825 102.627 238.305 102.347L238.305 102.347ZM241 103.231C240.645 103.539 240.457 103.988 240.376 104.492C240.471 104.663 240.56 104.832 240.644 104.994H240.915C240.741 104.522 240.836 103.92 241 103.231ZM238.226 103.333C238.729 103.817 239.059 104.58 238.778 104.992H239.088C239.119 104.825 239.166 104.637 239.231 104.434C239.104 103.877 238.67 103.349 238.226 103.333V103.333ZM238 103.914C238.365 104.45 238.425 104.741 238.282 104.99H238.747C238.657 104.514 238.53 104.221 238 103.914V103.914ZM240.073 104.216C240 104.49 239.941 104.748 239.875 104.998H240.507C240.375 104.745 240.232 104.48 240.073 104.216Z" fill="#347357"/>
</g>
<g filter="url(#filter1_ddd_6359_23509)">
<circle cx="5" r="51" fill="white"/>
</g>
</g>
<defs>
<filter id="filter0_d_6359_23509" x="53" y="66" width="312" height="104" filterUnits="userSpaceOnUse" color-interpolation-filters="sRGB">
<feFlood flood-opacity="0" result="BackgroundImageFix"/>
<feColorMatrix in="SourceAlpha" type="matrix" values="0 0 0 0 0 0 0 0 0 0 0 0 0 0 0 0 0 0 127 0" result="hardAlpha"/>
<feOffset dy="4"/>
<feGaussianBlur stdDeviation="2"/>
<feComposite in2="hardAlpha" operator="out"/>
<feColorMatrix type="matrix" values="0 0 0 0 0 0 0 0 0 0 0 0 0 0 0 0 0 0 0.25 0"/>
<feBlend mode="normal" in2="BackgroundImageFix" result="effect1_dropShadow_6359_23509"/>
<feBlend mode="normal" in="SourceGraphic" in2="effect1_dropShadow_6359_23509" result="shape"/>
</filter>
<filter id="filter1_ddd_6359_23509" x="-166" y="-171" width="342" height="342" filterUnits="userSpaceOnUse" color-interpolation-filters="sRGB">
<feFlood flood-opacity="0" result="BackgroundImageFix"/>
<feColorMatrix in="SourceAlpha" type="matrix" values="0 0 0 0 0 0 0 0 0 0 0 0 0 0 0 0 0 0 127 0" result="hardAlpha"/>
<feOffset/>
<feGaussianBlur stdDeviation="20"/>
<feColorMatrix type="matrix" values="0 0 0 0 1 0 0 0 0 1 0 0 0 0 1 0 0 0 0.8 0"/>
<feBlend mode="normal" in2="BackgroundImageFix" result="effect1_dropShadow_6359_23509"/>
<feColorMatrix in="SourceAlpha" type="matrix" values="0 0 0 0 0 0 0 0 0 0 0 0 0 0 0 0 0 0 127 0" result="hardAlpha"/>
<feOffset/>
<feGaussianBlur stdDeviation="40"/>
<feColorMatrix type="matrix" values="0 0 0 0 1 0 0 0 0 1 0 0 0 0 1 0 0 0 0.6 0"/>
<feBlend mode="normal" in2="effect1_dropShadow_6359_23509" result="effect2_dropShadow_6359_23509"/>
<feColorMatrix in="SourceAlpha" type="matrix" values="0 0 0 0 0 0 0 0 0 0 0 0 0 0 0 0 0 0 127 0" result="hardAlpha"/>
<feOffset/>
<feGaussianBlur stdDeviation="60"/>
<feColorMatrix type="matrix" values="0 0 0 0 1 0 0 0 0 1 0 0 0 0 1 0 0 0 0.24 0"/>
<feBlend mode="normal" in2="effect2_dropShadow_6359_23509" result="effect3_dropShadow_6359_23509"/>
<feBlend mode="normal" in="SourceGraphic" in2="effect3_dropShadow_6359_23509" result="shape"/>
</filter>
<radialGradient id="paint0_radial_6359_23509" cx="0" cy="0" r="1" gradientUnits="userSpaceOnUse" gradientTransform="translate(309.5 29.3179) rotate(156.914) scale(233.174 515.952)">
<stop stop-color="#C3E8D8"/>
<stop offset="1" stop-color="#E2F3EC"/>
</radialGradient>
<clipPath id="clip0_6359_23509">
<path d="M0 0H360V145C360 153.837 352.837 161 344 161H16C7.16344 161 0 153.837 0 145V0Z" fill="white"/>
</clipPath>
</defs>
</svg>
