<svg width="341" height="147" viewBox="0 0 341 147" fill="none" xmlns="http://www.w3.org/2000/svg">
<g filter="url(#filter0_dd_10457_24016)">
<g clip-path="url(#clip0_10457_24016)">
<rect x="6" y="2" width="329" height="135" rx="8" fill="url(#paint0_linear_10457_24016)"/>
<g filter="url(#filter1_f_10457_24016)">
<ellipse cx="170.5" cy="128" rx="178.5" ry="102" fill="#FDFFE2"/>
</g>
<path d="M12.7836 2.51002C12.8406 2.23057 13.0345 2.00244 13.2854 1.89408L15.4241 0.964474C15.7264 0.833302 16.0743 0.884631 16.3252 1.08424C16.5819 1.29526 16.6959 1.62604 16.6275 1.94541C16.6275 1.95682 16.3594 3.35408 17.1408 4.52322C17.7054 5.36158 18.6977 5.90908 20.095 6.15432C23.8134 6.81018 24.2297 9.2226 24.5263 10.9792C24.8115 12.6445 25.0111 13.3916 26.6992 13.5513C28.5755 13.7281 29.9557 14.4296 30.8054 15.6386C32.1685 17.5663 31.5697 20.0357 31.5468 20.1384C31.4841 20.4007 31.2959 20.6174 31.045 20.7258L28.9063 21.6554C28.7922 21.7067 28.6725 21.7296 28.5584 21.7296C28.4262 21.7298 28.2957 21.7 28.1767 21.6424C28.0577 21.5849 27.9533 21.501 27.8715 21.3972C27.7896 21.2934 27.7325 21.1723 27.7042 21.0432C27.676 20.914 27.6775 20.7801 27.7086 20.6517C27.7086 20.6346 28.1307 18.8381 27.2296 17.572C26.6821 16.8078 25.7297 16.3515 24.3894 16.226C21.2926 15.9295 20.9276 13.7794 20.6596 12.211C20.3744 10.5571 20.1577 9.25112 17.6483 8.81198C15.7663 8.48119 14.3861 7.68275 13.5478 6.43377C12.3501 4.63158 12.7608 2.59557 12.7836 2.51002Z" fill="#ED6C30"/>
<path d="M5.99713 27.3471C7.30885 26.2692 7.05791 25.5449 6.36783 23.9993C5.63213 22.3739 4.62838 20.1383 7.35447 17.5206C8.36963 16.5453 8.88861 15.5359 8.89432 14.5321C8.90572 13.1121 7.89056 12.0969 7.88486 12.0855C7.65103 11.8574 7.56549 11.5209 7.65674 11.2072C7.75369 10.8935 8.01033 10.6597 8.33541 10.6027L10.6281 10.1807C10.9018 10.1293 11.187 10.2149 11.3923 10.4088C11.4493 10.4715 12.9378 11.9315 12.9321 14.093C12.9321 15.5929 12.2249 17.0244 10.8562 18.3532C9.01978 20.1155 9.56158 21.3246 10.2517 22.8587C10.9018 24.313 11.7972 26.2977 9.39619 28.271C8.35252 29.1264 7.81072 30.0332 7.78791 30.9742C7.74228 32.5312 9.09392 33.7859 9.10533 33.7916C9.35627 34.014 9.44752 34.3619 9.36197 34.6756C9.27072 35.0007 9.00837 35.2402 8.67759 35.2972L6.38494 35.7192C6.33361 35.7307 6.28228 35.7364 6.23096 35.7364C6.01994 35.7364 5.80892 35.6565 5.64353 35.5139C5.56369 35.4398 3.68737 33.7289 3.7444 31.3678C3.79002 29.8964 4.54283 28.5447 5.99713 27.3471ZM18.4642 27.0049C17.1981 24.8092 17.8938 22.8587 17.9224 22.7732C18.0079 22.545 18.1847 22.3568 18.4185 22.2713L20.4603 21.45C20.7739 21.3246 21.1389 21.393 21.3842 21.6325C21.6294 21.8664 21.7206 22.2314 21.6066 22.5564C21.5895 22.6078 21.1731 23.8567 22.0172 25.311C22.405 25.9726 22.8955 26.2178 23.5228 26.5258C24.2357 26.8737 25.1254 27.3071 25.6615 28.4592C26.1634 29.5314 26.0322 30.5693 25.9238 31.4875C25.8212 32.3259 25.7356 33.0445 26.0778 33.7574C26.4371 34.5216 27.0531 34.9037 27.766 35.3485C28.4731 35.7877 29.2716 36.2839 29.8476 37.2021C30.3381 37.9834 30.3951 38.8731 30.4521 39.7399C30.5491 41.1486 30.6631 42.044 31.8893 42.6714C32.1916 42.8253 32.3798 43.1447 32.3684 43.4869C32.3513 43.8291 32.1403 44.1314 31.8209 44.2568L29.7792 45.0781C29.6765 45.1237 29.5624 45.1408 29.4541 45.1408C29.3172 45.1408 29.186 45.1066 29.0606 45.0439C26.8934 43.9431 26.7622 42.0554 26.6767 40.6753C26.631 39.9966 26.5911 39.3578 26.3288 38.9529C25.9695 38.3712 25.422 38.0404 24.8003 37.6469C23.9734 37.1279 23.0438 36.5519 22.462 35.3257C21.9031 34.1509 22.0343 33.0559 22.1598 32.0921C22.2567 31.3107 22.3366 30.6321 22.0457 30.0161C21.7834 29.4458 21.4127 29.2462 20.7226 28.9097C19.9983 28.5561 19.1086 28.1284 18.4642 27.0049ZM43.3982 17.224C42.4287 17.1898 41.328 17.1442 40.2159 16.3685C39.1494 15.6214 38.7274 14.612 38.3453 13.7109C38.0373 12.9809 37.7749 12.3535 37.216 11.96C36.6457 11.5608 36.1153 11.6178 35.5222 11.6578C35.2884 11.6749 35.0488 11.6863 34.815 11.6863C34.296 11.6863 33.509 11.6292 32.625 11.116C30.435 9.84417 30.0757 7.79675 30.0586 7.7112C30.0187 7.47167 30.0871 7.22073 30.2354 7.02682L31.6042 5.29878C31.8152 5.03073 32.1745 4.91096 32.5053 4.99651C32.836 5.08206 33.087 5.35581 33.144 5.698C33.1497 5.7094 33.4006 7.02682 34.8663 7.87659C35.2713 8.11612 35.6534 8.21308 36.1781 8.21308C36.3777 8.21308 36.5773 8.20167 36.7769 8.19026C37.005 8.17315 37.2274 8.16175 37.4556 8.16175C38.0259 8.16175 38.7787 8.23589 39.5885 8.8119C40.5581 9.49628 40.9573 10.4601 41.3166 11.3156C41.6417 12.0912 41.9268 12.7585 42.577 13.2147C43.267 13.6938 43.9913 13.7223 44.8297 13.7565C45.6567 13.7907 46.5977 13.825 47.5558 14.3382C48.3656 14.7774 48.8618 15.5188 49.3352 16.2374C50.088 17.378 50.6127 18.0738 51.8674 18.0738L52.0385 18.0681C52.3692 18.051 52.7 18.2335 52.8597 18.5414C53.0137 18.8437 52.9795 19.2144 52.7628 19.4824L51.394 21.2105C51.2343 21.4044 51.0005 21.5242 50.7553 21.5356C50.6697 21.5413 50.5842 21.547 50.4986 21.547C48.2459 21.547 47.2421 20.0357 46.5121 18.9292C46.1414 18.3646 45.7821 17.8285 45.3601 17.6004C44.7727 17.2753 44.1339 17.2525 43.3982 17.224Z" fill="#D7598B"/>
<path d="M35.2026 24.3014V21.6153C35.2026 21.1305 35.5961 20.7427 36.0752 20.7427H38.7671C39.2461 20.7427 39.6396 21.1305 39.6396 21.6153V24.3014C39.6396 24.7862 39.2518 25.174 38.7671 25.174H36.0752C35.5904 25.174 35.2026 24.7805 35.2026 24.3014Z" fill="#ED6C30"/>
<path d="M45.8847 3.32549L47.7839 5.22463C48.1261 5.56682 48.1261 6.12002 47.7839 6.4565L45.8847 8.36135C45.7137 8.52674 45.4912 8.61799 45.2688 8.61799C45.0407 8.61799 44.8183 8.53244 44.6529 8.36135L42.748 6.4565C42.4058 6.11432 42.4058 5.56682 42.748 5.22463L44.6529 3.32549C44.9951 2.9833 45.5483 2.9833 45.8847 3.32549Z" fill="#40C0E7"/>
<path d="M51.1886 8.74918C51.0232 8.58379 50.932 8.36707 50.932 8.13324C50.932 7.90512 51.0232 7.6827 51.1886 7.5173L53.0935 5.61246C53.4185 5.28738 54.0003 5.28738 54.3253 5.61246L56.2245 7.5173C56.3899 7.6827 56.4868 7.90512 56.4868 8.13324C56.4868 8.36707 56.3899 8.58379 56.2245 8.74918L54.3253 10.6483C54.2446 10.7295 54.1486 10.7939 54.0429 10.8379C53.9372 10.8818 53.8239 10.9045 53.7094 10.9045C53.5949 10.9045 53.4816 10.8818 53.3759 10.8379C53.2701 10.7939 53.1742 10.7295 53.0935 10.6483L51.1886 8.74918Z" fill="#ED6C30"/>
<path d="M41.4133 27.0392C41.7384 26.7084 42.3201 26.7084 42.6509 27.0392L44.55 28.9383C44.8922 29.2805 44.8922 29.8337 44.55 30.1759L42.6509 32.0751C42.5701 32.1562 42.4742 32.2207 42.3685 32.2646C42.2628 32.3086 42.1494 32.3312 42.0349 32.3312C41.9204 32.3312 41.8071 32.3086 41.7014 32.2646C41.5957 32.2207 41.4997 32.1562 41.419 32.0751L39.5198 30.1759C39.1777 29.8337 39.1777 29.2805 39.5198 28.9383L41.4133 27.0392ZM17.8936 37.8238C18.2358 37.4816 18.789 37.4816 19.1312 37.8238L20.9163 39.6089C21.2584 39.9511 21.2584 40.5043 20.9163 40.8465L19.1312 42.6315C19.0505 42.7127 18.9545 42.7772 18.8488 42.8211C18.7431 42.8651 18.6297 42.8877 18.5152 42.8877C18.4008 42.8877 18.2874 42.8651 18.1817 42.8211C18.076 42.7772 17.98 42.7127 17.8993 42.6315L16.1142 40.8465C15.772 40.5043 15.772 39.9511 16.1142 39.6089L17.8936 37.8238ZM-6.28196 25.8472C-6.36267 25.9284 -6.45864 25.9929 -6.56435 26.0368C-6.67006 26.0808 -6.78341 26.1034 -6.89789 26.1034C-7.01237 26.1034 -7.12573 26.0808 -7.23143 26.0368C-7.33714 25.9929 -7.43311 25.9284 -7.51383 25.8472L-9.30461 24.0622C-9.6411 23.72 -9.6411 23.1725 -9.30461 22.8303L-7.51383 21.0452C-7.17164 20.703 -6.61844 20.703 -6.28196 21.0452L-4.49688 22.8303C-4.15469 23.1725 -4.15469 23.72 -4.49688 24.0622L-6.28196 25.8472ZM-0.727112 38.2002C-0.390629 37.858 0.168278 37.858 0.510464 38.2002L2.29555 39.9853C2.63203 40.3275 2.63203 40.8807 2.29555 41.2229L0.510464 43.008C0.339371 43.1733 0.111248 43.2646 -0.111172 43.2646C-0.333595 43.2646 -0.556019 43.179 -0.727112 43.008L-2.51219 41.2229C-2.85437 40.8807 -2.85437 40.3275 -2.51219 39.9853L-0.727112 38.2002ZM31.6609 33.689V31.0029C31.6609 30.5238 32.0545 30.1303 32.5335 30.1303H35.2254C35.7102 30.1303 36.098 30.5238 36.098 31.0029V33.689C36.098 34.1738 35.7102 34.5616 35.2254 34.5616H32.5335C32.0545 34.5616 31.6609 34.1681 31.6609 33.689Z" fill="#40C0E7"/>
<path d="M15.424 30.21H17.9505C18.4295 30.21 18.823 30.5978 18.823 31.0825V33.609C18.823 34.0881 18.4295 34.4816 17.9505 34.4816H15.424C14.9449 34.4816 14.5514 34.0881 14.5514 33.609V31.0825C14.5514 30.5978 14.9392 30.21 15.424 30.21ZM41.9492 36.7514H44.6411C45.1202 36.7514 45.5137 37.145 45.5137 37.624V40.3102C45.5137 40.7893 45.1202 41.1828 44.6411 41.1828H41.9492C41.4645 41.1828 41.0766 40.7893 41.0766 40.3102V37.624C41.0766 37.1393 41.4645 36.7514 41.9492 36.7514Z" fill="#ED6C30"/>
<path d="M49.7227 28.9383C50.0592 28.5961 50.6124 28.5961 50.9546 28.9383L52.8537 30.8431C53.0248 31.0085 53.1104 31.2252 53.1104 31.4591C53.1104 31.6929 53.0191 31.9153 52.8537 32.075L50.9546 33.9741C50.8739 34.0553 50.7779 34.1197 50.6722 34.1637C50.5665 34.2077 50.4531 34.2303 50.3386 34.2303C50.2241 34.2303 50.1108 34.2077 50.0051 34.1637C49.8994 34.1197 49.8034 34.0553 49.7227 33.9741L47.8236 32.075C47.4814 31.7328 47.4814 31.1796 47.8236 30.8431L49.7227 28.9383Z" fill="#40C0E7"/>
<path d="M53.8234 -1.83585C52.7284 -1.51077 51.525 -1.756 50.5783 -2.02405C49.8255 -2.23507 49.1183 -2.40616 48.508 -2.22366C47.9035 -2.05257 47.6469 -1.71038 47.2134 -1.08304C46.7629 -0.43288 46.204 0.376966 44.9949 0.850325C44.3334 1.10697 43.649 1.24384 42.9703 1.24384C42.765 1.24384 42.5768 1.23243 42.3943 1.21532C41.9666 1.1697 41.6301 0.810401 41.613 0.382667L41.5331 -1.73889C41.5217 -1.97272 41.6301 -2.20655 41.7955 -2.37765C41.9609 -2.54874 42.2118 -2.64569 42.4456 -2.64569C42.9361 -2.64569 43.398 -2.73124 43.8543 -2.91374C44.5672 -3.19319 44.8809 -3.64374 45.2744 -4.21975C45.7306 -4.87561 46.2952 -5.68546 47.51 -6.04475C48.5194 -6.34132 49.603 -6.11319 50.5384 -5.85085C51.3482 -5.62272 52.1124 -5.44593 52.8139 -5.65694C53.253 -5.78811 53.6237 -6.02194 54.0287 -6.42686C54.2226 -6.60936 54.4963 -6.70632 54.7587 -6.66639C55.0267 -6.63218 55.2605 -6.47249 55.3974 -6.23866L56.3669 -4.58475C56.5551 -4.25968 56.5209 -3.85475 56.27 -3.5696C55.6997 -2.91944 54.9868 -2.18944 53.8234 -1.83585ZM-15.0704 37.9206C-14.8936 37.8123 -14.7453 37.8009 -14.5799 37.7781C-12.7834 37.5899 -11.2265 36.9853 -10.0745 36.0614C-12.5952 34.8181 -13.5876 32.4114 -13.4564 30.9457C-13.4564 30.8887 -13.4507 30.8145 -13.4393 30.7404C-13.2511 28.6245 -11.9508 27.2615 -10.1258 27.2615C-9.67524 27.2615 -9.19618 27.3413 -8.66579 27.501C-7.99853 27.7006 -6.07087 28.2881 -5.05571 32.2118C-3.78392 31.3107 -2.75735 29.8849 -2.1129 28.0827C-2.05587 27.9174 -2.01024 27.7805 -1.86196 27.6379C-1.53688 27.3128 -0.960873 27.3128 -0.630089 27.6379L1.25765 29.5313C1.58273 29.8564 1.59983 30.3697 1.30327 30.7119C1.38882 30.6092 1.42304 30.5351 1.41734 30.5579C0.174053 34.071 -2.2897 36.3466 -5.36938 36.8599C-6.62978 39.6316 -9.37868 41.4224 -13.0629 41.8102C-13.1199 41.8216 -13.1713 41.8216 -13.2283 41.8216C-13.5191 41.8216 -13.81 41.6733 -13.9754 41.4052L-15.367 39.1297C-15.6065 38.7077 -15.4753 38.1716 -15.0704 37.9206ZM-9.46423 32.3829C-9.0479 32.611 -8.63157 32.7992 -8.27228 32.9361C-8.24946 32.5483 -8.24947 32.0806 -8.3065 31.6016C-8.35212 31.0142 -9.08212 30.364 -9.70376 30.364C-9.85774 30.364 -9.99462 30.4039 -10.1144 30.4838C-10.3539 30.6377 -10.4908 30.9001 -10.4794 31.1738C-10.4623 31.6016 -10.103 32.0293 -9.46423 32.3829Z" fill="#ED6C30"/>
<path d="M328.216 2.51002C328.159 2.23057 327.965 2.00244 327.715 1.89408L325.576 0.964474C325.274 0.833302 324.926 0.884631 324.675 1.08424C324.418 1.29526 324.304 1.62604 324.373 1.94541C324.373 1.95682 324.641 3.35408 323.859 4.52322C323.295 5.36158 322.302 5.90908 320.905 6.15432C317.187 6.81018 316.77 9.2226 316.474 10.9792C316.189 12.6445 315.989 13.3916 314.301 13.5513C312.424 13.7281 311.044 14.4296 310.195 15.6386C308.832 17.5663 309.43 20.0357 309.453 20.1384C309.516 20.4007 309.704 20.6174 309.955 20.7258L312.094 21.6554C312.208 21.7067 312.328 21.7296 312.442 21.7296C312.574 21.7298 312.704 21.7 312.823 21.6424C312.942 21.5849 313.047 21.501 313.129 21.3972C313.21 21.2934 313.268 21.1723 313.296 21.0432C313.324 20.914 313.322 20.7801 313.291 20.6517C313.291 20.6346 312.869 18.8381 313.77 17.572C314.318 16.8078 315.27 16.3515 316.611 16.226C319.707 15.9295 320.072 13.7794 320.34 12.211C320.626 10.5571 320.842 9.25112 323.352 8.81198C325.234 8.48119 326.614 7.68275 327.452 6.43377C328.65 4.63158 328.239 2.59557 328.216 2.51002Z" fill="#ED6C30"/>
<path d="M335.003 27.3471C333.691 26.2692 333.942 25.5449 334.632 23.9993C335.368 22.3739 336.372 20.1383 333.646 17.5206C332.63 16.5453 332.111 15.5359 332.106 14.5321C332.094 13.1121 333.109 12.0969 333.115 12.0855C333.349 11.8574 333.435 11.5209 333.343 11.2072C333.246 10.8935 332.99 10.6597 332.665 10.6027L330.372 10.1807C330.098 10.1293 329.813 10.2149 329.608 10.4088C329.551 10.4715 328.062 11.9315 328.068 14.093C328.068 15.5929 328.775 17.0244 330.144 18.3532C331.98 20.1155 331.438 21.3246 330.748 22.8587C330.098 24.313 329.203 26.2977 331.604 28.271C332.647 29.1264 333.189 30.0332 333.212 30.9742C333.258 32.5312 331.906 33.7859 331.895 33.7916C331.644 34.014 331.552 34.3619 331.638 34.6756C331.729 35.0007 331.992 35.2402 332.322 35.2972L334.615 35.7192C334.666 35.7307 334.718 35.7364 334.769 35.7364C334.98 35.7364 335.191 35.6565 335.356 35.5139C335.436 35.4398 337.313 33.7289 337.256 31.3678C337.21 29.8964 336.457 28.5447 335.003 27.3471ZM322.536 27.0049C323.802 24.8092 323.106 22.8587 323.078 22.7732C322.992 22.545 322.815 22.3568 322.581 22.2713L320.54 21.45C320.226 21.3246 319.861 21.393 319.616 21.6325C319.371 21.8664 319.279 22.2314 319.393 22.5564C319.411 22.6078 319.827 23.8567 318.983 25.311C318.595 25.9726 318.105 26.2178 317.477 26.5258C316.764 26.8737 315.875 27.3071 315.338 28.4592C314.837 29.5314 314.968 30.5693 315.076 31.4875C315.179 32.3259 315.264 33.0445 314.922 33.7574C314.563 34.5216 313.947 34.9037 313.234 35.3485C312.527 35.7877 311.728 36.2839 311.152 37.2021C310.662 37.9834 310.605 38.8731 310.548 39.7399C310.451 41.1486 310.337 42.044 309.111 42.6714C308.808 42.8253 308.62 43.1447 308.632 43.4869C308.649 43.8291 308.86 44.1314 309.179 44.2568L311.221 45.0781C311.323 45.1237 311.438 45.1408 311.546 45.1408C311.683 45.1408 311.814 45.1066 311.939 45.0439C314.107 43.9431 314.238 42.0554 314.323 40.6753C314.369 39.9966 314.409 39.3578 314.671 38.9529C315.031 38.3712 315.578 38.0404 316.2 37.6469C317.027 37.1279 317.956 36.5519 318.538 35.3257C319.097 34.1509 318.966 33.0559 318.84 32.0921C318.743 31.3107 318.663 30.6321 318.954 30.0161C319.217 29.4458 319.587 29.2462 320.277 28.9097C321.002 28.5561 321.891 28.1284 322.536 27.0049ZM297.602 17.224C298.571 17.1898 299.672 17.1442 300.784 16.3685C301.851 15.6214 302.273 14.612 302.655 13.7109C302.963 12.9809 303.225 12.3535 303.784 11.96C304.354 11.5608 304.885 11.6178 305.478 11.6578C305.712 11.6749 305.951 11.6863 306.185 11.6863C306.704 11.6863 307.491 11.6292 308.375 11.116C310.565 9.84417 310.924 7.79675 310.941 7.7112C310.981 7.47167 310.913 7.22073 310.765 7.02682L309.396 5.29878C309.185 5.03073 308.826 4.91096 308.495 4.99651C308.164 5.08206 307.913 5.35581 307.856 5.698C307.85 5.7094 307.599 7.02682 306.134 7.87659C305.729 8.11612 305.347 8.21308 304.822 8.21308C304.622 8.21308 304.423 8.20167 304.223 8.19026C303.995 8.17315 303.773 8.16175 303.544 8.16175C302.974 8.16175 302.221 8.23589 301.411 8.8119C300.442 9.49628 300.043 10.4601 299.683 11.3156C299.358 12.0912 299.073 12.7585 298.423 13.2147C297.733 13.6938 297.009 13.7223 296.17 13.7565C295.343 13.7907 294.402 13.825 293.444 14.3382C292.634 14.7774 292.138 15.5188 291.665 16.2374C290.912 17.378 290.387 18.0738 289.133 18.0738L288.962 18.0681C288.631 18.051 288.3 18.2335 288.14 18.5414C287.986 18.8437 288.021 19.2144 288.237 19.4824L289.606 21.2105C289.766 21.4044 290 21.5242 290.245 21.5356C290.33 21.5413 290.416 21.547 290.501 21.547C292.754 21.547 293.758 20.0357 294.488 18.9292C294.859 18.3646 295.218 17.8285 295.64 17.6004C296.227 17.2753 296.866 17.2525 297.602 17.224Z" fill="#D7598B"/>
<path d="M305.797 24.3014V21.6153C305.797 21.1305 305.404 20.7427 304.925 20.7427H302.233C301.754 20.7427 301.36 21.1305 301.36 21.6153V24.3014C301.36 24.7862 301.748 25.174 302.233 25.174H304.925C305.41 25.174 305.797 24.7805 305.797 24.3014Z" fill="#ED6C30"/>
<path d="M295.115 3.32549L293.216 5.22463C292.874 5.56682 292.874 6.12002 293.216 6.4565L295.115 8.36135C295.286 8.52674 295.509 8.61799 295.731 8.61799C295.959 8.61799 296.182 8.53244 296.347 8.36135L298.252 6.4565C298.594 6.11432 298.594 5.56682 298.252 5.22463L296.347 3.32549C296.005 2.9833 295.452 2.9833 295.115 3.32549Z" fill="#40C0E7"/>
<path d="M289.811 8.74918C289.977 8.58379 290.068 8.36707 290.068 8.13324C290.068 7.90512 289.977 7.6827 289.811 7.5173L287.907 5.61246C287.581 5.28738 287 5.28738 286.675 5.61246L284.776 7.5173C284.61 7.6827 284.513 7.90512 284.513 8.13324C284.513 8.36707 284.61 8.58379 284.776 8.74918L286.675 10.6483C286.755 10.7295 286.851 10.7939 286.957 10.8379C287.063 10.8818 287.176 10.9045 287.291 10.9045C287.405 10.9045 287.518 10.8818 287.624 10.8379C287.73 10.7939 287.826 10.7295 287.907 10.6483L289.811 8.74918Z" fill="#ED6C30"/>
<path d="M299.587 27.0392C299.262 26.7084 298.68 26.7084 298.349 27.0392L296.45 28.9383C296.108 29.2805 296.108 29.8337 296.45 30.1759L298.349 32.0751C298.43 32.1562 298.526 32.2207 298.632 32.2646C298.737 32.3086 298.851 32.3312 298.965 32.3312C299.08 32.3312 299.193 32.3086 299.299 32.2646C299.404 32.2207 299.5 32.1562 299.581 32.0751L301.48 30.1759C301.822 29.8337 301.822 29.2805 301.48 28.9383L299.587 27.0392ZM323.106 37.8238C322.764 37.4816 322.211 37.4816 321.869 37.8238L320.084 39.6089C319.742 39.9511 319.742 40.5043 320.084 40.8465L321.869 42.6315C321.95 42.7127 322.046 42.7772 322.151 42.8211C322.257 42.8651 322.37 42.8877 322.485 42.8877C322.599 42.8877 322.713 42.8651 322.818 42.8211C322.924 42.7772 323.02 42.7127 323.101 42.6315L324.886 40.8465C325.228 40.5043 325.228 39.9511 324.886 39.6089L323.106 37.8238ZM347.282 25.8472C347.363 25.9284 347.459 25.9929 347.564 26.0368C347.67 26.0808 347.783 26.1034 347.898 26.1034C348.012 26.1034 348.126 26.0808 348.231 26.0368C348.337 25.9929 348.433 25.9284 348.514 25.8472L350.305 24.0622C350.641 23.72 350.641 23.1725 350.305 22.8303L348.514 21.0452C348.172 20.703 347.618 20.703 347.282 21.0452L345.497 22.8303C345.155 23.1725 345.155 23.72 345.497 24.0622L347.282 25.8472ZM341.727 38.2002C341.391 37.858 340.832 37.858 340.49 38.2002L338.704 39.9853C338.368 40.3275 338.368 40.8807 338.704 41.2229L340.49 43.008C340.661 43.1733 340.889 43.2646 341.111 43.2646C341.334 43.2646 341.556 43.179 341.727 43.008L343.512 41.2229C343.854 40.8807 343.854 40.3275 343.512 39.9853L341.727 38.2002ZM309.339 33.689V31.0029C309.339 30.5238 308.946 30.1303 308.466 30.1303H305.775C305.29 30.1303 304.902 30.5238 304.902 31.0029V33.689C304.902 34.1738 305.29 34.5616 305.775 34.5616H308.466C308.946 34.5616 309.339 34.1681 309.339 33.689Z" fill="#40C0E7"/>
<path d="M325.576 30.21H323.05C322.57 30.21 322.177 30.5978 322.177 31.0825V33.609C322.177 34.0881 322.57 34.4816 323.05 34.4816H325.576C326.055 34.4816 326.449 34.0881 326.449 33.609V31.0825C326.449 30.5978 326.061 30.21 325.576 30.21ZM299.051 36.7514H296.359C295.88 36.7514 295.486 37.145 295.486 37.624V40.3102C295.486 40.7893 295.88 41.1828 296.359 41.1828H299.051C299.536 41.1828 299.923 40.7893 299.923 40.3102V37.624C299.923 37.1393 299.536 36.7514 299.051 36.7514Z" fill="#ED6C30"/>
<path d="M291.277 28.9383C290.941 28.5961 290.388 28.5961 290.045 28.9383L288.146 30.8431C287.975 31.0085 287.89 31.2252 287.89 31.4591C287.89 31.6929 287.981 31.9153 288.146 32.075L290.045 33.9741C290.126 34.0553 290.222 34.1197 290.328 34.1637C290.434 34.2077 290.547 34.2303 290.661 34.2303C290.776 34.2303 290.889 34.2077 290.995 34.1637C291.101 34.1197 291.197 34.0553 291.277 33.9741L293.176 32.075C293.519 31.7328 293.519 31.1796 293.176 30.8431L291.277 28.9383Z" fill="#40C0E7"/>
<path d="M287.177 -1.83585C288.272 -1.51077 289.475 -1.756 290.422 -2.02405C291.175 -2.23507 291.882 -2.40616 292.492 -2.22366C293.096 -2.05257 293.353 -1.71038 293.787 -1.08304C294.237 -0.43288 294.796 0.376966 296.005 0.850325C296.667 1.10697 297.351 1.24384 298.03 1.24384C298.235 1.24384 298.423 1.23243 298.606 1.21532C299.033 1.1697 299.37 0.810401 299.387 0.382667L299.467 -1.73889C299.478 -1.97272 299.37 -2.20655 299.205 -2.37765C299.039 -2.54874 298.788 -2.64569 298.554 -2.64569C298.064 -2.64569 297.602 -2.73124 297.146 -2.91374C296.433 -3.19319 296.119 -3.64374 295.726 -4.21975C295.269 -4.87561 294.705 -5.68546 293.49 -6.04475C292.481 -6.34132 291.397 -6.11319 290.462 -5.85085C289.652 -5.62272 288.888 -5.44593 288.186 -5.65694C287.747 -5.78811 287.376 -6.02194 286.971 -6.42686C286.777 -6.60936 286.504 -6.70632 286.241 -6.66639C285.973 -6.63218 285.739 -6.47249 285.603 -6.23866L284.633 -4.58475C284.445 -4.25968 284.479 -3.85475 284.73 -3.5696C285.3 -2.91944 286.013 -2.18944 287.177 -1.83585ZM356.07 37.9206C355.894 37.8123 355.745 37.8009 355.58 37.7781C353.783 37.5899 352.226 36.9853 351.074 36.0614C353.595 34.8181 354.588 32.4114 354.456 30.9457C354.456 30.8887 354.451 30.8145 354.439 30.7404C354.251 28.6245 352.951 27.2615 351.126 27.2615C350.675 27.2615 350.196 27.3413 349.666 27.501C348.999 27.7006 347.071 28.2881 346.056 32.2118C344.784 31.3107 343.757 29.8849 343.113 28.0827C343.056 27.9174 343.01 27.7805 342.862 27.6379C342.537 27.3128 341.961 27.3128 341.63 27.6379L339.742 29.5313C339.417 29.8564 339.4 30.3697 339.697 30.7119C339.611 30.6092 339.577 30.5351 339.583 30.5579C340.826 34.071 343.29 36.3466 346.369 36.8599C347.63 39.6316 350.379 41.4224 354.063 41.8102C354.12 41.8216 354.171 41.8216 354.228 41.8216C354.519 41.8216 354.81 41.6733 354.975 41.4052L356.367 39.1297C356.606 38.7077 356.475 38.1716 356.07 37.9206ZM350.464 32.3829C350.048 32.611 349.632 32.7992 349.272 32.9361C349.249 32.5483 349.249 32.0806 349.306 31.6016C349.352 31.0142 350.082 30.364 350.704 30.364C350.858 30.364 350.995 30.4039 351.114 30.4838C351.354 30.6377 351.491 30.9001 351.479 31.1738C351.462 31.6016 351.103 32.0293 350.464 32.3829Z" fill="#ED6C30"/>
<path opacity="0.45" d="M215.737 84.6761C127.731 77.4305 34.5765 95.4237 -1 105.326V168H368V118.368C353.915 110.156 303.744 91.9216 215.737 84.6761Z" fill="#BCE0D1"/>
<path opacity="0.45" d="M266.736 88.3827C209.941 81.1116 144.5 107.5 110 137.378L126.864 172H365V122.193C355.91 113.953 323.532 95.6537 266.736 88.3827Z" fill="#95C2AF"/>
<path opacity="0.45" d="M-20.4053 93.9229H-8.27637V87H-3.07812V93.9229H9.05078V87H14.249V93.9229H26.3789V87H31.5771V93.9229H45.4385V87H50.6367V93.9229H62.7666V87H67.9639V93.9229H80.0938V87H85.292V93.9229H99.1543V87H104.352V93.9229H116.481V87H121.68V93.9229H130.343V98.0771H121.68V111.923H130.343V116.077H121.68V123H116.481V116.077H104.352V123H99.1543V116.077H85.292V123H80.0938V116.077H67.9639V123H62.7666V116.077H50.6367V123H45.4385V116.077H31.5771V123H26.3789V116.077H14.249V123H9.05078V116.077H-3.07812V123H-8.27637V116.077H-20.4053V123H-25.6035V116.077H-36V111.923H-25.6035V98.0771H-36V93.9229H-25.6035V87H-20.4053V93.9229ZM-20.4053 111.923H-8.27637V98.0771H-20.4053V111.923ZM-3.07812 111.923H9.05078V98.0771H-3.07812V111.923ZM14.249 111.923H26.3789V98.0771H14.249V111.923ZM31.5771 111.923H45.4385V98.0771H31.5771V111.923ZM50.6367 111.923H62.7666V98.0771H50.6367V111.923ZM67.9639 111.923H80.0938V98.0771H67.9639V111.923ZM85.292 111.923H99.1543V98.0771H85.292V111.923ZM104.352 111.923H116.481V98.0771H104.352V111.923Z" fill="white"/>
<path opacity="0.45" d="M223.595 93.9229H235.724V87H240.922V93.9229H253.051V87H258.249V93.9229H270.379V87H275.577V93.9229H289.438V87H294.637V93.9229H306.767V87H311.964V93.9229H324.094V87H329.292V93.9229H343.154V87H348.352V93.9229H360.481V87H365.68V93.9229H374.343V98.0771H365.68V111.923H374.343V116.077H365.68V123H360.481V116.077H348.352V123H343.154V116.077H329.292V123H324.094V116.077H311.964V123H306.767V116.077H294.637V123H289.438V116.077H275.577V123H270.379V116.077H258.249V123H253.051V116.077H240.922V123H235.724V116.077H223.595V123H218.396V116.077H208V111.923H218.396V98.0771H208V93.9229H218.396V87H223.595V93.9229ZM223.595 111.923H235.724V98.0771H223.595V111.923ZM240.922 111.923H253.051V98.0771H240.922V111.923ZM258.249 111.923H270.379V98.0771H258.249V111.923ZM275.577 111.923H289.438V98.0771H275.577V111.923ZM294.637 111.923H306.767V98.0771H294.637V111.923ZM311.964 111.923H324.094V98.0771H311.964V111.923ZM329.292 111.923H343.154V98.0771H329.292V111.923ZM348.352 111.923H360.481V98.0771H348.352V111.923Z" fill="white"/>
</g>
<rect x="6.5" y="2.5" width="328" height="134" rx="7.5" stroke="#E4E4E7"/>
</g>
<defs>
<filter id="filter0_dd_10457_24016" x="0" y="0" width="341" height="147" filterUnits="userSpaceOnUse" color-interpolation-filters="sRGB">
<feFlood flood-opacity="0" result="BackgroundImageFix"/>
<feColorMatrix in="SourceAlpha" type="matrix" values="0 0 0 0 0 0 0 0 0 0 0 0 0 0 0 0 0 0 127 0" result="hardAlpha"/>
<feOffset dy="4"/>
<feGaussianBlur stdDeviation="3"/>
<feColorMatrix type="matrix" values="0 0 0 0 0 0 0 0 0 0 0 0 0 0 0 0 0 0 0.1 0"/>
<feBlend mode="normal" in2="BackgroundImageFix" result="effect1_dropShadow_10457_24016"/>
<feColorMatrix in="SourceAlpha" type="matrix" values="0 0 0 0 0 0 0 0 0 0 0 0 0 0 0 0 0 0 127 0" result="hardAlpha"/>
<feOffset dy="2"/>
<feGaussianBlur stdDeviation="2"/>
<feColorMatrix type="matrix" values="0 0 0 0 0 0 0 0 0 0 0 0 0 0 0 0 0 0 0.06 0"/>
<feBlend mode="normal" in2="effect1_dropShadow_10457_24016" result="effect2_dropShadow_10457_24016"/>
<feBlend mode="normal" in="SourceGraphic" in2="effect2_dropShadow_10457_24016" result="shape"/>
</filter>
<filter id="filter1_f_10457_24016" x="-46" y="-12" width="433" height="280" filterUnits="userSpaceOnUse" color-interpolation-filters="sRGB">
<feFlood flood-opacity="0" result="BackgroundImageFix"/>
<feBlend mode="normal" in="SourceGraphic" in2="BackgroundImageFix" result="shape"/>
<feGaussianBlur stdDeviation="19" result="effect1_foregroundBlur_10457_24016"/>
</filter>
<linearGradient id="paint0_linear_10457_24016" x1="170.5" y1="2" x2="170.5" y2="137" gradientUnits="userSpaceOnUse">
<stop offset="1" stop-color="#D2F5E5"/>
</linearGradient>
<clipPath id="clip0_10457_24016">
<rect x="6" y="2" width="329" height="135" rx="8" fill="white"/>
</clipPath>
</defs>
</svg>
