<svg width="164" height="164" viewBox="0 0 164 164" fill="none" xmlns="http://www.w3.org/2000/svg">
<g clip-path="url(#clip0_10467_29600)">
<rect width="164" height="164" fill="#F0FDF4"/>
<g filter="url(#filter0_f_10467_29600)">
<ellipse cx="50.5" cy="160.5" rx="63.5" ry="64.5" fill="white"/>
</g>
<g filter="url(#filter1_f_10467_29600)">
<ellipse cx="161.5" cy="58.5" rx="76.5" ry="77.5" fill="white"/>
</g>
<path d="M37.4254 45V33.3636H39.8857V42.9716H44.8743V45H37.4254ZM50.4013 45.1705C49.5187 45.1705 48.7554 44.983 48.1115 44.608C47.4714 44.2292 46.977 43.7027 46.6286 43.0284C46.2801 42.3504 46.1058 41.5644 46.1058 40.6705C46.1058 39.7689 46.2801 38.9811 46.6286 38.3068C46.977 37.6288 47.4714 37.1023 48.1115 36.7273C48.7554 36.3485 49.5187 36.1591 50.4013 36.1591C51.2839 36.1591 52.0452 36.3485 52.6854 36.7273C53.3293 37.1023 53.8255 37.6288 54.174 38.3068C54.5225 38.9811 54.6967 39.7689 54.6967 40.6705C54.6967 41.5644 54.5225 42.3504 54.174 43.0284C53.8255 43.7027 53.3293 44.2292 52.6854 44.608C52.0452 44.983 51.2839 45.1705 50.4013 45.1705ZM50.4126 43.2955C50.8142 43.2955 51.1494 43.1818 51.4183 42.9545C51.6873 42.7235 51.8899 42.4091 52.0263 42.0114C52.1664 41.6136 52.2365 41.161 52.2365 40.6534C52.2365 40.1458 52.1664 39.6932 52.0263 39.2955C51.8899 38.8977 51.6873 38.5833 51.4183 38.3523C51.1494 38.1212 50.8142 38.0057 50.4126 38.0057C50.0073 38.0057 49.6664 38.1212 49.3899 38.3523C49.1172 38.5833 48.9107 38.8977 48.7706 39.2955C48.6342 39.6932 48.5661 40.1458 48.5661 40.6534C48.5661 41.161 48.6342 41.6136 48.7706 42.0114C48.9107 42.4091 49.1172 42.7235 49.3899 42.9545C49.6664 43.1818 50.0073 43.2955 50.4126 43.2955ZM60.2024 48.4545C59.4183 48.4545 58.746 48.3466 58.1854 48.1307C57.6286 47.9186 57.1854 47.6288 56.8558 47.2614C56.5263 46.8939 56.3123 46.4811 56.2138 46.0227L58.4524 45.7216C58.5206 45.8958 58.6286 46.0587 58.7763 46.2102C58.924 46.3617 59.1191 46.483 59.3615 46.5739C59.6077 46.6686 59.907 46.7159 60.2592 46.7159C60.7857 46.7159 61.2195 46.5871 61.5604 46.3295C61.9051 46.0758 62.0774 45.6496 62.0774 45.0511V43.4545H61.9751C61.8691 43.697 61.71 43.9261 61.4979 44.142C61.2857 44.358 61.013 44.5341 60.6797 44.6705C60.3464 44.8068 59.9486 44.875 59.4865 44.875C58.8312 44.875 58.2346 44.7235 57.6967 44.4205C57.1626 44.1136 56.7365 43.6458 56.4183 43.017C56.1039 42.3845 55.9467 41.5852 55.9467 40.6193C55.9467 39.6307 56.1077 38.8049 56.4297 38.142C56.7517 37.4792 57.1797 36.983 57.7138 36.6534C58.2517 36.3239 58.8407 36.1591 59.4808 36.1591C59.9695 36.1591 60.3786 36.2424 60.7081 36.4091C61.0376 36.572 61.3028 36.7765 61.5036 37.0227C61.7081 37.2652 61.8653 37.5038 61.9751 37.7386H62.0661V36.2727H64.4695V45.0852C64.4695 45.8277 64.2876 46.4489 63.924 46.9489C63.5604 47.4489 63.0566 47.8239 62.4126 48.0739C61.7725 48.3277 61.0357 48.4545 60.2024 48.4545ZM60.2536 43.0568C60.6437 43.0568 60.9732 42.9602 61.2422 42.767C61.5149 42.5701 61.7232 42.2898 61.8672 41.9261C62.0149 41.5587 62.0888 41.1193 62.0888 40.608C62.0888 40.0966 62.0168 39.6534 61.8729 39.2784C61.7289 38.8996 61.5206 38.6061 61.2479 38.3977C60.9751 38.1894 60.6437 38.0852 60.2536 38.0852C59.8558 38.0852 59.5206 38.1932 59.2479 38.4091C58.9751 38.6212 58.7687 38.9167 58.6286 39.2955C58.4884 39.6742 58.4183 40.1117 58.4183 40.608C58.4183 41.1117 58.4884 41.5473 58.6286 41.9148C58.7725 42.2784 58.9789 42.5606 59.2479 42.7614C59.5206 42.9583 59.8558 43.0568 60.2536 43.0568ZM70.3388 45.1705C69.4562 45.1705 68.6929 44.983 68.049 44.608C67.4089 44.2292 66.9145 43.7027 66.5661 43.0284C66.2176 42.3504 66.0433 41.5644 66.0433 40.6705C66.0433 39.7689 66.2176 38.9811 66.5661 38.3068C66.9145 37.6288 67.4089 37.1023 68.049 36.7273C68.6929 36.3485 69.4562 36.1591 70.3388 36.1591C71.2214 36.1591 71.9827 36.3485 72.6229 36.7273C73.2668 37.1023 73.763 37.6288 74.1115 38.3068C74.46 38.9811 74.6342 39.7689 74.6342 40.6705C74.6342 41.5644 74.46 42.3504 74.1115 43.0284C73.763 43.7027 73.2668 44.2292 72.6229 44.608C71.9827 44.983 71.2214 45.1705 70.3388 45.1705ZM70.3501 43.2955C70.7517 43.2955 71.0869 43.1818 71.3558 42.9545C71.6248 42.7235 71.8274 42.4091 71.9638 42.0114C72.1039 41.6136 72.174 41.161 72.174 40.6534C72.174 40.1458 72.1039 39.6932 71.9638 39.2955C71.8274 38.8977 71.6248 38.5833 71.3558 38.3523C71.0869 38.1212 70.7517 38.0057 70.3501 38.0057C69.9448 38.0057 69.6039 38.1212 69.3274 38.3523C69.0547 38.5833 68.8482 38.8977 68.7081 39.2955C68.5717 39.6932 68.5036 40.1458 68.5036 40.6534C68.5036 41.161 68.5717 41.6136 68.7081 42.0114C68.8482 42.4091 69.0547 42.7235 69.3274 42.9545C69.6039 43.1818 69.9448 43.2955 70.3501 43.2955ZM79.9567 45V33.3636H82.3771V37.7386H82.451C82.5571 37.5038 82.7105 37.2652 82.9112 37.0227C83.1158 36.7765 83.3809 36.572 83.7067 36.4091C84.0362 36.2424 84.4453 36.1591 84.9339 36.1591C85.5703 36.1591 86.1574 36.3258 86.6953 36.6591C87.2332 36.9886 87.6631 37.4867 87.9851 38.1534C88.3071 38.8163 88.468 39.6477 88.468 40.6477C88.468 41.6212 88.3108 42.4432 87.9964 43.1136C87.6858 43.7803 87.2616 44.286 86.7237 44.6307C86.1896 44.9716 85.5911 45.142 84.9283 45.142C84.4586 45.142 84.0589 45.0644 83.7294 44.9091C83.4036 44.7538 83.1366 44.5587 82.9283 44.3239C82.7199 44.0852 82.5608 43.8447 82.451 43.6023H82.343V45H79.9567ZM82.326 40.6364C82.326 41.1553 82.398 41.608 82.5419 41.9943C82.6858 42.3807 82.8942 42.6818 83.1669 42.8977C83.4396 43.1098 83.7711 43.2159 84.1612 43.2159C84.5552 43.2159 84.8885 43.108 85.1612 42.892C85.4339 42.6723 85.6404 42.3693 85.7805 41.983C85.9245 41.5928 85.9964 41.1439 85.9964 40.6364C85.9964 40.1326 85.9264 39.6894 85.7862 39.3068C85.6461 38.9242 85.4396 38.625 85.1669 38.4091C84.8942 38.1932 84.5589 38.0852 84.1612 38.0852C83.7673 38.0852 83.4339 38.1894 83.1612 38.3977C82.8923 38.6061 82.6858 38.9015 82.5419 39.2841C82.398 39.6667 82.326 40.1174 82.326 40.6364ZM94.0604 45.1705C93.1626 45.1705 92.3899 44.9886 91.7422 44.625C91.0982 44.2576 90.602 43.7386 90.2536 43.0682C89.9051 42.3939 89.7308 41.5966 89.7308 40.6761C89.7308 39.7784 89.9051 38.9905 90.2536 38.3125C90.602 37.6345 91.0926 37.1061 91.7251 36.7273C92.3615 36.3485 93.1077 36.1591 93.9638 36.1591C94.5395 36.1591 95.0755 36.2519 95.5717 36.4375C96.0717 36.6193 96.5073 36.8939 96.8786 37.2614C97.2536 37.6288 97.5452 38.0909 97.7536 38.6477C97.9619 39.2008 98.0661 39.8485 98.0661 40.5909V41.2557H90.6967V39.7557H95.7876C95.7876 39.4072 95.7119 39.0985 95.5604 38.8295C95.4089 38.5606 95.1986 38.3504 94.9297 38.1989C94.6645 38.0436 94.3558 37.9659 94.0036 37.9659C93.6361 37.9659 93.3104 38.0511 93.0263 38.2216C92.746 38.3883 92.5263 38.6136 92.3672 38.8977C92.2081 39.178 92.1267 39.4905 92.1229 39.8352V41.2614C92.1229 41.6932 92.2024 42.0663 92.3615 42.3807C92.5244 42.6951 92.7536 42.9375 93.049 43.108C93.3445 43.2784 93.6948 43.3636 94.1001 43.3636C94.3691 43.3636 94.6153 43.3258 94.8388 43.25C95.0623 43.1742 95.2536 43.0606 95.4126 42.9091C95.5717 42.7576 95.6929 42.572 95.7763 42.3523L98.0149 42.5C97.9013 43.0379 97.6683 43.5076 97.3161 43.9091C96.9676 44.3068 96.5168 44.6174 95.9638 44.8409C95.4145 45.0606 94.7801 45.1705 94.0604 45.1705ZM102.066 33.3636V45H99.6456V33.3636H102.066ZM109.602 41.2841V36.2727H112.022V45H109.698V43.4148H109.607C109.41 43.9261 109.083 44.3371 108.624 44.6477C108.17 44.9583 107.615 45.1136 106.96 45.1136C106.376 45.1136 105.863 44.9811 105.42 44.7159C104.977 44.4508 104.63 44.0739 104.38 43.5852C104.134 43.0966 104.009 42.5114 104.005 41.8295V36.2727H106.425V41.3977C106.429 41.9129 106.567 42.3201 106.84 42.6193C107.113 42.9186 107.478 43.0682 107.937 43.0682C108.228 43.0682 108.501 43.0019 108.755 42.8693C109.009 42.733 109.213 42.5322 109.369 42.267C109.528 42.0019 109.605 41.6742 109.602 41.2841ZM113.958 45V36.2727H116.265V37.8125H116.367C116.549 37.3011 116.852 36.8977 117.276 36.6023C117.701 36.3068 118.208 36.1591 118.799 36.1591C119.397 36.1591 119.907 36.3087 120.327 36.608C120.748 36.9034 121.028 37.3049 121.168 37.8125H121.259C121.437 37.3125 121.759 36.9129 122.225 36.6136C122.695 36.3106 123.25 36.1591 123.89 36.1591C124.704 36.1591 125.365 36.4186 125.873 36.9375C126.384 37.4527 126.64 38.1837 126.64 39.1307V45H124.225V39.608C124.225 39.1231 124.096 38.7595 123.839 38.517C123.581 38.2746 123.259 38.1534 122.873 38.1534C122.433 38.1534 122.091 38.2936 121.844 38.5739C121.598 38.8504 121.475 39.2159 121.475 39.6705V45H119.129V39.5568C119.129 39.1288 119.005 38.7879 118.759 38.5341C118.517 38.2803 118.197 38.1534 117.799 38.1534C117.53 38.1534 117.288 38.2216 117.072 38.358C116.86 38.4905 116.691 38.678 116.566 38.9205C116.441 39.1591 116.379 39.4394 116.379 39.7614V45H113.958ZM55.3111 58.2727V60.0909H50.0554V58.2727H55.3111ZM51.2486 56.1818H53.669V64.3182C53.669 64.5417 53.7031 64.7159 53.7713 64.8409C53.8395 64.9621 53.9342 65.0473 54.0554 65.0966C54.1804 65.1458 54.3243 65.1705 54.4872 65.1705C54.6009 65.1705 54.7145 65.161 54.8281 65.142C54.9418 65.1193 55.0289 65.1023 55.0895 65.0909L55.4702 66.892C55.349 66.9299 55.1785 66.9735 54.9588 67.0227C54.7391 67.0758 54.4721 67.108 54.1577 67.1193C53.5743 67.142 53.063 67.0644 52.6236 66.8864C52.188 66.7083 51.849 66.4318 51.6065 66.0568C51.3641 65.6818 51.2448 65.2083 51.2486 64.6364V56.1818ZM60.7713 67.1705C59.8736 67.1705 59.1009 66.9886 58.4531 66.625C57.8092 66.2576 57.313 65.7386 56.9645 65.0682C56.616 64.3939 56.4418 63.5966 56.4418 62.6761C56.4418 61.7784 56.616 60.9905 56.9645 60.3125C57.313 59.6345 57.8035 59.1061 58.4361 58.7273C59.0724 58.3485 59.8187 58.1591 60.6747 58.1591C61.2505 58.1591 61.7865 58.2519 62.2827 58.4375C62.7827 58.6193 63.2183 58.8939 63.5895 59.2614C63.9645 59.6288 64.2562 60.0909 64.4645 60.6477C64.6728 61.2008 64.777 61.8485 64.777 62.5909V63.2557H57.4077V61.7557H62.4986C62.4986 61.4072 62.4228 61.0985 62.2713 60.8295C62.1198 60.5606 61.9096 60.3504 61.6406 60.1989C61.3755 60.0436 61.0668 59.9659 60.7145 59.9659C60.3471 59.9659 60.0213 60.0511 59.7372 60.2216C59.4569 60.3883 59.2372 60.6136 59.0781 60.8977C58.919 61.178 58.8376 61.4905 58.8338 61.8352V63.2614C58.8338 63.6932 58.9134 64.0663 59.0724 64.3807C59.2353 64.6951 59.4645 64.9375 59.7599 65.108C60.0554 65.2784 60.4058 65.3636 60.8111 65.3636C61.08 65.3636 61.3262 65.3258 61.5497 65.25C61.7732 65.1742 61.9645 65.0606 62.1236 64.9091C62.2827 64.7576 62.4039 64.572 62.4872 64.3523L64.7259 64.5C64.6122 65.0379 64.3793 65.5076 64.027 65.9091C63.6785 66.3068 63.2277 66.6174 62.6747 66.8409C62.1255 67.0606 61.491 67.1705 60.7713 67.1705ZM66.3565 67V58.2727H68.7031V59.7955H68.794C68.9531 59.2538 69.2202 58.8447 69.5952 58.5682C69.9702 58.2879 70.402 58.1477 70.8906 58.1477C71.0118 58.1477 71.1425 58.1553 71.2827 58.1705C71.4228 58.1856 71.5459 58.2064 71.652 58.233V60.3807C71.5384 60.3466 71.3812 60.3163 71.1804 60.2898C70.9796 60.2633 70.7959 60.25 70.6293 60.25C70.2732 60.25 69.955 60.3277 69.6747 60.483C69.3982 60.6345 69.1785 60.8466 69.0156 61.1193C68.8565 61.392 68.777 61.7064 68.777 62.0625V67H66.3565ZM80.1648 60.7614L77.9489 60.8977C77.911 60.7083 77.8295 60.5379 77.7045 60.3864C77.5795 60.2311 77.4148 60.108 77.2102 60.017C77.0095 59.9223 76.7689 59.875 76.4886 59.875C76.1136 59.875 75.7973 59.9545 75.5398 60.1136C75.2822 60.2689 75.1534 60.4773 75.1534 60.7386C75.1534 60.947 75.2367 61.1231 75.4034 61.267C75.5701 61.411 75.8561 61.5265 76.2614 61.6136L77.8409 61.9318C78.6894 62.1061 79.322 62.3864 79.7386 62.7727C80.1553 63.1591 80.3636 63.6667 80.3636 64.2955C80.3636 64.8674 80.1951 65.3693 79.858 65.8011C79.5246 66.233 79.0663 66.5701 78.483 66.8125C77.9034 67.0511 77.2348 67.1705 76.4773 67.1705C75.322 67.1705 74.4015 66.9299 73.7159 66.4489C73.0341 65.964 72.6345 65.3049 72.517 64.4716L74.8977 64.3466C74.9697 64.6989 75.1439 64.9678 75.4205 65.1534C75.697 65.3352 76.0511 65.4261 76.483 65.4261C76.9072 65.4261 77.2481 65.3447 77.5057 65.1818C77.767 65.0152 77.8996 64.8011 77.9034 64.5398C77.8996 64.3201 77.8068 64.1402 77.625 64C77.4432 63.8561 77.1629 63.7462 76.7841 63.6705L75.2727 63.3693C74.4205 63.1989 73.786 62.9034 73.3693 62.483C72.9564 62.0625 72.75 61.5265 72.75 60.875C72.75 60.3144 72.9015 59.8314 73.2045 59.4261C73.5114 59.0208 73.9413 58.7083 74.4943 58.4886C75.0511 58.2689 75.7027 58.1591 76.4489 58.1591C77.5511 58.1591 78.4186 58.392 79.0511 58.858C79.6875 59.3239 80.0587 59.9583 80.1648 60.7614ZM85.8651 67.1705C84.9673 67.1705 84.1946 66.9886 83.5469 66.625C82.9029 66.2576 82.4067 65.7386 82.0582 65.0682C81.7098 64.3939 81.5355 63.5966 81.5355 62.6761C81.5355 61.7784 81.7098 60.9905 82.0582 60.3125C82.4067 59.6345 82.8973 59.1061 83.5298 58.7273C84.1662 58.3485 84.9124 58.1591 85.7685 58.1591C86.3442 58.1591 86.8802 58.2519 87.3764 58.4375C87.8764 58.6193 88.312 58.8939 88.6832 59.2614C89.0582 59.6288 89.3499 60.0909 89.5582 60.6477C89.7666 61.2008 89.8707 61.8485 89.8707 62.5909V63.2557H82.5014V61.7557H87.5923C87.5923 61.4072 87.5166 61.0985 87.3651 60.8295C87.2135 60.5606 87.0033 60.3504 86.7344 60.1989C86.4692 60.0436 86.1605 59.9659 85.8082 59.9659C85.4408 59.9659 85.1151 60.0511 84.831 60.2216C84.5507 60.3883 84.331 60.6136 84.1719 60.8977C84.0128 61.178 83.9313 61.4905 83.9276 61.8352V63.2614C83.9276 63.6932 84.0071 64.0663 84.1662 64.3807C84.3291 64.6951 84.5582 64.9375 84.8537 65.108C85.1491 65.2784 85.4995 65.3636 85.9048 65.3636C86.1738 65.3636 86.42 65.3258 86.6435 65.25C86.867 65.1742 87.0582 65.0606 87.2173 64.9091C87.3764 64.7576 87.4976 64.572 87.581 64.3523L89.8196 64.5C89.706 65.0379 89.473 65.5076 89.1207 65.9091C88.7723 66.3068 88.3215 66.6174 87.7685 66.8409C87.2192 67.0606 86.5848 67.1705 85.8651 67.1705ZM94.6662 67.142C94.0033 67.142 93.4029 66.9716 92.8651 66.6307C92.331 66.286 91.9067 65.7803 91.5923 65.1136C91.2817 64.4432 91.1264 63.6212 91.1264 62.6477C91.1264 61.6477 91.2874 60.8163 91.6094 60.1534C91.9313 59.4867 92.3594 58.9886 92.8935 58.6591C93.4313 58.3258 94.0204 58.1591 94.6605 58.1591C95.1491 58.1591 95.5563 58.2424 95.8821 58.4091C96.2116 58.572 96.4768 58.7765 96.6776 59.0227C96.8821 59.2652 97.0374 59.5038 97.1435 59.7386H97.2173V55.3636H99.6321V67H97.2457V65.6023H97.1435C97.0298 65.8447 96.8688 66.0852 96.6605 66.3239C96.456 66.5587 96.1889 66.7538 95.8594 66.9091C95.5336 67.0644 95.1359 67.142 94.6662 67.142ZM95.4332 65.2159C95.8234 65.2159 96.1529 65.1098 96.4219 64.8977C96.6946 64.6818 96.9029 64.3807 97.0469 63.9943C97.1946 63.608 97.2685 63.1553 97.2685 62.6364C97.2685 62.1174 97.1965 61.6667 97.0526 61.2841C96.9086 60.9015 96.7003 60.6061 96.4276 60.3977C96.1548 60.1894 95.8234 60.0852 95.4332 60.0852C95.0355 60.0852 94.7003 60.1932 94.4276 60.4091C94.1548 60.625 93.9484 60.9242 93.8082 61.3068C93.6681 61.6894 93.598 62.1326 93.598 62.6364C93.598 63.1439 93.6681 63.5928 93.8082 63.983C93.9522 64.3693 94.1586 64.6723 94.4276 64.892C94.7003 65.108 95.0355 65.2159 95.4332 65.2159ZM101.622 67V58.2727H104.043V67H101.622ZM102.838 57.1477C102.478 57.1477 102.17 57.0284 101.912 56.7898C101.658 56.5473 101.531 56.2576 101.531 55.9205C101.531 55.5871 101.658 55.3011 101.912 55.0625C102.17 54.8201 102.478 54.6989 102.838 54.6989C103.198 54.6989 103.505 54.8201 103.759 55.0625C104.016 55.3011 104.145 55.5871 104.145 55.9205C104.145 56.2576 104.016 56.5473 103.759 56.7898C103.505 57.0284 103.198 57.1477 102.838 57.1477ZM108.47 67.1648C107.913 67.1648 107.417 67.0682 106.982 66.875C106.546 66.678 106.201 66.3883 105.947 66.0057C105.697 65.6193 105.572 65.1383 105.572 64.5625C105.572 64.0777 105.661 63.6705 105.839 63.3409C106.018 63.0114 106.26 62.7462 106.567 62.5455C106.874 62.3447 107.222 62.1932 107.612 62.0909C108.006 61.9886 108.419 61.9167 108.851 61.875C109.358 61.822 109.768 61.7727 110.078 61.7273C110.389 61.678 110.614 61.6061 110.754 61.5114C110.894 61.4167 110.964 61.2765 110.964 61.0909V61.0568C110.964 60.697 110.851 60.4186 110.624 60.2216C110.4 60.0246 110.082 59.9261 109.669 59.9261C109.233 59.9261 108.887 60.0227 108.629 60.2159C108.372 60.4053 108.201 60.6439 108.118 60.9318L105.879 60.75C105.993 60.2197 106.216 59.7614 106.55 59.375C106.883 58.9848 107.313 58.6856 107.839 58.4773C108.37 58.2652 108.983 58.1591 109.68 58.1591C110.165 58.1591 110.629 58.2159 111.072 58.3295C111.519 58.4432 111.915 58.6193 112.26 58.858C112.608 59.0966 112.883 59.4034 113.084 59.7784C113.285 60.1496 113.385 60.5947 113.385 61.1136V67H111.089V65.7898H111.021C110.881 66.0625 110.694 66.303 110.459 66.5114C110.224 66.7159 109.942 66.8769 109.612 66.9943C109.283 67.108 108.902 67.1648 108.47 67.1648ZM109.163 65.4943C109.519 65.4943 109.834 65.4242 110.107 65.2841C110.379 65.1402 110.593 64.947 110.749 64.7045C110.904 64.4621 110.982 64.1875 110.982 63.8807V62.9545C110.906 63.0038 110.802 63.0492 110.669 63.0909C110.54 63.1288 110.394 63.1648 110.232 63.1989C110.069 63.2292 109.906 63.2576 109.743 63.2841C109.58 63.3068 109.432 63.3277 109.3 63.3466C109.016 63.3883 108.768 63.4545 108.555 63.5455C108.343 63.6364 108.179 63.7595 108.061 63.9148C107.944 64.0663 107.885 64.2557 107.885 64.483C107.885 64.8125 108.004 65.0644 108.243 65.2386C108.485 65.4091 108.792 65.4943 109.163 65.4943Z" fill="#3C9B71"/>
<path d="M49.7588 87L20 116.759V205.006H79.5177V116.759L49.7588 87Z" fill="#79C4A3"/>
<path d="M79.5635 116.759L49.8047 87H119.242L149.001 116.759H79.5635Z" fill="#529376"/>
<path d="M148.955 116.806H79.6113V205.006H148.955V116.806Z" fill="#9AD8BD"/>
<rect x="37.1445" y="125" width="25.3432" height="54.4133" fill="#529276"/>
</g>
<defs>
<filter id="filter0_f_10467_29600" x="-70.1" y="38.9" width="241.2" height="243.2" filterUnits="userSpaceOnUse" color-interpolation-filters="sRGB">
<feFlood flood-opacity="0" result="BackgroundImageFix"/>
<feBlend mode="normal" in="SourceGraphic" in2="BackgroundImageFix" result="shape"/>
<feGaussianBlur stdDeviation="28.55" result="effect1_foregroundBlur_10467_29600"/>
</filter>
<filter id="filter1_f_10467_29600" x="27.9" y="-76.1" width="267.2" height="269.2" filterUnits="userSpaceOnUse" color-interpolation-filters="sRGB">
<feFlood flood-opacity="0" result="BackgroundImageFix"/>
<feBlend mode="normal" in="SourceGraphic" in2="BackgroundImageFix" result="shape"/>
<feGaussianBlur stdDeviation="28.55" result="effect1_foregroundBlur_10467_29600"/>
</filter>
<clipPath id="clip0_10467_29600">
<rect width="164" height="164" fill="white"/>
</clipPath>
</defs>
</svg>
