<svg width="454" height="252" viewBox="0 0 454 252" fill="none" xmlns="http://www.w3.org/2000/svg">
<g clip-path="url(#clip0_8285_14256)">
<rect width="454" height="252" fill="#DCFCE7"/>
<g filter="url(#filter0_f_8285_14256)">
<ellipse cx="52.5" cy="198" rx="97.5" ry="99" fill="#FFFFF2"/>
</g>
<g filter="url(#filter1_f_8285_14256)">
<ellipse cx="301.5" cy="46" rx="97.5" ry="99" fill="#FFFFF2"/>
</g>
<g filter="url(#filter2_ddd_8285_14256)">
<circle cx="57" cy="59" r="51" fill="white"/>
</g>
<g opacity="0.55">
<g opacity="0.5">
<path d="M484.162 19H447.043V23.8733H484.162V19Z" fill="#9ED0BB"/>
<path d="M484.162 23.3859H443.624V30.6959H484.162V23.3859Z" fill="#9ED0BB"/>
<path d="M439.228 52.1383H484.162V59.9355H439.228L439.228 52.1383Z" fill="#9ED0BB"/>
<path d="M484.162 87.2259V79.4286H439.228V87.2259H484.162Z" fill="#9ED0BB"/>
<path d="M484.162 116.466V108.668H439.228V116.466H484.162Z" fill="#9ED0BB"/>
<path d="M484.162 143.756V135.959H439.228V143.756H484.162Z" fill="#9ED0BB"/>
<path d="M446.066 52.1383H439.228V143.756H446.066V52.1383Z" fill="#9ED0BB"/>
<path d="M439.228 52.1383H446.066L453.881 30.6959H447.043L439.228 52.1383Z" fill="#9ED0BB"/>
<path d="M446.066 143.756H439.228L429.46 173.97H439.228L446.066 143.756Z" fill="#9ED0BB"/>
<path d="M446.066 54.0876L444.112 51.1636L483.185 28.7466L485.139 31.6705L446.066 54.0876Z" fill="#9ED0BB"/>
<path d="M416.087 86.5438L413.831 84.7892L413.839 83.8146L444.453 51.7179L447.159 53.9669L416.087 86.5438Z" fill="#9ED0BB"/>
<path d="M416.1 142.013L413.856 140.255L413.862 139.281L444.189 107.269L446.881 109.522L416.1 142.013Z" fill="#9ED0BB"/>
<path d="M448.02 83.3273L446.066 80.4033L485.139 57.9862L487.093 60.9102L448.02 83.3273Z" fill="#9ED0BB"/>
<path d="M448.02 111.592L446.066 108.668L485.139 86.2512L487.093 89.1752L448.02 111.592Z" fill="#9ED0BB"/>
<path d="M448.02 138.883L446.066 135.959L485.139 113.542L487.093 116.466L448.02 138.883Z" fill="#9ED0BB"/>
<path d="M440.205 173.97L438.251 171.046L484.162 142.781L486.116 145.705L440.205 173.97Z" fill="#9ED0BB"/>
<path d="M489.046 56.0369L491 53.1129L451.927 30.6959L449.973 33.6198L489.046 56.0369Z" fill="#9ED0BB"/>
<path d="M483.185 83.3273L485.139 80.4033L446.066 57.9862L444.112 60.9102L483.185 83.3273Z" fill="#9ED0BB"/>
<path d="M483.185 111.592L485.139 108.668L446.066 86.2512L444.112 89.1752L483.185 111.592Z" fill="#9ED0BB"/>
<path d="M483.185 138.883L485.139 135.959L446.066 113.542L444.112 116.466L483.185 138.883Z" fill="#9ED0BB"/>
<path d="M488.07 169.097L490.023 167.148L446.066 142.781L444.112 145.705L488.07 169.097Z" fill="#9ED0BB"/>
<path d="M414.319 83.3273H440.205V87.2259H413.831V83.8146L414.319 83.3273Z" fill="#9ED0BB"/>
<path d="M414.319 138.883H440.205V142.781H413.831V139.37L414.319 138.883Z" fill="#9ED0BB"/>
<path d="M413.831 87.2259H417.738V90.1498H413.831V87.2259Z" fill="#9ED0BB"/>
<path d="M413.831 142.781H417.738V145.705H413.831V142.781Z" fill="#9ED0BB"/>
<path d="M439.228 52.1383H484.162V59.9355H439.228L439.228 52.1383ZM439.228 52.1383H446.066M439.228 52.1383V143.756M439.228 52.1383L447.043 30.6959H453.881L446.066 52.1383M439.228 143.756H484.162V135.959H439.228V143.756ZM439.228 143.756H446.066M439.228 143.756L429.46 173.97H439.228L446.066 143.756M446.066 52.1383V143.756M413.831 87.2259H440.205V83.3273H414.319L413.831 83.8146V87.2259ZM413.831 87.2259H417.738V90.1498H413.831V87.2259ZM413.831 142.781H440.205V138.883H414.319L413.831 139.37V142.781ZM413.831 142.781H417.738V145.705H413.831V142.781ZM414.319 89.6625C391.1 104.05 198.725 167.148 -22 145.705M414.807 144.731C383.06 164.711 138.416 276.646 -1.075 250.525M447.043 19H484.162V23.8733H447.043V19ZM443.624 23.3859H484.162V30.6959H443.624V23.3859ZM484.162 79.4286V87.2259H439.228V79.4286H484.162ZM484.162 108.668V116.466H439.228V108.668H484.162ZM444.112 51.1636L446.066 54.0876L485.139 31.6705L483.185 28.7466L444.112 51.1636ZM413.831 84.7892L416.087 86.5438L447.159 53.9669L444.453 51.7179L413.839 83.8146L413.831 84.7892ZM413.856 140.255L416.1 142.013L446.881 109.522L444.189 107.269L413.862 139.281L413.856 140.255ZM446.066 80.4033L448.02 83.3273L487.093 60.9102L485.139 57.9862L446.066 80.4033ZM446.066 108.668L448.02 111.592L487.093 89.1752L485.139 86.2512L446.066 108.668ZM446.066 135.959L448.02 138.883L487.093 116.466L485.139 113.542L446.066 135.959ZM438.251 171.046L440.205 173.97L486.116 145.705L484.162 142.781L438.251 171.046ZM491 53.1129L489.046 56.0369L449.973 33.6198L451.927 30.6959L491 53.1129ZM485.139 80.4033L483.185 83.3273L444.112 60.9102L446.066 57.9862L485.139 80.4033ZM485.139 108.668L483.185 111.592L444.112 89.1752L446.066 86.2512L485.139 108.668ZM485.139 135.959L483.185 138.883L444.112 116.466L446.066 113.542L485.139 135.959ZM490.023 167.148L488.07 169.097L444.112 145.705L446.066 142.781L490.023 167.148Z" stroke="#9ED0BB" stroke-width="1.35"/>
</g>
<path d="M319.879 100L279.955 139.924V258.315H359.803V139.924L319.879 100Z" fill="#78A28F"/>
<path d="M359.863 139.924L319.939 100H413.095L453.019 139.924H359.863Z" fill="#2B6048"/>
<path d="M452.96 139.987H359.93V258.315H452.96V139.987Z" fill="#9DC4B4"/>
<rect x="313.412" y="146.072" width="13.308" height="19.962" fill="#2B6048"/>
<path d="M450.873 156.203C471.3 132.893 479.88 138.914 485.6 137.8V263.35H330.35C331.638 260.618 343.042 223.681 368.359 216.729C393.675 209.777 392.858 182.785 419.414 177.878C445.97 172.971 441.555 166.836 450.873 156.203Z" fill="#2B6048"/>
</g>
<path opacity="0.77" d="M0 -5V94C17.0625 48.4902 52.0661 20.125 145.688 31.2353C252.637 43.9272 290.062 31.6667 315 -5H0Z" fill="#ADE5C9"/>
<path d="M73.7197 46C67.106 46.0001 61.6197 50.8206 60.5791 57.1396C59.2246 56.4627 57.6973 56.0801 56.0801 56.0801C50.7547 56.0801 46.3969 60.2098 46.0283 65.4414L46 65.4404V76.2373H55.9688C56.0057 76.2377 56.043 76.2402 56.0801 76.2402C56.1172 76.2402 56.1543 76.2377 56.1914 76.2373H100.964C101.003 76.2379 101.041 76.2402 101.08 76.2402C101.119 76.2402 101.158 76.2379 101.196 76.2373H170.146C157.59 76.1729 131.298 74.8333 112.961 69.7598C112.304 68.8853 111.258 68.3203 110.08 68.3203C109.568 68.3203 109.08 68.4271 108.639 68.6201C108.606 64.4724 105.235 61.1201 101.08 61.1201C98.8835 61.1201 96.9066 62.0578 95.5254 63.5537C94.7366 62.5126 93.4869 61.8399 92.0801 61.8398C92.0203 61.8398 91.9606 61.8413 91.9014 61.8438C91.2944 58.8467 89.1967 56.392 86.417 55.2812C84.7066 49.8992 79.6682 46 73.7197 46Z" fill="white" fill-opacity="0.4"/>
<path d="M175.018 94C181.946 94 187.694 99.05 188.784 105.67C190.203 104.961 191.804 104.56 193.498 104.56C199.077 104.56 203.641 108.886 204.027 114.366L204.058 114.365V125.678H193.575C193.549 125.678 193.524 125.68 193.498 125.68C193.472 125.68 193.446 125.678 193.42 125.678H146.437C146.409 125.678 146.382 125.68 146.354 125.68C146.327 125.68 146.3 125.678 146.273 125.678H74C87.1552 125.61 114.699 124.207 133.909 118.892H133.908C134.596 117.975 135.692 117.383 136.926 117.383C137.463 117.383 137.973 117.496 138.436 117.698C138.469 113.353 142.001 109.84 146.354 109.84C148.656 109.84 150.727 110.822 152.174 112.39C153 111.299 154.309 110.595 155.783 110.595C155.846 110.595 155.909 110.596 155.971 110.599C156.607 107.458 158.804 104.886 161.717 103.723C163.509 98.0847 168.786 94 175.018 94Z" fill="white" fill-opacity="0.4"/>
<path d="M75.3636 111.234C75.2145 110.716 75.005 110.258 74.7351 109.86C74.4652 109.455 74.1349 109.114 73.7443 108.837C73.3608 108.553 72.9205 108.337 72.4233 108.188C71.9332 108.038 71.3899 107.964 70.7933 107.964C69.6783 107.964 68.6982 108.241 67.853 108.795C67.0149 109.349 66.3615 110.155 65.8928 111.213C65.424 112.264 65.1896 113.55 65.1896 115.07C65.1896 116.589 65.4205 117.882 65.8821 118.947C66.3438 120.013 66.9972 120.826 67.8423 121.387C68.6875 121.941 69.6854 122.218 70.8359 122.218C71.88 122.218 72.7713 122.033 73.5099 121.664C74.2557 121.288 74.8239 120.759 75.2145 120.077C75.6122 119.395 75.8111 118.589 75.8111 117.658L76.7486 117.797H71.1236V114.324H80.2536V117.072C80.2536 118.99 79.8487 120.638 79.0391 122.016C78.2294 123.386 77.1143 124.445 75.6939 125.19C74.2734 125.929 72.647 126.298 70.8146 126.298C68.7692 126.298 66.9723 125.847 65.424 124.945C63.8757 124.036 62.6683 122.747 61.8018 121.078C60.9425 119.402 60.5128 117.413 60.5128 115.112C60.5128 113.344 60.7685 111.767 61.2798 110.382C61.7983 108.99 62.5227 107.811 63.4531 106.845C64.3835 105.879 65.4666 105.144 66.7024 104.64C67.9382 104.136 69.277 103.884 70.7188 103.884C71.9545 103.884 73.1051 104.065 74.1705 104.427C75.2358 104.782 76.1804 105.286 77.0043 105.94C77.8352 106.593 78.5135 107.371 79.0391 108.273C79.5646 109.168 79.902 110.155 80.0511 111.234H75.3636ZM88.2995 126.309C87.2555 126.309 86.3251 126.128 85.5083 125.766C84.6916 125.396 84.0453 124.853 83.5694 124.136C83.1007 123.411 82.8663 122.509 82.8663 121.43C82.8663 120.521 83.0332 119.757 83.367 119.139C83.7008 118.521 84.1554 118.024 84.7306 117.648C85.3059 117.271 85.9593 116.987 86.6909 116.795C87.4295 116.604 88.2037 116.469 89.0133 116.391C89.965 116.291 90.7321 116.199 91.3145 116.114C91.8968 116.021 92.3194 115.886 92.5822 115.709C92.845 115.531 92.9764 115.268 92.9764 114.92V114.857C92.9764 114.182 92.7633 113.66 92.3372 113.29C91.9181 112.921 91.3216 112.737 90.5474 112.737C89.7306 112.737 89.0808 112.918 88.5978 113.28C88.1149 113.635 87.7953 114.082 87.639 114.622L83.4416 114.281C83.6547 113.287 84.0737 112.428 84.6987 111.703C85.3237 110.972 86.1298 110.411 87.117 110.02C88.1113 109.622 89.2619 109.423 90.5687 109.423C91.4778 109.423 92.3478 109.53 93.1788 109.743C94.0169 109.956 94.7591 110.286 95.4054 110.734C96.0588 111.181 96.5737 111.756 96.9501 112.46C97.3265 113.156 97.5147 113.99 97.5147 114.963V126H93.2108V123.731H93.0829C92.8201 124.242 92.4686 124.693 92.0282 125.084C91.5879 125.467 91.0588 125.769 90.4409 125.989C89.823 126.202 89.1092 126.309 88.2995 126.309ZM89.5993 123.177C90.2669 123.177 90.8564 123.045 91.3677 122.783C91.8791 122.513 92.2804 122.151 92.5716 121.696C92.8627 121.241 93.0083 120.727 93.0083 120.151V118.415C92.8663 118.507 92.671 118.592 92.4224 118.67C92.1809 118.741 91.9075 118.809 91.6021 118.873C91.2967 118.93 90.9913 118.983 90.6859 119.033C90.3805 119.075 90.1035 119.114 89.8549 119.15C89.3223 119.228 88.8571 119.352 88.4593 119.523C88.0616 119.693 87.7527 119.924 87.5325 120.215C87.3123 120.499 87.2022 120.854 87.2022 121.281C87.2022 121.898 87.426 122.371 87.8734 122.697C88.3279 123.017 88.9032 123.177 89.5993 123.177ZM101.036 126V109.636H105.361V112.523H105.553C105.894 111.565 106.462 110.808 107.257 110.254C108.053 109.7 109.004 109.423 110.112 109.423C111.235 109.423 112.19 109.704 112.978 110.265C113.767 110.819 114.292 111.572 114.555 112.523H114.725C115.059 111.586 115.663 110.837 116.536 110.276C117.417 109.707 118.458 109.423 119.658 109.423C121.185 109.423 122.424 109.91 123.376 110.883C124.335 111.849 124.814 113.219 124.814 114.995V126H120.286V115.89C120.286 114.981 120.045 114.299 119.562 113.844C119.079 113.39 118.475 113.163 117.751 113.163C116.927 113.163 116.284 113.425 115.823 113.951C115.361 114.469 115.13 115.155 115.13 116.007V126H110.73V115.794C110.73 114.991 110.499 114.352 110.038 113.876C109.583 113.401 108.983 113.163 108.237 113.163C107.733 113.163 107.279 113.29 106.874 113.546C106.476 113.795 106.16 114.146 105.926 114.601C105.691 115.048 105.574 115.574 105.574 116.178V126H101.036ZM128.484 126V104.182H133.023V112.385H133.161C133.36 111.945 133.648 111.497 134.024 111.043C134.407 110.581 134.905 110.197 135.515 109.892C136.133 109.58 136.9 109.423 137.817 109.423C139.01 109.423 140.111 109.736 141.119 110.361C142.128 110.979 142.934 111.913 143.537 113.163C144.141 114.406 144.443 115.964 144.443 117.839C144.443 119.665 144.148 121.206 143.559 122.463C142.976 123.713 142.181 124.661 141.172 125.308C140.171 125.947 139.049 126.266 137.806 126.266C136.925 126.266 136.176 126.121 135.558 125.83C134.947 125.538 134.447 125.173 134.056 124.732C133.665 124.285 133.367 123.834 133.161 123.379H132.959V126H128.484ZM132.927 117.818C132.927 118.791 133.062 119.64 133.331 120.364C133.601 121.089 133.992 121.653 134.503 122.058C135.015 122.456 135.636 122.655 136.368 122.655C137.106 122.655 137.731 122.452 138.243 122.048C138.754 121.636 139.141 121.067 139.404 120.343C139.674 119.612 139.809 118.77 139.809 117.818C139.809 116.874 139.677 116.043 139.415 115.325C139.152 114.608 138.765 114.047 138.253 113.642C137.742 113.237 137.113 113.035 136.368 113.035C135.629 113.035 135.004 113.23 134.493 113.621C133.988 114.011 133.601 114.565 133.331 115.283C133.062 116 132.927 116.845 132.927 117.818ZM152.137 126.309C151.093 126.309 150.163 126.128 149.346 125.766C148.529 125.396 147.883 124.853 147.407 124.136C146.939 123.411 146.704 122.509 146.704 121.43C146.704 120.521 146.871 119.757 147.205 119.139C147.539 118.521 147.993 118.024 148.569 117.648C149.144 117.271 149.797 116.987 150.529 116.795C151.267 116.604 152.042 116.469 152.851 116.391C153.803 116.291 154.57 116.199 155.152 116.114C155.735 116.021 156.157 115.886 156.42 115.709C156.683 115.531 156.814 115.268 156.814 114.92V114.857C156.814 114.182 156.601 113.66 156.175 113.29C155.756 112.921 155.159 112.737 154.385 112.737C153.569 112.737 152.919 112.918 152.436 113.28C151.953 113.635 151.633 114.082 151.477 114.622L147.279 114.281C147.493 113.287 147.912 112.428 148.537 111.703C149.162 110.972 149.968 110.411 150.955 110.02C151.949 109.622 153.1 109.423 154.407 109.423C155.316 109.423 156.186 109.53 157.017 109.743C157.855 109.956 158.597 110.286 159.243 110.734C159.897 111.181 160.412 111.756 160.788 112.46C161.164 113.156 161.353 113.99 161.353 114.963V126H157.049V123.731H156.921C156.658 124.242 156.306 124.693 155.866 125.084C155.426 125.467 154.897 125.769 154.279 125.989C153.661 126.202 152.947 126.309 152.137 126.309ZM153.437 123.177C154.105 123.177 154.694 123.045 155.206 122.783C155.717 122.513 156.118 122.151 156.409 121.696C156.701 121.241 156.846 120.727 156.846 120.151V118.415C156.704 118.507 156.509 118.592 156.26 118.67C156.019 118.741 155.745 118.809 155.44 118.873C155.135 118.93 154.829 118.983 154.524 119.033C154.218 119.075 153.941 119.114 153.693 119.15C153.16 119.228 152.695 119.352 152.297 119.523C151.9 119.693 151.591 119.924 151.37 120.215C151.15 120.499 151.04 120.854 151.04 121.281C151.04 121.898 151.264 122.371 151.711 122.697C152.166 123.017 152.741 123.177 153.437 123.177ZM164.874 126V109.636H169.273V112.491H169.444C169.742 111.476 170.243 110.709 170.946 110.19C171.649 109.665 172.459 109.402 173.375 109.402C173.602 109.402 173.847 109.416 174.11 109.445C174.373 109.473 174.604 109.512 174.803 109.562V113.589C174.589 113.525 174.295 113.468 173.918 113.418C173.542 113.369 173.197 113.344 172.885 113.344C172.217 113.344 171.621 113.489 171.095 113.781C170.577 114.065 170.165 114.462 169.859 114.974C169.561 115.485 169.412 116.075 169.412 116.742V126H164.874ZM184.178 126V104.182H188.716V112.385H188.854C189.053 111.945 189.341 111.497 189.717 111.043C190.101 110.581 190.598 110.197 191.209 109.892C191.827 109.58 192.594 109.423 193.51 109.423C194.703 109.423 195.804 109.736 196.812 110.361C197.821 110.979 198.627 111.913 199.231 113.163C199.835 114.406 200.136 115.964 200.136 117.839C200.136 119.665 199.842 121.206 199.252 122.463C198.67 123.713 197.874 124.661 196.866 125.308C195.864 125.947 194.742 126.266 193.499 126.266C192.619 126.266 191.869 126.121 191.251 125.83C190.641 125.538 190.14 125.173 189.749 124.732C189.359 124.285 189.06 123.834 188.854 123.379H188.652V126H184.178ZM188.62 117.818C188.62 118.791 188.755 119.64 189.025 120.364C189.295 121.089 189.685 121.653 190.197 122.058C190.708 122.456 191.33 122.655 192.061 122.655C192.8 122.655 193.425 122.452 193.936 122.048C194.447 121.636 194.835 121.067 195.097 120.343C195.367 119.612 195.502 118.77 195.502 117.818C195.502 116.874 195.371 116.043 195.108 115.325C194.845 114.608 194.458 114.047 193.947 113.642C193.435 113.237 192.807 113.035 192.061 113.035C191.322 113.035 190.697 113.23 190.186 113.621C189.682 114.011 189.295 114.565 189.025 115.283C188.755 116 188.62 116.845 188.62 117.818ZM210.622 126.32C208.939 126.32 207.49 125.979 206.275 125.297C205.068 124.608 204.138 123.635 203.484 122.378C202.831 121.114 202.504 119.619 202.504 117.893C202.504 116.21 202.831 114.732 203.484 113.461C204.138 112.19 205.057 111.199 206.243 110.489C207.437 109.778 208.836 109.423 210.441 109.423C211.52 109.423 212.525 109.597 213.456 109.945C214.393 110.286 215.21 110.801 215.906 111.49C216.609 112.179 217.156 113.045 217.547 114.089C217.937 115.126 218.133 116.341 218.133 117.733V118.979H204.315V116.167H213.861C213.861 115.513 213.719 114.935 213.434 114.43C213.15 113.926 212.756 113.532 212.252 113.248C211.755 112.957 211.176 112.811 210.515 112.811C209.827 112.811 209.216 112.971 208.683 113.29C208.157 113.603 207.746 114.026 207.447 114.558C207.149 115.084 206.996 115.67 206.989 116.316V118.99C206.989 119.8 207.138 120.499 207.437 121.089C207.742 121.678 208.172 122.133 208.726 122.452C209.28 122.772 209.937 122.932 210.697 122.932C211.201 122.932 211.662 122.861 212.081 122.719C212.501 122.577 212.859 122.364 213.157 122.08C213.456 121.795 213.683 121.447 213.839 121.036L218.037 121.312C217.824 122.321 217.387 123.202 216.726 123.955C216.073 124.7 215.228 125.283 214.191 125.702C213.161 126.114 211.971 126.32 210.622 126.32ZM225.633 104.182V126H221.094V104.182H225.633ZM239.762 119.033V109.636H244.3V126H239.943V123.028H239.772C239.403 123.987 238.789 124.757 237.929 125.339C237.077 125.922 236.037 126.213 234.808 126.213C233.714 126.213 232.752 125.964 231.921 125.467C231.09 124.97 230.44 124.263 229.971 123.347C229.51 122.431 229.275 121.334 229.268 120.055V109.636H233.806V119.246C233.814 120.212 234.073 120.975 234.584 121.536C235.096 122.097 235.781 122.378 236.64 122.378C237.187 122.378 237.699 122.254 238.174 122.005C238.65 121.749 239.034 121.373 239.325 120.876C239.623 120.379 239.769 119.764 239.762 119.033ZM247.93 126V109.636H252.256V112.523H252.447C252.788 111.565 253.356 110.808 254.152 110.254C254.947 109.7 255.899 109.423 257.007 109.423C258.129 109.423 259.084 109.704 259.873 110.265C260.661 110.819 261.187 111.572 261.449 112.523H261.62C261.954 111.586 262.557 110.837 263.431 110.276C264.312 109.707 265.352 109.423 266.552 109.423C268.079 109.423 269.319 109.91 270.27 110.883C271.229 111.849 271.709 113.219 271.709 114.995V126H267.181V115.89C267.181 114.981 266.939 114.299 266.456 113.844C265.974 113.39 265.37 113.163 264.645 113.163C263.822 113.163 263.179 113.425 262.717 113.951C262.256 114.469 262.025 115.155 262.025 116.007V126H257.625V115.794C257.625 114.991 257.394 114.352 256.932 113.876C256.478 113.401 255.878 113.163 255.132 113.163C254.628 113.163 254.173 113.29 253.768 113.546C253.371 113.795 253.055 114.146 252.82 114.601C252.586 115.048 252.469 115.574 252.469 116.178V126H247.93ZM69.5149 145.636V149.045H59.6605V145.636H69.5149ZM61.8977 141.716H66.4361V156.972C66.4361 157.391 66.5 157.717 66.6278 157.952C66.7557 158.179 66.9332 158.339 67.1605 158.431C67.3949 158.523 67.6648 158.57 67.9702 158.57C68.1832 158.57 68.3963 158.552 68.6094 158.516C68.8224 158.474 68.9858 158.442 69.0994 158.42L69.8132 161.798C69.5859 161.869 69.2663 161.95 68.8544 162.043C68.4425 162.142 67.9418 162.202 67.3523 162.224C66.2585 162.266 65.2997 162.121 64.4759 161.787C63.6591 161.453 63.0234 160.935 62.5689 160.232C62.1143 159.528 61.8906 158.641 61.8977 157.568V141.716ZM79.7528 162.32C78.0696 162.32 76.6207 161.979 75.4062 161.297C74.1989 160.608 73.2685 159.635 72.6151 158.378C71.9616 157.114 71.6349 155.619 71.6349 153.893C71.6349 152.21 71.9616 150.732 72.6151 149.461C73.2685 148.19 74.1882 147.199 75.3743 146.489C76.5675 145.778 77.9666 145.423 79.5717 145.423C80.6513 145.423 81.6563 145.597 82.5866 145.945C83.5241 146.286 84.3409 146.801 85.0369 147.49C85.7401 148.179 86.2869 149.045 86.6776 150.089C87.0682 151.126 87.2635 152.341 87.2635 153.733V154.979H73.446V152.167H82.9915C82.9915 151.513 82.8494 150.935 82.5653 150.43C82.2813 149.926 81.8871 149.532 81.3828 149.248C80.8857 148.957 80.3068 148.811 79.6463 148.811C78.9574 148.811 78.3466 148.971 77.8139 149.29C77.2884 149.603 76.8764 150.026 76.5781 150.558C76.2798 151.084 76.1271 151.67 76.12 152.316V154.99C76.12 155.8 76.2692 156.499 76.5675 157.089C76.8729 157.678 77.3026 158.133 77.8565 158.452C78.4105 158.772 79.0675 158.932 79.8274 158.932C80.3317 158.932 80.7933 158.861 81.2124 158.719C81.6314 158.577 81.9901 158.364 82.2884 158.08C82.5866 157.795 82.8139 157.447 82.9702 157.036L87.1676 157.312C86.9545 158.321 86.5178 159.202 85.8572 159.955C85.2038 160.7 84.3587 161.283 83.3217 161.702C82.2919 162.114 81.1023 162.32 79.7528 162.32ZM90.2251 162V145.636H94.625V148.491H94.7955C95.0938 147.476 95.5945 146.709 96.2976 146.19C97.0007 145.665 97.8104 145.402 98.7266 145.402C98.9538 145.402 99.1989 145.416 99.4616 145.445C99.7244 145.473 99.9553 145.512 100.154 145.562V149.589C99.9411 149.525 99.6463 149.468 99.2699 149.418C98.8935 149.369 98.549 149.344 98.2365 149.344C97.5689 149.344 96.9723 149.489 96.4467 149.781C95.9283 150.065 95.5163 150.462 95.2109 150.974C94.9126 151.485 94.7635 152.075 94.7635 152.742V162H90.2251ZM116.116 150.303L111.961 150.558C111.89 150.203 111.737 149.884 111.503 149.599C111.268 149.308 110.959 149.077 110.576 148.907C110.199 148.729 109.748 148.641 109.223 148.641C108.52 148.641 107.927 148.79 107.444 149.088C106.961 149.379 106.719 149.77 106.719 150.26C106.719 150.651 106.876 150.981 107.188 151.251C107.501 151.521 108.037 151.737 108.797 151.901L111.758 152.497C113.349 152.824 114.535 153.349 115.317 154.074C116.098 154.798 116.488 155.75 116.488 156.929C116.488 158.001 116.172 158.942 115.54 159.752C114.915 160.562 114.056 161.194 112.962 161.648C111.876 162.096 110.622 162.32 109.202 162.32C107.035 162.32 105.309 161.869 104.024 160.967C102.746 160.058 101.996 158.822 101.776 157.259L106.24 157.025C106.375 157.685 106.702 158.19 107.22 158.538C107.738 158.879 108.403 159.049 109.212 159.049C110.008 159.049 110.647 158.896 111.13 158.591C111.62 158.278 111.868 157.877 111.876 157.387C111.868 156.975 111.694 156.638 111.354 156.375C111.013 156.105 110.487 155.899 109.777 155.757L106.943 155.192C105.345 154.873 104.155 154.319 103.374 153.531C102.6 152.742 102.213 151.737 102.213 150.516C102.213 149.464 102.497 148.559 103.065 147.799C103.64 147.039 104.447 146.453 105.483 146.041C106.528 145.629 107.749 145.423 109.148 145.423C111.215 145.423 112.841 145.86 114.028 146.734C115.221 147.607 115.917 148.797 116.116 150.303ZM126.804 162.32C125.12 162.32 123.672 161.979 122.457 161.297C121.25 160.608 120.319 159.635 119.666 158.378C119.012 157.114 118.686 155.619 118.686 153.893C118.686 152.21 119.012 150.732 119.666 149.461C120.319 148.19 121.239 147.199 122.425 146.489C123.618 145.778 125.017 145.423 126.623 145.423C127.702 145.423 128.707 145.597 129.637 145.945C130.575 146.286 131.392 146.801 132.088 147.49C132.791 148.179 133.338 149.045 133.728 150.089C134.119 151.126 134.314 152.341 134.314 153.733V154.979H120.497V152.167H130.042C130.042 151.513 129.9 150.935 129.616 150.43C129.332 149.926 128.938 149.532 128.434 149.248C127.936 148.957 127.358 148.811 126.697 148.811C126.008 148.811 125.397 148.971 124.865 149.29C124.339 149.603 123.927 150.026 123.629 150.558C123.331 151.084 123.178 151.67 123.171 152.316V154.99C123.171 155.8 123.32 156.499 123.618 157.089C123.924 157.678 124.353 158.133 124.907 158.452C125.461 158.772 126.118 158.932 126.878 158.932C127.382 158.932 127.844 158.861 128.263 158.719C128.682 158.577 129.041 158.364 129.339 158.08C129.637 157.795 129.865 157.447 130.021 157.036L134.218 157.312C134.005 158.321 133.569 159.202 132.908 159.955C132.255 160.7 131.409 161.283 130.373 161.702C129.343 162.114 128.153 162.32 126.804 162.32ZM143.306 162.266C142.063 162.266 140.937 161.947 139.929 161.308C138.927 160.661 138.132 159.713 137.542 158.463C136.96 157.206 136.669 155.665 136.669 153.839C136.669 151.964 136.971 150.406 137.574 149.163C138.178 147.913 138.98 146.979 139.982 146.361C140.99 145.736 142.095 145.423 143.295 145.423C144.211 145.423 144.975 145.58 145.586 145.892C146.203 146.197 146.701 146.581 147.077 147.043C147.461 147.497 147.752 147.945 147.951 148.385H148.089V140.182H152.617V162H148.142V159.379H147.951C147.738 159.834 147.436 160.285 147.045 160.732C146.662 161.173 146.161 161.538 145.543 161.83C144.932 162.121 144.186 162.266 143.306 162.266ZM144.744 158.655C145.475 158.655 146.093 158.456 146.598 158.058C147.109 157.653 147.5 157.089 147.77 156.364C148.047 155.64 148.185 154.791 148.185 153.818C148.185 152.845 148.05 152 147.78 151.283C147.51 150.565 147.12 150.011 146.608 149.621C146.097 149.23 145.475 149.035 144.744 149.035C143.998 149.035 143.37 149.237 142.858 149.642C142.347 150.047 141.96 150.608 141.697 151.325C141.434 152.043 141.303 152.874 141.303 153.818C141.303 154.77 141.434 155.612 141.697 156.343C141.967 157.067 142.354 157.636 142.858 158.048C143.37 158.452 143.998 158.655 144.744 158.655ZM156.348 162V145.636H160.887V162H156.348ZM158.628 143.527C157.953 143.527 157.374 143.303 156.892 142.856C156.416 142.401 156.178 141.858 156.178 141.226C156.178 140.601 156.416 140.065 156.892 139.617C157.374 139.163 157.953 138.935 158.628 138.935C159.303 138.935 159.878 139.163 160.354 139.617C160.837 140.065 161.078 140.601 161.078 141.226C161.078 141.858 160.837 142.401 160.354 142.856C159.878 143.303 159.303 143.527 158.628 143.527ZM169.188 162.309C168.144 162.309 167.214 162.128 166.397 161.766C165.58 161.396 164.934 160.853 164.458 160.136C163.989 159.411 163.755 158.509 163.755 157.43C163.755 156.521 163.922 155.757 164.256 155.139C164.589 154.521 165.044 154.024 165.619 153.648C166.195 153.271 166.848 152.987 167.58 152.795C168.318 152.604 169.092 152.469 169.902 152.391C170.854 152.291 171.621 152.199 172.203 152.114C172.786 152.021 173.208 151.886 173.471 151.709C173.734 151.531 173.865 151.268 173.865 150.92V150.857C173.865 150.182 173.652 149.66 173.226 149.29C172.807 148.921 172.21 148.737 171.436 148.737C170.619 148.737 169.969 148.918 169.487 149.28C169.004 149.635 168.684 150.082 168.528 150.622L164.33 150.281C164.543 149.287 164.962 148.428 165.587 147.703C166.212 146.972 167.018 146.411 168.006 146.02C169 145.622 170.151 145.423 171.457 145.423C172.366 145.423 173.237 145.53 174.067 145.743C174.906 145.956 175.648 146.286 176.294 146.734C176.947 147.181 177.462 147.756 177.839 148.46C178.215 149.156 178.403 149.99 178.403 150.963V162H174.099V159.731H173.972C173.709 160.242 173.357 160.693 172.917 161.084C172.477 161.467 171.947 161.769 171.33 161.989C170.712 162.202 169.998 162.309 169.188 162.309ZM170.488 159.177C171.156 159.177 171.745 159.045 172.256 158.783C172.768 158.513 173.169 158.151 173.46 157.696C173.751 157.241 173.897 156.727 173.897 156.151V154.415C173.755 154.507 173.56 154.592 173.311 154.67C173.07 154.741 172.796 154.809 172.491 154.873C172.185 154.93 171.88 154.983 171.575 155.033C171.269 155.075 170.992 155.114 170.744 155.15C170.211 155.228 169.746 155.352 169.348 155.523C168.95 155.693 168.641 155.924 168.421 156.215C168.201 156.499 168.091 156.854 168.091 157.281C168.091 157.898 168.315 158.371 168.762 158.697C169.217 159.017 169.792 159.177 170.488 159.177Z" fill="#69A389"/>
</g>
<defs>
<filter id="filter0_f_8285_14256" x="-137.7" y="6.3" width="380.4" height="383.4" filterUnits="userSpaceOnUse" color-interpolation-filters="sRGB">
<feFlood flood-opacity="0" result="BackgroundImageFix"/>
<feBlend mode="normal" in="SourceGraphic" in2="BackgroundImageFix" result="shape"/>
<feGaussianBlur stdDeviation="46.35" result="effect1_foregroundBlur_8285_14256"/>
</filter>
<filter id="filter1_f_8285_14256" x="111.3" y="-145.7" width="380.4" height="383.4" filterUnits="userSpaceOnUse" color-interpolation-filters="sRGB">
<feFlood flood-opacity="0" result="BackgroundImageFix"/>
<feBlend mode="normal" in="SourceGraphic" in2="BackgroundImageFix" result="shape"/>
<feGaussianBlur stdDeviation="46.35" result="effect1_foregroundBlur_8285_14256"/>
</filter>
<filter id="filter2_ddd_8285_14256" x="-114" y="-112" width="342" height="342" filterUnits="userSpaceOnUse" color-interpolation-filters="sRGB">
<feFlood flood-opacity="0" result="BackgroundImageFix"/>
<feColorMatrix in="SourceAlpha" type="matrix" values="0 0 0 0 0 0 0 0 0 0 0 0 0 0 0 0 0 0 127 0" result="hardAlpha"/>
<feOffset/>
<feGaussianBlur stdDeviation="20"/>
<feColorMatrix type="matrix" values="0 0 0 0 1 0 0 0 0 1 0 0 0 0 1 0 0 0 0.8 0"/>
<feBlend mode="normal" in2="BackgroundImageFix" result="effect1_dropShadow_8285_14256"/>
<feColorMatrix in="SourceAlpha" type="matrix" values="0 0 0 0 0 0 0 0 0 0 0 0 0 0 0 0 0 0 127 0" result="hardAlpha"/>
<feOffset/>
<feGaussianBlur stdDeviation="40"/>
<feColorMatrix type="matrix" values="0 0 0 0 1 0 0 0 0 1 0 0 0 0 1 0 0 0 0.6 0"/>
<feBlend mode="normal" in2="effect1_dropShadow_8285_14256" result="effect2_dropShadow_8285_14256"/>
<feColorMatrix in="SourceAlpha" type="matrix" values="0 0 0 0 0 0 0 0 0 0 0 0 0 0 0 0 0 0 127 0" result="hardAlpha"/>
<feOffset/>
<feGaussianBlur stdDeviation="60"/>
<feColorMatrix type="matrix" values="0 0 0 0 1 0 0 0 0 1 0 0 0 0 1 0 0 0 0.24 0"/>
<feBlend mode="normal" in2="effect2_dropShadow_8285_14256" result="effect3_dropShadow_8285_14256"/>
<feBlend mode="normal" in="SourceGraphic" in2="effect3_dropShadow_8285_14256" result="shape"/>
</filter>
<clipPath id="clip0_8285_14256">
<rect width="454" height="252" fill="white"/>
</clipPath>
</defs>
</svg>
