<svg width="168" height="104" viewBox="0 0 168 104" fill="none" xmlns="http://www.w3.org/2000/svg">
<path d="M118.139 64.1893C120.505 58.3797 117.714 51.7517 111.905 49.3852L107.379 47.5416C103.799 46.0832 99.714 47.8033 98.2556 51.3836L96.711 55.1753C94.2894 61.12 97.1454 67.9021 103.09 70.3237L103.335 70.4234C109.144 72.7899 115.772 69.9988 118.139 64.1893Z" fill="#BBD0C7"/>
<rect width="27.4714" height="40.1506" rx="10" transform="matrix(-0.92611 -0.377255 -0.377255 0.92611 140 35.7302)" fill="#E4EDE9"/>
<path d="M138.114 40.3608C139.155 37.8034 137.927 34.8857 135.369 33.844L119.189 27.2528C116.632 26.211 113.714 27.4397 112.672 29.997L112.167 31.2376L137.608 41.6014L138.114 40.3608Z" fill="#444956"/>
<path d="M127.244 67.043L101.803 56.6792L101.297 57.9198C100.255 60.4772 101.484 63.3949 104.041 64.4366L120.222 71.0278C122.779 72.0696 125.697 70.8409 126.739 68.2836L127.244 67.043Z" fill="#444956"/>
<g clip-path="url(#clip0_9587_21212)">
<path d="M116.587 56.9406L115.899 56.2603C115.736 56.0993 115.7 55.8494 115.811 55.6492L118.191 51.3794C117.313 50.3972 117.339 48.8817 118.277 47.9294C118.706 47.4936 119.269 47.2353 119.861 47.1862C119.842 46.509 120.096 45.8432 120.587 45.3454C121.06 44.8652 121.691 44.5982 122.364 44.5936C122.863 44.5901 123.34 44.7309 123.748 44.9966C123.82 44.9188 123.896 44.8449 123.976 44.775C124.501 44.3182 125.177 44.076 125.878 44.093C126.578 44.1099 127.241 44.3843 127.743 44.8656C128.288 45.388 128.595 46.0917 128.605 46.847C128.616 47.6036 128.33 48.3172 127.799 48.8563C127.776 48.8801 127.752 48.9035 127.727 48.9265C128.376 49.8993 128.277 51.2303 127.424 52.0959C126.934 52.5938 126.272 52.8577 125.596 52.8479C125.555 53.4417 125.305 54.0084 124.876 54.4442C124.403 54.9243 123.771 55.1913 123.098 55.196C122.479 55.2003 121.893 54.9822 121.431 54.5788L117.201 57.0195L116.587 56.9406Z" fill="#244E3B"/>
<path d="M115.504 56.3283L114.184 51.6267C113.571 51.5922 112.999 51.3386 112.559 50.9029C112.081 50.4292 111.816 49.7971 111.813 49.1232C111.811 48.5115 112.028 47.9313 112.413 47.4781C111.923 47.0123 111.634 46.3614 111.631 45.6625C111.626 44.4476 112.485 43.426 113.629 43.1833C113.627 43.1499 113.627 43.1165 113.626 43.083C113.623 42.3264 113.917 41.6158 114.454 41.0822C114.989 40.5495 115.7 40.2602 116.455 40.2675C117.151 40.2742 117.816 40.5408 118.329 41.0182C118.843 41.4958 119.156 42.1409 119.213 42.8347C119.222 42.9408 119.224 43.0468 119.221 43.1524C119.699 43.2478 120.139 43.4806 120.493 43.8315C120.971 44.3052 121.236 44.9373 121.239 45.6112C121.242 46.31 120.959 46.964 120.472 47.4349C120.861 47.8841 121.083 48.4619 121.086 49.0737C121.091 50.4102 120.051 51.5127 118.737 51.6018L117.455 56.3188C117.395 56.5399 117.195 56.6939 116.966 56.6951L115.998 56.7005L115.504 56.3283Z" fill="#347357"/>
<path d="M125.4 47.9073C125.885 46.7165 125.438 45.3741 124.403 44.695C124.421 44.6549 124.439 44.6144 124.455 44.5735C124.756 43.8361 124.748 43.0274 124.434 42.2964C124.199 41.7495 123.814 41.2978 123.324 40.9843L122.544 41.3482L122.353 40.5842C121.799 40.465 121.218 40.5095 120.677 40.7177C119.989 40.9828 119.43 41.4894 119.102 42.144C119.048 42.2527 119 42.3641 118.96 42.4777C117.744 42.24 116.487 42.8883 116.002 44.0791C115.721 44.7688 115.745 45.5287 116.047 46.1845C115.478 46.4682 115.025 46.9504 114.778 47.5553C114.246 48.863 114.836 50.3533 116.097 50.9476L115.485 56.1299C115.458 56.3577 115.587 56.5754 115.799 56.6619L115.804 56.6636L116.532 56.2263L116.748 57.0484L116.752 57.0501C116.965 57.1366 117.209 57.0707 117.349 56.889L120.532 52.7545C121.849 53.2101 123.313 52.5566 123.846 51.249C124.092 50.644 124.105 49.9822 123.896 49.3819C124.57 49.1237 125.119 48.597 125.4 47.9073Z" fill="#78A28F"/>
<path d="M125.4 47.9073C125.885 46.7164 125.439 45.374 124.403 44.6949C124.421 44.6548 124.439 44.6143 124.456 44.5734C124.756 43.836 124.748 43.0273 124.434 42.2963C124.199 41.7494 123.814 41.2977 123.324 40.9842L122.605 41.32L116.532 56.2263L116.532 56.2263L116.748 57.0484L116.752 57.0501C116.965 57.1366 117.209 57.0706 117.349 56.8889L120.533 52.7545C121.85 53.2101 123.313 52.5566 123.846 51.2489C124.092 50.644 124.105 49.9822 123.896 49.3819C124.571 49.1236 125.119 48.597 125.4 47.9073Z" fill="#347357"/>
<path d="M121.271 48.879C121.162 48.6195 120.863 48.498 120.603 48.6076L120.102 48.8193L120.841 47.0053L122.283 46.3961C122.543 46.2866 122.664 45.9874 122.555 45.728C122.445 45.4685 122.146 45.3469 121.887 45.4565L121.385 45.6683L123.3 40.9689C123.143 40.8713 122.977 40.787 122.802 40.7185C122.656 40.6616 122.506 40.6175 122.355 40.585L120.441 45.2835L120.23 44.7816C120.121 44.5219 119.822 44.3998 119.562 44.5089C119.302 44.618 119.18 44.9169 119.289 45.1765L119.896 46.6206L119.157 48.4346L118.946 47.9327C118.837 47.673 118.538 47.5509 118.279 47.66C118.019 47.7691 117.897 48.068 118.006 48.3276L118.612 49.7717L115.805 56.6637L116.749 57.0485L119.557 50.1564L121 49.5472C121.259 49.4377 121.381 49.1385 121.271 48.879Z" fill="#347357"/>
<path d="M122.282 46.396C122.541 46.2864 122.663 45.9873 122.553 45.7278C122.443 45.4683 122.144 45.3467 121.885 45.4563L121.383 45.6681L123.298 40.9687C123.154 40.8789 123.002 40.8011 122.842 40.7358L116.275 56.8558L116.748 57.0482L119.555 50.1562L120.998 49.547C121.257 49.4375 121.379 49.1383 121.269 48.8789C121.16 48.6194 120.861 48.4978 120.601 48.6074L120.1 48.8192L120.839 47.0052L122.282 46.396Z" fill="#244E3B"/>
</g>
<rect width="16.3772" height="7.92445" rx="3.96223" transform="matrix(-0.92611 -0.377255 -0.377255 0.92611 116.062 51.0793)" fill="#BBD0C7"/>
<path d="M27.8631 33.9104C27.8631 27.3536 30.4677 21.0654 35.1041 16.429C39.7404 11.7927 46.0287 9.18799 52.5855 9.18799C59.1422 9.18799 65.4305 11.7927 70.0668 16.429C74.7032 21.0654 77.3079 27.3536 77.3079 33.9104C77.3079 40.4672 74.7032 46.7554 70.0668 51.3918C65.4305 56.0281 59.1422 58.6328 52.5855 58.6328C46.0287 58.6328 39.7404 56.0281 35.1041 51.3918C30.4677 46.7554 27.8631 40.4672 27.8631 33.9104ZM51.7169 65.1294C51.902 65.1015 52.0887 65.0857 52.2759 65.0821H52.895C53.0842 65.0821 53.2705 65.0979 53.454 65.1294L84.8192 70.6457L84.9826 70.6801C90.7611 72.013 96.9697 75.6805 98.1779 82.8048L98.1951 82.9295L98.6852 86.7002V86.7088C99.8203 95.3466 92.9711 101.628 84.8837 101.628C84.7052 101.625 84.5272 101.611 84.3505 101.585H20.2873C12.1998 101.585 5.34633 95.2993 6.48571 86.6572L6.97586 82.9209L6.99735 82.7919C8.20123 75.7966 14.4614 71.9227 20.2271 70.6715L20.3517 70.6457L51.7169 65.1294Z" fill="#BBD0C7"/>
<path d="M58.3088 32.1583C58.3088 45.8202 67.1435 57.6022 52.3012 58.6624C38.6393 58.6624 26.5039 47.2338 26.5039 33.5718C26.5039 19.9099 38.6393 8.83472 52.3012 8.83472C65.9631 8.83472 88.3467 18.3762 58.3088 32.1583Z" fill="#EAF6F1"/>
<path d="M66.7903 67.8503H38.5193C32.7473 68.7927 22.4048 70.112 20.1431 70.6774C17.316 71.3842 7.06772 73.8579 6.36094 86.5799C5.79552 96.7574 13.6643 100.951 17.6693 101.776C38.4014 101.893 80.9964 102.058 85.5197 101.776C91.1739 101.422 101.069 96.4747 98.5951 84.4596C96.6161 74.8474 88.5824 71.2664 84.813 70.6774L66.7903 67.8503Z" fill="#78A28F" stroke="#78A28F"/>
<g clip-path="url(#clip1_9587_21212)">
<path d="M146.923 50.6343C154.509 47.8597 158.409 39.4611 155.635 31.8755C152.86 24.2898 144.462 20.3896 136.876 23.1641M146.923 50.6343C139.338 53.4088 130.939 49.5086 128.164 41.9229C125.39 34.3373 129.29 25.9387 136.876 23.1641M146.923 50.6343L136.876 23.1641" stroke="#F26950" stroke-width="3" stroke-linecap="round" stroke-linejoin="round"/>
</g>
<defs>
<clipPath id="clip0_9587_21212">
<rect width="17.4338" height="17.4338" fill="white" transform="translate(114.777 37.4348) rotate(22.1637)"/>
</clipPath>
<clipPath id="clip1_9587_21212">
<rect width="39" height="39" fill="white" transform="translate(132.426 11) rotate(24.9095)"/>
</clipPath>
</defs>
</svg>
