<svg width="360" height="258" viewBox="0 0 360 258" fill="none" xmlns="http://www.w3.org/2000/svg">
<g opacity="0.5">
<path d="M360.562 1H320.187V6.29853H360.562V1Z" fill="#9ED0BB"/>
<path d="M360.562 5.76868H316.468V13.7165H360.562V5.76868Z" fill="#9ED0BB"/>
<path d="M311.687 37.03H360.562V45.5076H311.687L311.687 37.03Z" fill="#9ED0BB"/>
<path d="M360.562 75.1794V66.7018H311.687V75.1794H360.562Z" fill="#9ED0BB"/>
<path d="M360.562 106.971V98.4929H311.687V106.971H360.562Z" fill="#9ED0BB"/>
<path d="M360.562 136.642V128.165H311.687V136.642H360.562Z" fill="#9ED0BB"/>
<path d="M319.124 37.03H311.687V136.642H319.124V37.03Z" fill="#9ED0BB"/>
<path d="M311.687 37.03H319.124L327.624 13.7165H320.187L311.687 37.03Z" fill="#9ED0BB"/>
<path d="M319.124 136.642H311.687L301.062 169.493H311.687L319.124 136.642Z" fill="#9ED0BB"/>
<path d="M319.124 39.1494L316.999 35.9703L359.5 11.5971L361.625 14.7762L319.124 39.1494Z" fill="#9ED0BB"/>
<path d="M286.516 74.4378L284.061 72.5301L284.07 71.4704L317.37 36.5729L320.314 39.0182L286.516 74.4378Z" fill="#9ED0BB"/>
<path d="M286.53 134.747L284.089 132.836L284.095 131.777L317.083 96.9715L320.011 99.4214L286.53 134.747Z" fill="#9ED0BB"/>
<path d="M321.249 70.9406L319.124 67.7615L361.625 43.3882L363.75 46.5673L321.249 70.9406Z" fill="#9ED0BB"/>
<path d="M321.249 101.672L319.124 98.4929L361.625 74.1197L363.75 77.2988L321.249 101.672Z" fill="#9ED0BB"/>
<path d="M321.249 131.344L319.124 128.165L361.625 103.791L363.75 106.971L321.249 131.344Z" fill="#9ED0BB"/>
<path d="M312.749 169.493L310.624 166.314L360.562 135.583L362.687 138.762L312.749 169.493Z" fill="#9ED0BB"/>
<path d="M365.875 41.2688L368 38.0897L325.499 13.7165L323.374 16.8956L365.875 41.2688Z" fill="#9ED0BB"/>
<path d="M359.5 70.9406L361.625 67.7615L319.124 43.3882L316.999 46.5673L359.5 70.9406Z" fill="#9ED0BB"/>
<path d="M359.5 101.672L361.625 98.4929L319.124 74.1197L316.999 77.2988L359.5 101.672Z" fill="#9ED0BB"/>
<path d="M359.5 131.344L361.625 128.165L319.124 103.791L316.999 106.971L359.5 131.344Z" fill="#9ED0BB"/>
<path d="M364.812 164.195L366.938 162.075L319.124 135.583L316.999 138.762L364.812 164.195Z" fill="#9ED0BB"/>
<path d="M284.592 70.9406H312.749V75.1794H284.061V71.4704L284.592 70.9406Z" fill="#9ED0BB"/>
<path d="M284.592 131.344H312.749V135.583H284.061V131.874L284.592 131.344Z" fill="#9ED0BB"/>
<path d="M284.061 75.1794H288.311V78.3585H284.061V75.1794Z" fill="#9ED0BB"/>
<path d="M284.061 135.583H288.311V138.762H284.061V135.583Z" fill="#9ED0BB"/>
<path d="M311.687 37.03H360.562V45.5076H311.687L311.687 37.03ZM311.687 37.03H319.124M311.687 37.03V136.642M311.687 37.03L320.187 13.7165H327.624L319.124 37.03M311.687 136.642H360.562V128.165H311.687V136.642ZM311.687 136.642H319.124M311.687 136.642L301.062 169.493H311.687L319.124 136.642M319.124 37.03V136.642M284.061 75.1794H312.749V70.9406H284.593L284.061 71.4704V75.1794ZM284.061 75.1794H288.311V78.3585H284.061V75.1794ZM284.061 135.583H312.749V131.344H284.593L284.061 131.874V135.583ZM284.061 135.583H288.311V138.762H284.061V135.583ZM284.593 77.8287C259.337 93.4716 50.0869 162.075 -190 138.762M285.124 137.702C250.592 159.426 -15.5122 281.128 -167.239 252.728M320.187 1H360.562V6.29853H320.187V1ZM316.468 5.76868H360.562V13.7165H316.468V5.76868ZM360.562 66.7017V75.1794H311.687V66.7017H360.562ZM360.562 98.4929V106.971H311.687V98.4929H360.562ZM316.999 35.9703L319.124 39.1494L361.625 14.7762L359.5 11.5971L316.999 35.9703ZM284.061 72.5301L286.516 74.4378L320.314 39.0182L317.37 36.5729L284.07 71.4704L284.061 72.5301ZM284.089 132.836L286.53 134.747L320.011 99.4214L317.083 96.9714L284.095 131.777L284.089 132.836ZM319.124 67.7615L321.249 70.9406L363.75 46.5673L361.625 43.3882L319.124 67.7615ZM319.124 98.4929L321.249 101.672L363.75 77.2988L361.625 74.1197L319.124 98.4929ZM319.124 128.165L321.249 131.344L363.75 106.971L361.625 103.791L319.124 128.165ZM310.624 166.314L312.749 169.493L362.687 138.762L360.562 135.583L310.624 166.314ZM368 38.0897L365.875 41.2688L323.374 16.8956L325.499 13.7165L368 38.0897ZM361.625 67.7615L359.5 70.9406L316.999 46.5673L319.124 43.3882L361.625 67.7615ZM361.625 98.4929L359.5 101.672L316.999 77.2988L319.124 74.1197L361.625 98.4929ZM361.625 128.165L359.5 131.344L316.999 106.971L319.124 103.791L361.625 128.165ZM366.938 162.075L364.812 164.195L316.999 138.762L319.124 135.583L366.938 162.075Z" stroke="#9ED0BB"/>
</g>
</svg>
