<svg width="19" height="20" viewBox="0 0 19 20" fill="none" xmlns="http://www.w3.org/2000/svg">
<path fill-rule="evenodd" clip-rule="evenodd" d="M4.15626 7.62484C4.15634 4.67364 6.54879 2.28125 9.50001 2.28125C12.4513 2.28125 14.8438 4.67373 14.8438 7.625L14.8436 7.66394V8.21875C14.8436 9.89956 15.4777 11.4309 16.5208 12.5887C16.6526 12.735 16.7033 12.9371 16.6561 13.1283C16.6089 13.3195 16.47 13.4749 16.2853 13.5431C15.0629 13.9943 13.7833 14.3271 12.4605 14.5277C12.466 14.6011 12.4688 14.6753 12.4688 14.75C12.4688 16.3896 11.1396 17.7188 9.50001 17.7188C7.86041 17.7188 6.53126 16.3896 6.53126 14.75C6.53126 14.6753 6.53403 14.6012 6.53948 14.5277C5.21656 14.3272 3.93686 13.9944 2.71443 13.5431C2.52968 13.4749 2.39077 13.3195 2.34359 13.1283C2.29641 12.9371 2.3471 12.735 2.47892 12.5887C3.52196 11.4309 4.1561 9.89956 4.1561 8.21875L4.15626 7.62484ZM7.7205 14.6703C7.71934 14.6967 7.71876 14.7233 7.71876 14.75C7.71876 15.7338 8.51625 16.5312 9.50001 16.5312C10.4838 16.5312 11.2813 15.7338 11.2813 14.75C11.2813 14.7232 11.2807 14.6967 11.2795 14.6702C10.6932 14.723 10.0996 14.75 9.49985 14.75C8.9002 14.75 8.30669 14.723 7.7205 14.6703Z" fill="white"/>
</svg>
