<svg width="17" height="17" viewBox="0 0 17 17" fill="none" xmlns="http://www.w3.org/2000/svg">
<path d="M15.4062 4.78125V12.2188C15.4062 13.099 14.6927 13.8125 13.8125 13.8125H3.1875C2.3073 13.8125 1.59375 13.099 1.59375 12.2188V4.78125M15.4062 4.78125C15.4062 3.90105 14.6927 3.1875 13.8125 3.1875H3.1875C2.3073 3.1875 1.59375 3.90105 1.59375 4.78125M15.4062 4.78125V4.95317C15.4062 5.50662 15.1191 6.02044 14.6478 6.3105L9.33528 9.57973C8.82304 9.89496 8.17696 9.89496 7.66472 9.57973L2.35222 6.3105C1.88087 6.02044 1.59375 5.50662 1.59375 4.95317V4.78125" stroke="#347357" stroke-width="1.5" stroke-linecap="round" stroke-linejoin="round"/>
</svg>
