<svg width="18" height="18" viewBox="0 0 18 18" fill="none" xmlns="http://www.w3.org/2000/svg">
<path d="M7.40918 5.63913C8.28786 4.87029 9.71248 4.87029 10.5912 5.63913C11.4698 6.40798 11.4698 7.65452 10.5912 8.42337C10.4382 8.55718 10.2688 8.66771 10.0885 8.75495C9.52923 9.02561 9.00017 9.50368 9.00017 10.125V10.6875M15.75 9C15.75 12.7279 12.7279 15.75 9 15.75C5.27208 15.75 2.25 12.7279 2.25 9C2.25 5.27208 5.27208 2.25 9 2.25C12.7279 2.25 15.75 5.27208 15.75 9ZM9 12.9375H9.00563V12.9431H9V12.9375Z" stroke="white" stroke-width="1.5" stroke-linecap="round" stroke-linejoin="round"/>
</svg>
