<svg width="32" height="45" viewBox="0 0 32 45" fill="none" xmlns="http://www.w3.org/2000/svg">
<path d="M30.2381 40.0693L20.7927 20.7827L15.5045 23.3726L22.7118 38.0893L30.2381 40.0693Z" fill="#CD3414"/>
<path d="M21.3741 44.4111L11.9287 25.1245L17.217 22.5346L24.4243 37.2513L21.3741 44.4111Z" fill="#CD3414"/>
<path d="M13.1728 24.5151L22.085 42.713L22.4505 41.8843L13.7949 24.2104L13.1728 24.5151Z" fill="#FE9742"/>
<path d="M19.5489 21.3923L28.4611 39.5902L27.5823 39.3709L18.9268 21.697L19.5489 21.3923Z" fill="#FE9742"/>
<path d="M1.88688 40.0696L11.3323 20.783L16.6205 23.3728L9.41321 38.0895L1.88688 40.0696Z" fill="#FF5529"/>
<path d="M10.7509 44.4114L20.1963 25.1248L14.908 22.5349L7.70069 37.2516L10.7509 44.4114Z" fill="#FF5529"/>
<path d="M18.9522 24.5154L10.04 42.7132L9.67452 41.8845L18.3301 24.2107L18.9522 24.5154Z" fill="#FE9742"/>
<path d="M12.5761 21.3926L3.66391 39.5904L4.54269 39.3711L13.1982 21.6973L12.5761 21.3926Z" fill="#FE9742"/>
<path d="M3.20705 7.46993L3.78981 9.41248C3.83916 9.57695 3.76054 9.75275 3.60506 9.82564L1.46064 10.8308C1.27176 10.9194 1.20341 11.1536 1.31503 11.3298L2.58856 13.3406C2.68108 13.4867 2.65168 13.6787 2.51967 13.7904L0.81103 15.2362C0.647514 15.3745 0.647514 15.6266 0.81103 15.765L2.49759 17.1921C2.63884 17.3116 2.66122 17.521 2.5484 17.6677L1.26796 19.3323C1.13727 19.5022 1.19071 19.7488 1.38 19.8493L3.53289 20.9931C3.68114 21.0718 3.75157 21.2455 3.70004 21.4053L3.04881 23.4241C2.98306 23.6279 3.11618 23.842 3.32806 23.8731L5.5622 24.2017C5.73615 24.2273 5.86335 24.3791 5.85802 24.5549L5.79289 26.7041C5.7865 26.9151 5.96871 27.0827 6.17844 27.0587L8.53246 26.7897C8.69514 26.7711 8.84861 26.869 8.90039 27.0243L9.56466 29.0171C9.62643 29.2024 9.82912 29.3 10.0125 29.2328L12.0304 28.4929C12.1754 28.4397 12.3381 28.489 12.4293 28.6137L13.7111 30.3679C13.826 30.525 14.0477 30.5567 14.202 30.4381L15.9513 29.0924C16.0802 28.9933 16.2608 28.9972 16.3853 29.1018L18.0406 30.4922C18.1987 30.625 18.437 30.5909 18.5516 30.4191L19.7474 28.6253C19.8347 28.4944 19.9994 28.4387 20.1482 28.4899L22.3151 29.2348C22.5051 29.3001 22.7106 29.1906 22.7624 28.9965L23.2818 27.0486C23.3263 26.8818 23.4868 26.7732 23.6582 26.794L25.8165 27.0556C26.0271 27.0812 26.211 26.913 26.2044 26.7009L26.1397 24.6314C26.1343 24.46 26.2552 24.3105 26.4239 24.2798L28.6242 23.8797C28.8212 23.8439 28.9468 23.6491 28.8983 23.4549L28.3617 21.3084C28.3227 21.1526 28.3959 20.9905 28.5386 20.9167L30.4716 19.9169C30.6518 19.8237 30.7136 19.5963 30.6056 19.4247L29.4881 17.6498C29.399 17.5083 29.4236 17.3235 29.5466 17.2103L31.2159 15.6746C31.3673 15.5353 31.3646 15.2956 31.2102 15.1597L29.5522 13.7006C29.4262 13.5897 29.3978 13.4044 29.485 13.2608L30.6239 11.385C30.7242 11.2197 30.6698 11.0042 30.503 10.9064L28.53 9.74983C28.3922 9.66904 28.3275 9.50448 28.3734 9.35148L28.9527 7.42046C29.0157 7.21064 28.8705 6.99581 28.6523 6.97597L26.532 6.78321C26.3536 6.76699 26.217 6.61741 26.217 6.43826V4.10023C26.217 3.89758 26.0438 3.73822 25.8418 3.75505L23.3883 3.9595C23.2212 3.97343 23.0681 3.86562 23.0249 3.70357L22.5063 1.75895C22.4532 1.55974 22.2389 1.45075 22.0466 1.52518L19.9769 2.32636C19.8276 2.38415 19.6582 2.33212 19.5671 2.2005L18.3784 0.483487C18.2629 0.316675 18.0294 0.28439 17.873 0.413604L16.3861 1.64187C16.261 1.74522 16.081 1.74786 15.9529 1.64824L14.123 0.22504C13.9661 0.102959 13.7388 0.1378 13.6256 0.301293L12.4246 2.03601C12.3363 2.16357 12.174 2.21685 12.0272 2.16641L9.85281 1.41895C9.66393 1.35402 9.45942 1.46187 9.40631 1.6544L8.8817 3.55612C8.84026 3.70633 8.70362 3.81038 8.5478 3.81038H6.21374C6.02244 3.81038 5.86736 3.96546 5.86736 4.15676V6.29392C5.86736 6.4606 5.74865 6.60365 5.58482 6.63437L3.47498 7.02996C3.2727 7.06789 3.14791 7.2728 3.20705 7.46993Z" fill="#FDA92A"/>
<circle cx="16.0865" cy="15.4137" r="12.1232" fill="#FFCE43"/>
<g filter="url(#filter0_i_7351_8101)">
<circle cx="16.085" cy="15.4139" r="8.83259" fill="#FFE267"/>
</g>
<circle cx="16.085" cy="15.4139" r="8.6594" stroke="#FAB42B" stroke-width="0.346376"/>
<path d="M10.2177 8.06743L10.6235 6.6759C10.673 6.50625 10.9149 6.51095 10.9578 6.68239L11.3034 8.06486C11.3154 8.11268 11.3471 8.15315 11.3908 8.17611L12.6399 8.83353C12.7699 8.90195 12.761 9.09099 12.6251 9.14693L11.5709 9.58101C11.5231 9.60071 11.4866 9.64077 11.4714 9.69022L10.9682 11.3256C10.918 11.4886 10.6873 11.4886 10.6371 11.3256L10.1351 9.69406C10.1192 9.64243 10.0801 9.60116 10.0294 9.58248L8.84023 9.14435C8.69788 9.09191 8.68696 8.89478 8.82265 8.82694L10.1288 8.17384C10.172 8.15228 10.2042 8.11372 10.2177 8.06743Z" fill="white"/>
<path d="M17.5616 10.8653V20.9331H15.433V12.8857H15.374L13.0685 14.331V12.4433L15.5608 10.8653H17.5616Z" fill="#374151"/>
<defs>
<filter id="filter0_i_7351_8101" x="7.25244" y="6.5813" width="17.6653" height="17.6653" filterUnits="userSpaceOnUse" color-interpolation-filters="sRGB">
<feFlood flood-opacity="0" result="BackgroundImageFix"/>
<feBlend mode="normal" in="SourceGraphic" in2="BackgroundImageFix" result="shape"/>
<feColorMatrix in="SourceAlpha" type="matrix" values="0 0 0 0 0 0 0 0 0 0 0 0 0 0 0 0 0 0 127 0" result="hardAlpha"/>
<feOffset dx="-1.55869" dy="-1.55869"/>
<feComposite in2="hardAlpha" operator="arithmetic" k2="-1" k3="1"/>
<feColorMatrix type="matrix" values="0 0 0 0 0.996078 0 0 0 0 0.85098 0 0 0 0 0.203922 0 0 0 1 0"/>
<feBlend mode="normal" in2="shape" result="effect1_innerShadow_7351_8101"/>
</filter>
</defs>
</svg>
