<svg width="12" height="13" viewBox="0 0 12 13" fill="none" xmlns="http://www.w3.org/2000/svg">
<path d="M2.2502 2.29999C1.6703 2.29999 1.2002 2.77009 1.2002 3.34999V5.30653C1.50329 5.11249 1.8636 4.99999 2.2502 4.99999H9.7502C10.1368 4.99999 10.4971 5.11249 10.8002 5.30653V4.54999C10.8002 3.97009 10.3301 3.49999 9.7502 3.49999H6.84872C6.80894 3.49999 6.77079 3.48418 6.74266 3.45605L5.89413 2.60753C5.69722 2.41061 5.43014 2.29999 5.15167 2.29999H2.2502Z" fill="#347357"/>
<path d="M2.2502 5.89999C1.6703 5.89999 1.2002 6.37009 1.2002 6.94999V9.64999C1.2002 10.2299 1.6703 10.7 2.2502 10.7H9.7502C10.3301 10.7 10.8002 10.2299 10.8002 9.64999V6.94999C10.8002 6.37009 10.3301 5.89999 9.7502 5.89999H2.2502Z" fill="#347357"/>
</svg>
