<svg width="16" height="15" viewBox="0 0 16 15" fill="none" xmlns="http://www.w3.org/2000/svg">
<g clip-path="url(#clip0_112_17554)">
<path d="M7.38884 0.046874C7.20629 0.0996084 6.98183 0.298827 6.89505 0.483397L6.82322 0.629882V4.70801C6.82322 6.95215 6.81424 8.78906 6.79928 8.78906C6.78731 8.78906 6.33242 8.35254 5.79074 7.81934C5.24607 7.28613 4.7433 6.81738 4.67148 6.77637C4.49491 6.67383 4.16272 6.64746 3.95922 6.72363C3.78863 6.78809 3.57914 6.97266 3.49236 7.13379C3.39659 7.30664 3.39958 7.69629 3.49834 7.88086C3.59411 8.06543 7.08359 11.4814 7.27213 11.5752C7.46665 11.6748 7.8557 11.6748 8.05023 11.5752C8.23876 11.4814 11.7282 8.06543 11.824 7.88086C11.9228 7.69629 11.9258 7.30664 11.83 7.13379C11.7432 6.97266 11.5337 6.78809 11.3631 6.72363C11.1596 6.64746 10.8274 6.67383 10.6509 6.77637C10.579 6.81738 10.0763 7.28613 9.53161 7.81934C8.98993 8.35254 8.53504 8.78906 8.52307 8.78906C8.50811 8.78906 8.49913 6.95215 8.49913 4.70801V0.629882L8.4273 0.483397C8.25074 0.105468 7.80482 -0.0791025 7.38884 0.046874Z" fill="#347357"/>
<path d="M0.673364 10.0166C0.386066 10.0898 0.125701 10.3213 0.0478915 10.5791C-0.00896961 10.7637 -0.0179477 11.7539 0.0329281 12.1172C0.242416 13.5908 1.43949 14.7627 2.94482 14.9678C3.26803 15.0117 12.0546 15.0117 12.3778 14.9678C13.8831 14.7627 15.0802 13.5908 15.2897 12.1172C15.3405 11.7539 15.3316 10.7637 15.2747 10.5791C15.2178 10.3887 15.0203 10.1689 14.8198 10.0752C14.4996 9.92578 14.0926 10.0137 13.8412 10.2891C13.6437 10.5059 13.6168 10.623 13.6168 11.2939C13.6168 12.1143 13.527 12.4043 13.1589 12.791C12.9554 13.0049 12.7638 13.1338 12.4855 13.2393L12.285 13.3154L7.75108 13.3242C3.31292 13.3301 3.21416 13.3301 2.98372 13.2715C2.66949 13.1953 2.45402 13.0693 2.19964 12.8203C1.79862 12.4248 1.70584 12.1377 1.70584 11.2939C1.70584 10.623 1.67891 10.5059 1.48139 10.2891C1.28088 10.0723 0.927743 9.95215 0.673364 10.0166Z" fill="#347357"/>
</g>
<defs>
<clipPath id="clip0_112_17554">
<rect width="15.3226" height="15" fill="white"/>
</clipPath>
</defs>
</svg>
