<svg width="20" height="20" viewBox="0 0 20 20" fill="none" xmlns="http://www.w3.org/2000/svg">
<path d="M8.7448 0H3.09637C1.38629 0 0 1.3834 0 3.09637V16.9037C0 18.6166 1.38629 20 3.09637 20H8.7448C10.4578 20 11.8412 18.6135 11.8412 16.9036V3.09637C11.8412 1.38652 10.4577 0 8.7448 0Z" fill="#347357"/>
<path d="M11.8415 16.9036V3.09637C11.8415 1.38652 10.458 0 8.74512 0H5.9209V20H8.74512C10.458 20 11.8415 18.6135 11.8415 16.9036Z" fill="#347357"/>
<path d="M8.7448 1.17188H3.09637C2.03344 1.17188 1.17188 2.03168 1.17188 3.09637V16.9037C1.17188 17.9683 2.03344 18.8281 3.09637 18.8281H8.7448C9.81145 18.8281 10.6693 17.9645 10.6693 16.9036V3.09637C10.6693 2.03555 9.81141 1.17188 8.7448 1.17188Z" fill="#347357"/>
<path d="M10.6696 16.9036V3.09637C10.6696 2.03555 9.81172 1.17188 8.74512 1.17188H5.9209V18.8281H8.74512C9.81172 18.8281 10.6696 17.9645 10.6696 16.9036Z" fill="#347357"/>
<path d="M6.8623 3.68164H4.97949C4.6559 3.68164 4.39355 3.4193 4.39355 3.0957C4.39355 2.77211 4.6559 2.50977 4.97949 2.50977H6.8623C7.1859 2.50977 7.44824 2.77211 7.44824 3.0957C7.44824 3.4193 7.1859 3.68164 6.8623 3.68164Z" fill="white"/>
<path d="M7.44824 3.0957C7.44824 2.77211 7.1859 2.50977 6.86231 2.50977H5.9209V3.68164H6.86231C7.1859 3.68164 7.44824 3.4193 7.44824 3.0957Z" fill="white"/>
<path d="M8.74512 17.4893H3.09668C2.77309 17.4893 2.51074 17.2269 2.51074 16.9033C2.51074 16.5797 2.77309 16.3174 3.09668 16.3174H8.74512C9.06871 16.3174 9.33105 16.5797 9.33105 16.9033C9.33105 17.2269 9.06871 17.4893 8.74512 17.4893Z" fill="white"/>
<path d="M13.7656 5.02148C13.442 5.02148 13.1797 5.28383 13.1797 5.60742C13.1797 5.93102 13.442 6.19336 13.7656 6.19336C13.7886 6.19336 13.8073 6.21207 13.8073 6.23504C13.8073 6.55863 14.0696 6.82098 14.3932 6.82098C14.7168 6.82098 14.9791 6.55863 14.9791 6.23504C14.9792 5.5659 14.4348 5.02148 13.7656 5.02148Z" fill="#347357"/>
<path d="M13.7656 2.50977C13.442 2.50977 13.1797 2.77211 13.1797 3.0957C13.1797 3.4193 13.442 3.68164 13.7656 3.68164C15.1728 3.68164 16.3177 4.82652 16.3177 6.23371C16.3177 6.55731 16.58 6.81965 16.9036 6.81965C17.2272 6.81965 17.4896 6.55731 17.4896 6.23371C17.4896 4.18031 15.819 2.50977 13.7656 2.50977Z" fill="#347357"/>
<path d="M13.7656 0C13.442 0 13.1797 0.262344 13.1797 0.585938C13.1797 0.909531 13.442 1.17188 13.7656 1.17188C16.5571 1.17188 18.8281 3.44289 18.8281 6.23438C18.8281 6.55797 19.0905 6.82031 19.4141 6.82031C19.7377 6.82031 20 6.55797 20 6.23438C20 2.79672 17.2033 0 13.7656 0Z" fill="#347357"/>
<path d="M14.393 6.82059C14.7166 6.82059 14.979 6.55824 14.979 6.23465C14.979 5.90008 14.8429 5.59668 14.6232 5.37695L13.7949 6.20519C13.8025 6.21273 13.8071 6.22316 13.8071 6.23465C13.8071 6.55824 14.0695 6.82059 14.393 6.82059Z" fill="#347357"/>
<path d="M16.9036 6.81949C17.2272 6.81949 17.4895 6.55715 17.4895 6.23355C17.4895 5.20688 17.0719 4.27586 16.3976 3.60156L15.5693 4.4298C16.0314 4.89191 16.3177 5.52996 16.3177 6.23355C16.3177 6.55715 16.58 6.81949 16.9036 6.81949Z" fill="#347357"/>
<path d="M18.8282 6.23445C18.8282 6.55805 19.0905 6.82039 19.4141 6.82039C19.7377 6.82039 20 6.55805 20 6.23445C20 4.51563 19.3009 2.95703 18.172 1.82812L17.3438 2.65637C18.2604 3.57309 18.8282 4.83871 18.8282 6.23445Z" fill="#347357"/>
<path d="M8.74512 9.72852H3.09668C2.77309 9.72852 2.51074 9.99086 2.51074 10.3145V11.5696C2.51074 12.7579 3.47742 13.7246 4.66566 13.7246H7.17613C8.36438 13.7246 9.33106 12.7579 9.33106 11.5696V10.3145C9.33106 9.99086 9.06871 9.72852 8.74512 9.72852Z" fill="white"/>
<path d="M5.9209 13.7246H7.17613C8.36438 13.7246 9.33105 12.7579 9.33105 11.5696V10.3145C9.33105 9.99086 9.06871 9.72852 8.74512 9.72852H5.9209V13.7246Z" fill="white"/>
<path d="M3.9873 8.91698C3.9873 9.49265 4.21152 10.0338 4.61863 10.4407L5.50602 11.3284C5.7348 11.5572 6.10582 11.5572 6.33465 11.3284L7.22227 10.4405C7.62914 10.0338 7.85336 9.49265 7.85336 8.91698C7.85336 8.34132 7.62914 7.80019 7.22227 7.39347L6.33465 6.50558C6.10586 6.27679 5.73484 6.27679 5.50602 6.50558L4.61863 7.39323C4.21152 7.80019 3.9873 8.34132 3.9873 8.91698Z" fill="white"/>
<path d="M6.3352 11.2698L7.22281 10.3819C7.62969 9.9752 7.85391 9.43406 7.85391 8.8584C7.85391 8.28273 7.62969 7.7416 7.22281 7.33488L6.3352 6.44699C6.22078 6.33258 6.07082 6.27539 5.9209 6.27539V11.4414C6.07082 11.4414 6.22078 11.3842 6.3352 11.2698Z" fill="white"/>
<path d="M8.74512 16.3174H5.9209V17.4893H8.74512C9.06871 17.4893 9.33105 17.2269 9.33105 16.9033C9.33105 16.5797 9.06871 16.3174 8.74512 16.3174Z" fill="white"/>
</svg>
