<svg width="20" height="20" viewBox="0 0 20 20" fill="none" xmlns="http://www.w3.org/2000/svg">
<g clip-path="url(#clip0_522_5593)">
<path d="M8.7448 0H3.09637C1.38629 0 0 1.3834 0 3.09637V16.9037C0 18.6166 1.38629 20 3.09637 20H8.7448C10.4578 20 11.8412 18.6135 11.8412 16.9036V3.09637C11.8412 1.38652 10.4577 0 8.7448 0Z" fill="#357357"/>
<path d="M11.841 16.9036V3.09637C11.841 1.38652 10.4576 0 8.74463 0H5.92041V20H8.74463C10.4576 20 11.841 18.6135 11.841 16.9036Z" fill="#357357"/>
<path d="M8.7448 1.17188H3.09637C2.03344 1.17188 1.17188 2.03168 1.17188 3.09637V16.9037C1.17188 17.9683 2.03344 18.8281 3.09637 18.8281H8.7448C9.81144 18.8281 10.6693 17.9645 10.6693 16.9036V3.09637C10.6693 2.03555 9.81141 1.17188 8.7448 1.17188Z" fill="#357357"/>
<path d="M10.6691 16.9036V3.09637C10.6691 2.03555 9.81123 1.17188 8.74463 1.17188H5.92041V18.8281H8.74463C9.81123 18.8281 10.6691 17.9645 10.6691 16.9036Z" fill="#357357"/>
<path d="M6.86182 3.68237H4.979C4.65541 3.68237 4.39307 3.42003 4.39307 3.09644C4.39307 2.77284 4.65541 2.5105 4.979 2.5105H6.86182C7.18541 2.5105 7.44775 2.77284 7.44775 3.09644C7.44775 3.42003 7.18541 3.68237 6.86182 3.68237Z" fill="#C6D8D0"/>
<path d="M7.44775 3.09644C7.44775 2.77284 7.18541 2.5105 6.86182 2.5105H5.92041V3.68237H6.86182C7.18541 3.68237 7.44775 3.42003 7.44775 3.09644Z" fill="#C6D8D0"/>
<path d="M8.74463 17.4895H3.09619C2.7726 17.4895 2.51025 17.2272 2.51025 16.9036C2.51025 16.58 2.7726 16.3176 3.09619 16.3176H8.74463C9.06822 16.3176 9.33057 16.58 9.33057 16.9036C9.33057 17.2272 9.06822 17.4895 8.74463 17.4895Z" fill="#C6D8D0"/>
<path d="M13.7656 5.02075C13.442 5.02075 13.1797 5.2831 13.1797 5.60669C13.1797 5.93028 13.442 6.19263 13.7656 6.19263C13.7886 6.19263 13.8073 6.21134 13.8073 6.23431C13.8073 6.5579 14.0696 6.82024 14.3932 6.82024C14.7168 6.82024 14.9791 6.5579 14.9791 6.23431C14.9792 5.56517 14.4348 5.02075 13.7656 5.02075Z" fill="#357357"/>
<path d="M13.7656 2.5105C13.442 2.5105 13.1797 2.77284 13.1797 3.09644C13.1797 3.42003 13.442 3.68237 13.7656 3.68237C15.1728 3.68237 16.3177 4.82726 16.3177 6.23444C16.3177 6.55804 16.58 6.82038 16.9036 6.82038C17.2272 6.82038 17.4896 6.55804 17.4896 6.23444C17.4896 4.18105 15.819 2.5105 13.7656 2.5105Z" fill="#357357"/>
<path d="M13.7656 0C13.442 0 13.1797 0.262344 13.1797 0.585938C13.1797 0.909531 13.442 1.17188 13.7656 1.17188C16.5571 1.17188 18.8281 3.44289 18.8281 6.23438C18.8281 6.55797 19.0905 6.82031 19.4141 6.82031C19.7377 6.82031 20 6.55797 20 6.23438C20 2.79672 17.2033 0 13.7656 0Z" fill="#357357"/>
<path d="M14.393 6.82034C14.7166 6.82034 14.979 6.558 14.979 6.2344C14.979 5.89983 14.8429 5.59644 14.6232 5.37671L13.7949 6.20495C13.8025 6.21249 13.8071 6.22292 13.8071 6.2344C13.8071 6.558 14.0695 6.82034 14.393 6.82034Z" fill="#357357"/>
<path d="M16.9036 6.82047C17.2272 6.82047 17.4895 6.55813 17.4895 6.23453C17.4895 5.20785 17.0719 4.27684 16.3976 3.60254L15.5693 4.43078C16.0314 4.89289 16.3177 5.53094 16.3177 6.23453C16.3177 6.55813 16.58 6.82047 16.9036 6.82047Z" fill="#357357"/>
<path d="M18.8282 6.23445C18.8282 6.55805 19.0905 6.82039 19.4141 6.82039C19.7377 6.82039 20 6.55805 20 6.23445C20 4.51563 19.3009 2.95703 18.172 1.82812L17.3438 2.65637C18.2604 3.57309 18.8282 4.83871 18.8282 6.23445Z" fill="#357357"/>
<path d="M8.74463 9.72778H3.09619C2.7726 9.72778 2.51025 9.99013 2.51025 10.3137V11.5689C2.51025 12.7572 3.47693 13.7239 4.66518 13.7239H7.17565C8.36389 13.7239 9.33057 12.7572 9.33057 11.5689V10.3137C9.33057 9.99013 9.06822 9.72778 8.74463 9.72778Z" fill="#C6D8D0"/>
<path d="M5.92041 13.7239H7.17564C8.36389 13.7239 9.33057 12.7572 9.33057 11.5689V10.3137C9.33057 9.99013 9.06822 9.72778 8.74463 9.72778H5.92041V13.7239Z" fill="#C6D8D0"/>
<path d="M3.9873 8.85912C3.9873 9.43479 4.21152 9.97592 4.61863 10.3829L5.50602 11.2705C5.7348 11.4993 6.10582 11.4993 6.33465 11.2705L7.22227 10.3826C7.62914 9.97592 7.85336 9.43479 7.85336 8.85912C7.85336 8.28346 7.62914 7.74232 7.22227 7.33561L6.33465 6.44771C6.10586 6.21893 5.73484 6.21893 5.50602 6.44771L4.61863 7.33537C4.21152 7.74232 3.9873 8.28346 3.9873 8.85912Z" fill="#C6D8D0"/>
<path d="M6.33471 11.2705L7.22232 10.3826C7.6292 9.97593 7.85342 9.43479 7.85342 8.85913C7.85342 8.28347 7.6292 7.74233 7.22232 7.33561L6.33471 6.44772C6.22029 6.33331 6.07033 6.27612 5.92041 6.27612V11.4421C6.07033 11.4421 6.22029 11.385 6.33471 11.2705Z" fill="#C6D8D0"/>
<path d="M8.74463 16.3176H5.92041V17.4895H8.74463C9.06822 17.4895 9.33057 17.2272 9.33057 16.9036C9.33057 16.58 9.06822 16.3176 8.74463 16.3176Z" fill="#C6D8D0"/>
</g>
<defs>
<clipPath id="clip0_522_5593">
<rect width="20" height="20" fill="white"/>
</clipPath>
</defs>
</svg>
