<svg width="47" height="48" viewBox="0 0 47 48" fill="none" xmlns="http://www.w3.org/2000/svg">
<path d="M33.7812 42.5872H32.6797V37.1711C32.6797 36.4107 32.0632 35.7942 31.3027 35.7942H15.6973C14.9368 35.7942 14.3203 36.4107 14.3203 37.1711V42.5872H13.2188C12.4583 42.5872 11.8418 43.2037 11.8418 43.9641C11.8418 44.7246 12.4583 45.3411 13.2188 45.3411H33.7812C34.5417 45.3411 35.1582 44.7246 35.1582 43.9641C35.1582 43.2037 34.5417 42.5872 33.7812 42.5872Z" fill="#444956"/>
<path d="M33.7808 42.5872H32.6792V37.1711C32.6792 36.4107 32.0627 35.7942 31.3023 35.7942H23.5107V45.3411H33.7808C34.5412 45.3411 35.1577 44.7246 35.1577 43.9641C35.1577 43.2037 34.5412 42.5872 33.7808 42.5872Z" fill="#000032"/>
<path d="M42.8691 38.5481H4.13086C1.8531 38.5481 0 36.695 0 34.4173V6.78955C0 4.51179 1.8531 2.65869 4.13086 2.65869H42.8691C45.1469 2.65869 47 4.51179 47 6.78955V34.4174C47 36.6951 45.1469 38.5481 42.8691 38.5481Z" fill="#2B6049"/>
<path d="M42.8687 2.65869H23.5107V38.5482H42.8687C45.1464 38.5482 46.9995 36.6951 46.9995 34.4174V6.78955C46.9995 4.5117 45.1464 2.65869 42.8687 2.65869Z" fill="#234D3A"/>
<path fill-rule="evenodd" clip-rule="evenodd" d="M44.2461 30.1962V6.78955C44.2461 6.0303 43.6284 5.4126 42.8691 5.4126H4.13086C3.37161 5.4126 2.75391 6.0303 2.75391 6.78955V30.1962H44.2461Z" fill="#F0F7FF"/>
<path fill-rule="evenodd" clip-rule="evenodd" d="M42.8687 5.4126H23.5107V30.1962H44.2456V6.78955C44.2456 6.03021 43.6279 5.4126 42.8687 5.4126Z" fill="#DFE7F4"/>
<path d="M13.7916 21.075C13.6049 21.075 13.4616 20.995 13.3616 20.835C13.2616 20.675 13.2516 20.505 13.3316 20.325L16.1416 13.615C16.2416 13.3816 16.4049 13.265 16.6316 13.265C16.8716 13.265 17.0349 13.3816 17.1216 13.615L19.9416 20.345C20.0149 20.5316 20.0016 20.7016 19.9016 20.855C19.8082 21.0016 19.6649 21.075 19.4716 21.075C19.3716 21.075 19.2749 21.0483 19.1816 20.995C19.0949 20.935 19.0316 20.855 18.9916 20.755L16.5116 14.595H16.7916L14.2716 20.755C14.2249 20.8616 14.1549 20.9416 14.0616 20.995C13.9749 21.0483 13.8849 21.075 13.7916 21.075ZM14.3216 19.355L14.7216 18.495H18.6416L19.0416 19.355H14.3216ZM23.3175 21.115C22.7975 21.115 22.3275 20.995 21.9075 20.755C21.4942 20.5083 21.1642 20.175 20.9175 19.755C20.6775 19.335 20.5575 18.8616 20.5575 18.335C20.5575 17.8083 20.6675 17.3383 20.8875 16.925C21.1142 16.505 21.4208 16.175 21.8075 15.935C22.1942 15.6883 22.6308 15.565 23.1175 15.565C23.5108 15.565 23.8742 15.6483 24.2075 15.815C24.5408 15.975 24.8208 16.195 25.0475 16.475V13.775C25.0475 13.6216 25.0942 13.4983 25.1875 13.405C25.2875 13.3116 25.4108 13.265 25.5575 13.265C25.7108 13.265 25.8342 13.3116 25.9275 13.405C26.0208 13.4983 26.0675 13.6216 26.0675 13.775V18.335C26.0675 18.8616 25.9442 19.335 25.6975 19.755C25.4575 20.175 25.1308 20.5083 24.7175 20.755C24.3042 20.995 23.8375 21.115 23.3175 21.115ZM23.3175 20.215C23.6575 20.215 23.9608 20.135 24.2275 19.975C24.4942 19.8083 24.7042 19.5816 24.8575 19.295C25.0108 19.0083 25.0875 18.6883 25.0875 18.335C25.0875 17.975 25.0108 17.655 24.8575 17.375C24.7042 17.095 24.4942 16.875 24.2275 16.715C23.9608 16.5483 23.6575 16.465 23.3175 16.465C22.9842 16.465 22.6808 16.5483 22.4075 16.715C22.1408 16.875 21.9275 17.095 21.7675 17.375C21.6142 17.655 21.5375 17.975 21.5375 18.335C21.5375 18.6883 21.6142 19.0083 21.7675 19.295C21.9275 19.5816 22.1408 19.8083 22.4075 19.975C22.6808 20.135 22.9842 20.215 23.3175 20.215ZM29.8588 21.115C29.3921 21.115 28.9588 21.045 28.5588 20.905C28.1654 20.7583 27.8588 20.575 27.6388 20.355C27.5388 20.2483 27.4954 20.1283 27.5088 19.995C27.5288 19.855 27.5954 19.7416 27.7088 19.655C27.8421 19.5483 27.9721 19.505 28.0988 19.525C28.2321 19.5383 28.3454 19.595 28.4387 19.695C28.5521 19.8216 28.7321 19.9416 28.9788 20.055C29.2321 20.1616 29.5121 20.215 29.8188 20.215C30.2054 20.215 30.4988 20.1516 30.6988 20.025C30.9054 19.8983 31.0121 19.735 31.0188 19.535C31.0254 19.335 30.9288 19.1616 30.7288 19.015C30.5354 18.8683 30.1788 18.7483 29.6588 18.655C28.9854 18.5216 28.4954 18.3216 28.1888 18.055C27.8888 17.7883 27.7388 17.4616 27.7388 17.075C27.7388 16.735 27.8388 16.455 28.0388 16.235C28.2388 16.0083 28.4954 15.8416 28.8088 15.735C29.1221 15.6216 29.4488 15.565 29.7888 15.565C30.2288 15.565 30.6188 15.635 30.9588 15.775C31.2988 15.915 31.5688 16.1083 31.7688 16.355C31.8621 16.4616 31.9054 16.575 31.8988 16.695C31.8921 16.8083 31.8354 16.905 31.7288 16.985C31.6221 17.0583 31.4954 17.0816 31.3488 17.055C31.2021 17.0283 31.0788 16.9683 30.9788 16.875C30.8121 16.715 30.6321 16.605 30.4388 16.545C30.2454 16.485 30.0221 16.455 29.7688 16.455C29.4754 16.455 29.2254 16.505 29.0188 16.605C28.8188 16.705 28.7188 16.8516 28.7188 17.045C28.7188 17.165 28.7488 17.275 28.8088 17.375C28.8754 17.4683 29.0021 17.555 29.1888 17.635C29.3754 17.7083 29.6488 17.7816 30.0088 17.855C30.5088 17.955 30.9021 18.0816 31.1888 18.235C31.4821 18.3883 31.6921 18.5683 31.8188 18.775C31.9454 18.975 32.0088 19.2083 32.0088 19.475C32.0088 19.7816 31.9254 20.0583 31.7588 20.305C31.5988 20.5516 31.3588 20.7483 31.0388 20.895C30.7254 21.0416 30.3321 21.115 29.8588 21.115Z" fill="url(#paint0_linear_6669_24333)"/>
<path fill-rule="evenodd" clip-rule="evenodd" d="M35.25 8.21094C35.4528 8.21094 35.6172 8.37533 35.6172 8.57812V11.8828H38.9219C39.1247 11.8828 39.2891 12.0472 39.2891 12.25C39.2891 12.4528 39.1247 12.6172 38.9219 12.6172H35.6172V15.9219C35.6172 16.1247 35.4528 16.2891 35.25 16.2891C35.0472 16.2891 34.8828 16.1247 34.8828 15.9219V12.6172H31.5781C31.3753 12.6172 31.2109 12.4528 31.2109 12.25C31.2109 12.0472 31.3753 11.8828 31.5781 11.8828H34.8828V8.57812C34.8828 8.37533 35.0472 8.21094 35.25 8.21094Z" fill="url(#paint1_linear_6669_24333)"/>
<defs>
<linearGradient id="paint0_linear_6669_24333" x1="32.75" y1="18.075" x2="12.75" y2="18.075" gradientUnits="userSpaceOnUse">
<stop offset="0.522088" stop-color="#000032"/>
<stop offset="0.524147" stop-color="#444956"/>
</linearGradient>
<linearGradient id="paint1_linear_6669_24333" x1="39.2891" y1="12.25" x2="31.2109" y2="12.25" gradientUnits="userSpaceOnUse">
<stop offset="0.505" stop-color="#FACC15"/>
<stop offset="0.5051" stop-color="#FDE047"/>
</linearGradient>
</defs>
</svg>
