<svg width="20" height="20" viewBox="0 0 20 20" fill="none" xmlns="http://www.w3.org/2000/svg">
<path d="M14.1667 5.28199C14.1667 7.2303 11.6285 10.7023 10.5139 12.1332C10.2465 12.4757 9.75 12.4757 9.48611 12.1332C8.37153 10.7023 5.83333 7.2303 5.83333 5.28199C5.83333 2.91619 7.69792 1 10 1C12.3021 1 14.1667 2.91619 14.1667 5.28199ZM14.4444 8.15092C14.566 7.90471 14.6771 7.6585 14.7778 7.41585C14.7951 7.37303 14.8125 7.32664 14.8299 7.28382L18.8576 5.62812C19.4063 5.40331 20 5.81724 20 6.42385V16.0869C20 16.4366 19.7917 16.7506 19.4757 16.8826L14.4444 18.9487V8.15092ZM4.77778 5.93499C4.86111 6.43813 5.02778 6.94483 5.22222 7.41585C5.32292 7.6585 5.43403 7.90471 5.55556 8.15092V17.1217L1.14236 18.938C0.59375 19.1628 0 18.7489 0 18.1422V8.47921C0 8.12951 0.208333 7.8155 0.524306 7.68347L4.78125 5.93499H4.77778ZM11.3819 12.8468C11.8646 12.226 12.6215 11.2161 13.3333 10.0992V18.9951L6.66667 17.0361V10.0992C7.37847 11.2161 8.13542 12.226 8.61806 12.8468C9.32986 13.7603 10.6701 13.7603 11.3819 12.8468ZM10 6.42385C10.3684 6.42385 10.7216 6.27348 10.9821 6.0058C11.2426 5.73812 11.3889 5.37508 11.3889 4.99652C11.3889 4.61797 11.2426 4.25493 10.9821 3.98725C10.7216 3.71957 10.3684 3.56919 10 3.56919C9.63164 3.56919 9.27837 3.71957 9.01791 3.98725C8.75744 4.25493 8.61111 4.61797 8.61111 4.99652C8.61111 5.37508 8.75744 5.73812 9.01791 6.0058C9.27837 6.27348 9.63164 6.42385 10 6.42385Z" fill="#347357"/>
</svg>
