<svg width="56" height="56" viewBox="0 0 56 56" fill="none" xmlns="http://www.w3.org/2000/svg">
<g id="mage:robot-screen">
<g id="Group">
<path id="Vector" d="M34.3132 10.0636H21.6852C20.1587 10.063 18.647 10.3632 17.2365 10.947C15.826 11.5308 14.5443 12.3869 13.4648 13.4662C12.3853 14.5455 11.529 15.827 10.9448 17.2374C10.3607 18.6477 10.0602 20.1594 10.0605 21.6859V34.3139C10.0599 35.8407 10.3602 37.3526 10.9442 38.7632C11.5282 40.1739 12.3844 41.4556 13.464 42.5352C14.5435 43.6148 15.8253 44.471 17.2359 45.055C18.6466 45.639 20.1585 45.9392 21.6852 45.9386H34.3132C35.84 45.9392 37.3519 45.639 38.7625 45.055C40.1732 44.471 41.4549 43.6148 42.5345 42.5352C43.614 41.4556 44.4703 40.1739 45.0543 38.7632C45.6382 37.3526 45.9385 35.8407 45.9379 34.3139V21.6859C45.9385 20.1592 45.6382 18.6473 45.0543 17.2367C44.4703 15.826 43.614 14.5443 42.5345 13.4647C41.4549 12.3851 40.1732 11.5289 38.7625 10.9449C37.3519 10.3609 35.84 10.0607 34.3132 10.0613V10.0636Z" stroke="#347357" stroke-width="2"/>
<path id="Vector_2" d="M45.747 36.372H49.5247C50.159 36.372 50.7673 36.1201 51.2158 35.6715C51.6644 35.223 51.9163 34.6147 51.9163 33.9804V22.022C51.9163 21.3877 51.6644 20.7794 51.2158 20.3309C50.7673 19.8823 50.159 19.6304 49.5247 19.6304H45.7447M10.2547 36.372H6.47467C6.1606 36.372 5.84959 36.3102 5.55942 36.19C5.26925 36.0698 5.0056 35.8936 4.78351 35.6715C4.56142 35.4494 4.38525 35.1858 4.26506 34.8956C4.14487 34.6055 4.08301 34.2944 4.08301 33.9804V22.022C4.08301 21.3877 4.33499 20.7794 4.78351 20.3309C5.23204 19.8823 5.84037 19.6304 6.47467 19.6304H10.2547" stroke="#347357" stroke-width="2"/>
<path id="Vector_3" d="M6.45117 19.6304V10.0637M49.5245 19.6304L49.5012 10.0637" stroke="#347357" stroke-width="2" stroke-linecap="round" stroke-linejoin="round"/>
<path id="Vector_4" d="M31.5159 17.9758H24.4833C22.7571 17.9764 21.1019 18.6626 19.8815 19.8834C18.6611 21.1042 17.9756 22.7597 17.9756 24.4858V31.5162C17.9762 33.2423 18.6624 34.8976 19.8831 36.1179C21.1039 37.3383 22.7594 38.0238 24.4856 38.0238H31.5159C33.2421 38.0232 34.8973 37.3371 36.1177 36.1163C37.338 34.8955 38.0236 33.24 38.0236 31.5138V24.4835C38.023 22.7573 37.3368 21.1021 36.116 19.8817C34.8952 18.6614 33.2397 17.9758 31.5136 17.9758H31.5159Z" stroke="#347357" stroke-width="2"/>
</g>
<path id="Vector_5" d="M25.2496 24.5376C25.2756 23.935 25.524 23.3661 25.9433 22.9493C26.3625 22.5325 26.9201 22.2999 27.5 22.3C28.0968 22.3 28.6691 22.5465 29.091 22.9854C29.513 23.4242 29.75 24.0194 29.75 24.64C29.75 25.3035 29.601 25.6904 29.412 25.9738C29.228 26.2494 28.994 26.4548 28.6765 26.7325L28.5335 26.8578C28.161 27.1864 27.7265 27.5962 27.3995 28.2244C27.07 28.8572 26.875 29.6596 26.875 30.75C26.875 30.9224 26.9409 31.0877 27.0581 31.2096C27.1753 31.3315 27.3343 31.4 27.5 31.4C27.6658 31.4 27.8248 31.3315 27.942 31.2096C28.0592 31.0877 28.125 30.9224 28.125 30.75C28.125 29.8254 28.289 29.2462 28.499 28.8432C28.711 28.436 28.9955 28.1547 29.3415 27.85L29.471 27.7371C29.779 27.4693 30.1525 27.1448 30.4395 26.7148C30.7895 26.1896 31 25.5365 31 24.64C31 23.6746 30.6313 22.7488 29.9749 22.0661C29.3185 21.3835 28.4283 21 27.5 21C26.5979 20.9999 25.7305 21.3618 25.0786 22.0104C24.4267 22.6589 24.0405 23.5441 24.0006 24.4814C23.9934 24.6537 24.0524 24.8218 24.1644 24.9489C24.2765 25.0759 24.4325 25.1515 24.5981 25.159C24.7637 25.1664 24.9254 25.1051 25.0476 24.9886C25.1697 24.8721 25.2424 24.7098 25.2496 24.5376ZM27.5 34C27.699 34 27.8897 33.9178 28.0304 33.7715C28.171 33.6253 28.25 33.4269 28.25 33.22C28.25 33.0131 28.171 32.8147 28.0304 32.6685C27.8897 32.5222 27.699 32.44 27.5 32.44C27.3011 32.44 27.1104 32.5222 26.9697 32.6685C26.8291 32.8147 26.7501 33.0131 26.7501 33.22C26.7501 33.4269 26.8291 33.6253 26.9697 33.7715C27.1104 33.9178 27.3011 34 27.5 34Z" fill="#347357"/>
</g>
</svg>
