<svg width="20" height="20" viewBox="0 0 20 20" fill="none" xmlns="http://www.w3.org/2000/svg">
<path fill-rule="evenodd" clip-rule="evenodd" d="M11.0001 1.11409e-07C11.5047 -0.00017731 11.9908 0.211563 12.3608 0.592774C12.7308 0.973986 12.9575 1.49649 12.9953 2.05556L13.0003 2.22222V17.7778H14.0004V7.22222C14.0004 7.09219 14.0414 6.96627 14.1163 6.86638C14.1913 6.76649 14.2954 6.69896 14.4105 6.67556L14.5005 6.66667H16.0007C16.5053 6.66649 16.9913 6.87823 17.3614 7.25944C17.7314 7.64065 17.958 8.16316 17.9959 8.72222L18.0009 8.88889V17.7778H19.001C19.2559 17.7781 19.5011 17.8865 19.6864 18.0809C19.8718 18.2754 19.9833 18.5411 19.9983 18.8238C20.0132 19.1065 19.9304 19.3849 19.7668 19.602C19.6032 19.8192 19.3711 19.9588 19.118 19.9922L19.001 20H0.999003C0.744095 19.9997 0.498915 19.8912 0.313559 19.6968C0.128202 19.5024 0.016659 19.2367 0.00172023 18.954C-0.0132185 18.6713 0.0695745 18.3929 0.233183 18.1757C0.396791 17.9586 0.628866 17.819 0.88199 17.7856L0.999003 17.7778H1.99911V2.22222C1.99895 1.66158 2.18954 1.12159 2.53267 0.710502C2.8758 0.299412 3.34611 0.0476038 3.84932 0.00555579L3.99934 1.11409e-07H11.0001ZM8.99989 13.3333H5.99956V15.5556H8.99989V13.3333ZM8.99989 8.88889H5.99956V11.1111H8.99989V8.88889ZM8.99989 4.44444H5.99956V6.66667H8.99989V4.44444Z" fill="#347357"/>
</svg>
