<svg width="32" height="44" viewBox="0 0 32 44" fill="none" xmlns="http://www.w3.org/2000/svg">
<path d="M30.1107 39.6985L20.7527 20.5903L15.5134 23.1562L22.654 37.7367L30.1107 39.6985Z" fill="#363636"/>
<path d="M21.3267 43.9997L11.9688 24.8916L17.2081 22.3257L24.3487 36.9062L21.3267 43.9997Z" fill="#363636"/>
<path d="M13.2022 24.288L22.0319 42.3174L22.3941 41.4964L13.8186 23.9861L13.2022 24.288Z" fill="#DEDEDE"/>
<path d="M19.519 21.1937L28.3487 39.2232L27.478 39.0059L18.9026 21.4956L19.519 21.1937Z" fill="#DEDEDE"/>
<path d="M2.01506 39.6985L11.373 20.5903L16.6124 23.1562L9.47174 37.7367L2.01506 39.6985Z" fill="#363636"/>
<path d="M10.7988 44L20.1567 24.8918L14.9174 22.3259L7.77678 36.9064L10.7988 44Z" fill="#363636"/>
<path d="M18.923 24.288L10.0933 42.3174L9.73119 41.4964L18.3066 23.9861L18.923 24.288Z" fill="#DEDEDE"/>
<path d="M12.6065 21.194L3.7768 39.2234L4.64745 39.0061L13.2229 21.4958L12.6065 21.194Z" fill="#DEDEDE"/>
<path d="M3.32651 7.40056L3.90388 9.32512C3.95277 9.48808 3.87488 9.66225 3.72084 9.73446L1.59627 10.7304C1.40913 10.8181 1.34142 11.0501 1.452 11.2247L2.71375 13.2169C2.80542 13.3617 2.77629 13.5518 2.6455 13.6625L0.952669 15.0949C0.790666 15.232 0.790666 15.4818 0.952669 15.6188L2.62362 17.0327C2.76357 17.1511 2.78573 17.3586 2.67396 17.5039L1.40537 19.1531C1.27589 19.3214 1.32883 19.5658 1.51637 19.6654L3.64934 20.7985C3.79621 20.8766 3.866 21.0487 3.81494 21.207L3.16974 23.2071C3.1046 23.409 3.23648 23.6211 3.44641 23.652L5.65987 23.9775C5.83221 24.0028 5.95823 24.1533 5.95295 24.3274L5.88843 26.4567C5.88209 26.6658 6.06262 26.8318 6.27041 26.8081L8.60264 26.5415C8.76381 26.5231 8.91587 26.62 8.96717 26.7739L9.62529 28.7483C9.68649 28.9319 9.8873 29.0286 10.069 28.962L12.0682 28.229C12.2119 28.1763 12.3731 28.2251 12.4634 28.3487L13.7334 30.0866C13.8472 30.2423 14.0669 30.2737 14.2197 30.1561L15.9528 28.823C16.0805 28.7247 16.2594 28.7286 16.3828 28.8322L18.0228 30.2098C18.1794 30.3413 18.4156 30.3075 18.529 30.1374L19.7138 28.3602C19.8003 28.2304 19.9634 28.1753 20.1109 28.226L22.2577 28.964C22.446 29.0287 22.6496 28.9202 22.7009 28.7279L23.2155 26.798C23.2595 26.6328 23.4186 26.5252 23.5884 26.5458L25.7267 26.805C25.9354 26.8303 26.1176 26.6637 26.111 26.4536L26.0469 24.4032C26.0416 24.2334 26.1614 24.0852 26.3285 24.0548L28.5085 23.6585C28.7036 23.623 28.8281 23.43 28.78 23.2376L28.2483 21.1109C28.2097 20.9566 28.2823 20.796 28.4236 20.7229L30.3387 19.7323C30.5172 19.64 30.5786 19.4147 30.4715 19.2446L29.3643 17.4862C29.2761 17.3461 29.3005 17.1629 29.4224 17.0508L31.0761 15.5293C31.2261 15.3913 31.2235 15.1538 31.0705 15.0191L29.4279 13.5736C29.303 13.4637 29.2749 13.2801 29.3612 13.1379L30.4896 11.2794C30.589 11.1156 30.5351 10.9021 30.3698 10.8052L28.4151 9.65935C28.2786 9.57931 28.2145 9.41628 28.26 9.26469L28.8339 7.35154C28.8963 7.14366 28.7524 6.93082 28.5363 6.91117L26.4356 6.7202C26.2588 6.70413 26.1235 6.55592 26.1235 6.37843V4.06204C26.1235 3.86127 25.9519 3.70338 25.7518 3.72005L23.321 3.92262C23.1555 3.93642 23.0038 3.8296 22.961 3.66905L22.4472 1.74243C22.3946 1.54506 22.1822 1.43708 21.9917 1.51082L19.9412 2.30459C19.7933 2.36184 19.6254 2.31029 19.5351 2.1799L18.3574 0.47877C18.243 0.313502 18.0117 0.281516 17.8567 0.409535L16.3836 1.62644C16.2597 1.72882 16.0813 1.73145 15.9544 1.63275L14.1415 0.222716C13.986 0.101764 13.7608 0.136283 13.6486 0.298263L12.4588 2.01693C12.3713 2.1433 12.2104 2.19609 12.0651 2.14612L9.91078 1.40558C9.72364 1.34125 9.52103 1.44809 9.4684 1.63885L8.94865 3.52296C8.90759 3.67179 8.77222 3.77487 8.61784 3.77487H6.30538C6.11585 3.77487 5.96221 3.92852 5.96221 4.11804V6.23543C5.96221 6.40057 5.84459 6.54229 5.68228 6.57272L3.59197 6.96466C3.39155 7.00223 3.26792 7.20525 3.32651 7.40056Z" fill="#7C7C7C"/>
<circle cx="16.0869" cy="15.271" r="12.011" fill="#E0E0E0"/>
<g filter="url(#filter0_i_7351_8138)">
<circle cx="16.0851" cy="15.2709" r="8.75085" fill="#EAEAEA"/>
</g>
<circle cx="16.0851" cy="15.2709" r="8.57926" stroke="#8D8D8D" stroke-width="0.34317"/>
<path d="M10.2725 7.99247L10.6746 6.61382C10.7236 6.44574 10.9633 6.4504 11.0058 6.62025L11.3482 7.98992C11.36 8.03731 11.3915 8.0774 11.4347 8.10015L12.6723 8.75148C12.8011 8.81927 12.7923 9.00656 12.6577 9.06198L11.6132 9.49204C11.5658 9.51156 11.5297 9.55125 11.5146 9.60024L11.016 11.2205C10.9663 11.382 10.7377 11.382 10.688 11.2205L10.1907 9.60405C10.1749 9.55289 10.1362 9.51201 10.086 9.4935L8.9078 9.05943C8.76677 9.00747 8.75595 8.81217 8.89038 8.74495L10.1845 8.0979C10.2272 8.07654 10.2591 8.03833 10.2725 7.99247Z" fill="white"/>
<path d="M12.2284 19.8779V18.3583L15.779 15.0708C16.0809 14.7786 16.3342 14.5156 16.5388 14.2818C16.7466 14.048 16.904 13.8191 17.0112 13.595C17.1183 13.3678 17.1719 13.1226 17.1719 12.8596C17.1719 12.5674 17.1054 12.3157 16.9722 12.1047C16.8391 11.8904 16.6573 11.7264 16.4267 11.6128C16.1962 11.4959 15.9348 11.4374 15.6426 11.4374C15.3374 11.4374 15.0711 11.4991 14.8438 11.6225C14.6166 11.7459 14.4412 11.9229 14.3178 12.1534C14.1945 12.3839 14.1328 12.6583 14.1328 12.9765H12.131C12.131 12.3239 12.2787 11.7573 12.5742 11.2767C12.8697 10.7962 13.2837 10.4244 13.8162 10.1614C14.3487 9.89838 14.9624 9.76688 15.6572 9.76688C16.3715 9.76688 16.9933 9.89351 17.5226 10.1468C18.0551 10.3968 18.4691 10.7442 18.7646 11.189C19.06 11.6339 19.2078 12.1437 19.2078 12.7184C19.2078 13.095 19.1331 13.4668 18.9837 13.8337C18.8376 14.2006 18.5762 14.6081 18.1996 15.0562C17.8229 15.501 17.2921 16.0351 16.607 16.6586L15.1507 18.0856V18.1538H19.3393V19.8779H12.2284Z" fill="#374151"/>
<defs>
<filter id="filter0_i_7351_8138" x="7.33423" y="6.52002" width="17.5017" height="17.5017" filterUnits="userSpaceOnUse" color-interpolation-filters="sRGB">
<feFlood flood-opacity="0" result="BackgroundImageFix"/>
<feBlend mode="normal" in="SourceGraphic" in2="BackgroundImageFix" result="shape"/>
<feColorMatrix in="SourceAlpha" type="matrix" values="0 0 0 0 0 0 0 0 0 0 0 0 0 0 0 0 0 0 127 0" result="hardAlpha"/>
<feOffset dx="-1.54427" dy="-1.54427"/>
<feComposite in2="hardAlpha" operator="arithmetic" k2="-1" k3="1"/>
<feColorMatrix type="matrix" values="0 0 0 0 0.773611 0 0 0 0 0.773611 0 0 0 0 0.773611 0 0 0 1 0"/>
<feBlend mode="normal" in2="shape" result="effect1_innerShadow_7351_8138"/>
</filter>
</defs>
</svg>
