<svg width="12" height="13" viewBox="0 0 12 13" fill="none" xmlns="http://www.w3.org/2000/svg">
<path d="M10.7177 1.79099C10.4676 1.5343 10.0974 1.43867 9.75229 1.53933L1.704 3.87976C1.33985 3.98093 1.08174 4.27134 1.01222 4.64028C0.941186 5.01575 1.18929 5.49239 1.51342 5.69171L4.02995 7.2384C4.28806 7.39695 4.62119 7.35719 4.83478 7.14177L7.71646 4.24215C7.86152 4.09116 8.10162 4.09116 8.24668 4.24215C8.39174 4.38811 8.39174 4.62467 8.24668 4.77567L5.35999 7.67579C5.14591 7.8907 5.10589 8.22541 5.26346 8.48512L6.80108 11.0269C6.98116 11.3289 7.29129 11.5 7.63142 11.5C7.67144 11.5 7.71646 11.5 7.75648 11.495C8.14664 11.4446 8.45676 11.1779 8.57181 10.8004L10.9578 2.7624C11.0628 2.42014 10.9678 2.04768 10.7177 1.79099Z" fill="white"/>
</svg>
