<svg width="56" height="56" viewBox="0 0 56 56" fill="none" xmlns="http://www.w3.org/2000/svg">
<g id="mage:robot-happy">
<g id="Group">
<path id="Vector" d="M34.3132 10.0636H21.6852C20.1587 10.063 18.647 10.3632 17.2365 10.947C15.826 11.5308 14.5443 12.3869 13.4648 13.4662C12.3853 14.5455 11.529 15.827 10.9448 17.2374C10.3607 18.6477 10.0602 20.1594 10.0605 21.6859V34.3139C10.0599 35.8407 10.3602 37.3526 10.9442 38.7632C11.5282 40.1739 12.3844 41.4556 13.464 42.5352C14.5435 43.6148 15.8253 44.471 17.2359 45.055C18.6466 45.639 20.1585 45.9392 21.6852 45.9386H34.3132C35.84 45.9392 37.3519 45.639 38.7625 45.055C40.1732 44.471 41.4549 43.6148 42.5345 42.5352C43.614 41.4556 44.4703 40.1739 45.0543 38.7632C45.6382 37.3526 45.9385 35.8407 45.9379 34.3139V21.6859C45.9385 20.1592 45.6382 18.6473 45.0543 17.2367C44.4703 15.826 43.614 14.5443 42.5345 13.4647C41.4549 12.3851 40.1732 11.5289 38.7625 10.9449C37.3519 10.3609 35.84 10.0607 34.3132 10.0613V10.0636Z" stroke="#347357" stroke-width="2"/>
<path id="Vector_2" d="M45.747 36.372H49.5247C50.159 36.372 50.7673 36.1201 51.2158 35.6715C51.6644 35.223 51.9163 34.6147 51.9163 33.9804V22.022C51.9163 21.3877 51.6644 20.7794 51.2158 20.3309C50.7673 19.8823 50.159 19.6304 49.5247 19.6304H45.7447M10.2547 36.372H6.47467C6.1606 36.372 5.84959 36.3102 5.55942 36.19C5.26925 36.0698 5.0056 35.8936 4.78351 35.6715C4.56142 35.4494 4.38526 35.1858 4.26506 34.8956C4.14487 34.6055 4.08301 34.2944 4.08301 33.9804V22.022C4.08301 21.3877 4.33499 20.7794 4.78351 20.3309C5.23204 19.8823 5.84037 19.6304 6.47467 19.6304H10.2547" stroke="#347357" stroke-width="2"/>
<path id="Vector_3" d="M6.45117 19.6304V10.0637M49.5245 19.6304L49.5012 10.0637M23.2162 35.5531C24.4881 36.8155 26.2074 37.5239 27.9995 37.5239C29.7916 37.5239 31.511 36.8155 32.7828 35.5531M18.3862 25.6084L20.7732 23.2167L23.1648 25.6084M32.7362 25.6084L35.1278 23.2167L37.5172 25.6084" stroke="#347357" stroke-width="2" stroke-linecap="round" stroke-linejoin="round"/>
</g>
</g>
</svg>
