<svg width="20" height="20" viewBox="0 0 20 20" fill="none" xmlns="http://www.w3.org/2000/svg">
<path d="M10.2319 3.09126C10.1699 3.02767 10.0873 2.99219 10.0015 2.99219C9.91565 2.99219 9.83311 3.02767 9.77108 3.09126L2.10026 10.9428C2.06768 10.9762 2.04177 11.0163 2.02408 11.0607C2.00639 11.1052 1.99729 11.153 1.99734 11.2013L1.99609 18.5702C1.99609 18.9491 2.13657 19.3125 2.38662 19.5804C2.63666 19.8483 2.9758 19.9988 3.32942 19.9988H7.33358C7.51039 19.9988 7.67996 19.9236 7.80498 19.7896C7.93001 19.6556 8.00025 19.474 8.00025 19.2845V13.2129C8.00025 13.1182 8.03536 13.0274 8.09788 12.9604C8.16039 12.8934 8.24517 12.8558 8.33358 12.8558H11.6669C11.7553 12.8558 11.8401 12.8934 11.9026 12.9604C11.9651 13.0274 12.0002 13.1182 12.0002 13.2129V19.2845C12.0002 19.474 12.0705 19.6556 12.1955 19.7896C12.3205 19.9236 12.4901 19.9988 12.6669 19.9988H16.6694C17.023 19.9988 17.3622 19.8483 17.6122 19.5804C17.8622 19.3125 18.0027 18.9491 18.0027 18.5702V11.2013C18.0028 11.153 17.9937 11.1052 17.976 11.0607C17.9583 11.0163 17.9324 10.9762 17.8998 10.9428L10.2319 3.09126Z" fill="#347357"/>
<path d="M19.7879 9.47121L16.6712 6.27649V1.42861C16.6712 1.23916 16.601 1.05748 16.476 0.923518C16.3509 0.78956 16.1814 0.714303 16.0046 0.714303H14.0046C13.8278 0.714303 13.6582 0.78956 13.5332 0.923518C13.4081 1.05748 13.3379 1.23916 13.3379 1.42861V2.85721L10.9246 0.384831C10.6987 0.140182 10.3629 0 9.99999 0C9.63833 0 9.30333 0.140182 9.07749 0.385277L0.215015 9.47032C-0.0441508 9.73818 -0.0766507 10.1788 0.159182 10.469C0.218403 10.5423 0.290916 10.6018 0.372306 10.6441C0.453696 10.6864 0.542263 10.7104 0.632614 10.7149C0.722966 10.7193 0.813214 10.704 0.897865 10.6698C0.982516 10.6357 1.0598 10.5835 1.12501 10.5163L9.77083 1.66433C9.83286 1.60074 9.9154 1.56526 10.0012 1.56526C10.0871 1.56526 10.1696 1.60074 10.2317 1.66433L18.8783 10.5163C19.0057 10.6472 19.1763 10.7186 19.3527 10.7149C19.5292 10.7113 19.697 10.6328 19.8196 10.4967C20.0754 10.2127 20.0541 9.74399 19.7879 9.47121Z" fill="#347357"/>
</svg>
