<svg width="32" height="45" viewBox="0 0 32 45" fill="none" xmlns="http://www.w3.org/2000/svg">
<path d="M30.2418 40.0684L20.7966 20.7822L15.5085 23.372L22.7157 38.0884L30.2418 40.0684Z" fill="#301C02"/>
<path d="M21.3754 44.4097L11.9302 25.1235L17.2183 22.5337L24.4255 37.2501L21.3754 44.4097Z" fill="#301C02"/>
<path d="M13.1757 24.5142L22.0877 42.7116L22.4532 41.8829L13.7979 24.2095L13.1757 24.5142Z" fill="#A94C00"/>
<path d="M19.5511 21.3916L28.4631 39.5891L27.5843 39.3698L18.929 21.6963L19.5511 21.3916Z" fill="#A94C00"/>
<path d="M1.8861 40.0684L11.3313 20.7822L16.6195 23.372L9.41228 38.0884L1.8861 40.0684Z" fill="#301C02"/>
<path d="M10.7508 44.41L20.196 25.1238L14.9079 22.534L7.70071 37.2503L10.7508 44.41Z" fill="#301C02"/>
<path d="M18.9522 24.5144L10.0402 42.7119L9.6747 41.8832L18.3301 24.2097L18.9522 24.5144Z" fill="#A94C00"/>
<path d="M12.5768 21.3916L3.66484 39.5891L4.5436 39.3698L13.199 21.6963L12.5768 21.3916Z" fill="#A94C00"/>
<path d="M3.20846 7.46953L3.79121 9.41203C3.84055 9.57651 3.76194 9.7523 3.60646 9.82518L1.46208 10.8304C1.2732 10.9189 1.20486 11.1531 1.31648 11.3293L2.58998 13.3401C2.6825 13.4862 2.6531 13.6781 2.5211 13.7898L0.812488 15.2356C0.648976 15.3739 0.648975 15.6261 0.812488 15.7644L2.49902 17.1915C2.64026 17.311 2.66263 17.5204 2.54982 17.6671L1.26941 19.3316C1.13872 19.5015 1.19216 19.7481 1.38145 19.8487L3.53429 20.9924C3.68253 21.0711 3.75297 21.2448 3.70144 21.4046L3.05022 23.4234C2.98447 23.6272 3.11759 23.8412 3.32947 23.8724L5.56356 24.2009C5.73751 24.2265 5.8647 24.3784 5.85937 24.5541L5.79425 26.7033C5.78785 26.9143 5.97006 27.0819 6.17978 27.0579L8.53376 26.7889C8.69643 26.7703 8.8499 26.8681 8.90168 27.0235L9.56594 29.0162C9.6277 29.2015 9.83039 29.2992 10.0138 29.2319L12.0316 28.4921C12.1766 28.4389 12.3393 28.4882 12.4305 28.6129L13.7123 30.367C13.8272 30.5241 14.0489 30.5559 14.2032 30.4372L15.9525 29.0916C16.0814 28.9924 16.2619 28.9963 16.3864 29.1009L18.0417 30.4913C18.1997 30.6241 18.4381 30.59 18.5526 30.4182L19.7485 28.6245C19.8358 28.4935 20.0004 28.4379 20.1493 28.4891L22.3161 29.2339C22.5061 29.2992 22.7116 29.1897 22.7634 28.9956L23.2828 27.0478C23.3273 26.881 23.4878 26.7724 23.6591 26.7932L25.8174 27.0548C26.028 27.0803 26.2119 26.9122 26.2053 26.7001L26.1406 24.6306C26.1352 24.4592 26.2561 24.3097 26.4248 24.279L28.6251 23.879C28.822 23.8432 28.9477 23.6484 28.8992 23.4542L28.3625 21.3077C28.3236 21.1519 28.3968 20.9898 28.5394 20.916L30.4724 19.9162C30.6526 19.823 30.7145 19.5957 30.6064 19.424L29.4889 17.6492C29.3999 17.5077 29.4245 17.3229 29.5475 17.2097L31.2167 15.674C31.3681 15.5348 31.3654 15.295 31.211 15.1591L29.5531 13.7001C29.427 13.5892 29.3987 13.4038 29.4858 13.2603L30.6247 11.3845C30.7251 11.2192 30.6706 11.0037 30.5038 10.9059L28.5309 9.74938C28.3931 9.66859 28.3284 9.50404 28.3743 9.35104L28.9536 7.42006C29.0165 7.21024 28.8713 6.99541 28.6532 6.97558L26.5329 6.78283C26.3545 6.76661 26.2179 6.61702 26.2179 6.43788V4.0999C26.2179 3.89726 26.0447 3.7379 25.8427 3.75472L23.3893 3.95918C23.2222 3.9731 23.0691 3.86529 23.0259 3.70325L22.5073 1.75867C22.4542 1.55946 22.2399 1.45048 22.0476 1.5249L19.978 2.32607C19.8287 2.38385 19.6592 2.33182 19.5681 2.20021L18.3795 0.483232C18.264 0.316424 18.0305 0.28414 17.8741 0.413352L16.3873 1.6416C16.2622 1.74494 16.0821 1.74758 15.954 1.64797L14.1242 0.224792C13.9673 0.102713 13.74 0.137554 13.6268 0.301042L12.4258 2.03572C12.3375 2.16328 12.1752 2.21656 12.0285 2.16612L9.85408 1.41868C9.66521 1.35375 9.4607 1.46159 9.40759 1.65412L8.88299 3.5558C8.84155 3.70601 8.70491 3.81006 8.54909 3.81006H6.21508C6.02379 3.81006 5.86871 3.96513 5.86871 4.15642V6.29354C5.86871 6.46022 5.75 6.60326 5.58618 6.63398L3.47639 7.02957C3.2741 7.0675 3.14932 7.2724 3.20846 7.46953Z" fill="#85520F"/>
<circle cx="16.0868" cy="15.4132" r="12.1229" fill="#BA8B4E"/>
<g filter="url(#filter0_i_7351_8120)">
<circle cx="16.0846" cy="15.4135" r="8.8324" fill="#DEC29E"/>
</g>
<circle cx="16.0846" cy="15.4135" r="8.65922" stroke="#A57B45" stroke-width="0.346369"/>
<path d="M10.2196 8.06714L10.6254 6.67564C10.6749 6.506 10.9168 6.5107 10.9597 6.68213L11.3053 8.06457C11.3173 8.1124 11.349 8.15286 11.3927 8.17582L12.6417 8.83323C12.7717 8.90165 12.7629 9.09068 12.627 9.14662L11.5728 9.58069C11.525 9.60039 11.4885 9.64045 11.4732 9.6899L10.9701 11.3252C10.9199 11.4882 10.6892 11.4882 10.639 11.3252L10.137 9.69374C10.1211 9.64211 10.0821 9.60084 10.0314 9.58217L8.84217 9.14404C8.69983 9.0916 8.68891 8.89448 8.82459 8.82664L10.1308 8.17355C10.1739 8.15199 10.2061 8.11343 10.2196 8.06714Z" fill="white"/>
<path d="M15.9143 21.0707C15.1802 21.0707 14.5264 20.9446 13.9529 20.6922C13.3826 20.4366 12.932 20.0859 12.601 19.6402C12.2733 19.1913 12.1045 18.6735 12.0947 18.0868H14.238C14.2511 18.3326 14.3314 18.5489 14.4788 18.7357C14.6296 18.9192 14.8295 19.0618 15.0786 19.1634C15.3277 19.265 15.6079 19.3158 15.9192 19.3158C16.2436 19.3158 16.5304 19.2584 16.7795 19.1437C17.0285 19.029 17.2235 18.8701 17.3644 18.6669C17.5054 18.4637 17.5758 18.2294 17.5758 17.9639C17.5758 17.6952 17.5005 17.4576 17.3497 17.2511C17.2022 17.0414 16.9892 16.8775 16.7106 16.7596C16.4354 16.6416 16.1076 16.5826 15.7275 16.5826H14.7885V15.0193H15.7275C16.0486 15.0193 16.3321 14.9636 16.5779 14.8522C16.827 14.7408 17.0203 14.5868 17.158 14.3901C17.2956 14.1902 17.3644 13.9575 17.3644 13.6921C17.3644 13.4397 17.3038 13.2185 17.1826 13.0284C17.0646 12.8351 16.8974 12.6843 16.6811 12.5762C16.4681 12.468 16.2191 12.414 15.9339 12.414C15.6455 12.414 15.3817 12.4664 15.1425 12.5713C14.9033 12.6729 14.7115 12.8187 14.5673 13.0088C14.4231 13.1988 14.3461 13.4217 14.3363 13.6773H12.2962C12.306 13.0973 12.4715 12.586 12.7927 12.1436C13.1139 11.7012 13.5465 11.3554 14.0905 11.1063C14.6378 10.854 15.2556 10.7278 15.9438 10.7278C16.6385 10.7278 17.2465 10.854 17.7675 11.1063C18.2886 11.3587 18.6934 11.6995 18.9818 12.1288C19.2734 12.5549 19.4176 13.0333 19.4144 13.5643C19.4176 14.1279 19.2423 14.5982 18.8884 14.9751C18.5377 15.352 18.0805 15.5912 17.5168 15.6928V15.7715C18.2575 15.8665 18.8212 16.1238 19.2079 16.5433C19.5979 16.9595 19.7912 17.4805 19.788 18.1065C19.7912 18.68 19.6257 19.1896 19.2915 19.6353C18.9605 20.081 18.5033 20.4317 17.9199 20.6873C17.3366 20.9429 16.668 21.0707 15.9143 21.0707Z" fill="#374151"/>
<defs>
<filter id="filter0_i_7351_8120" x="7.2522" y="6.58105" width="17.6648" height="17.6648" filterUnits="userSpaceOnUse" color-interpolation-filters="sRGB">
<feFlood flood-opacity="0" result="BackgroundImageFix"/>
<feBlend mode="normal" in="SourceGraphic" in2="BackgroundImageFix" result="shape"/>
<feColorMatrix in="SourceAlpha" type="matrix" values="0 0 0 0 0 0 0 0 0 0 0 0 0 0 0 0 0 0 127 0" result="hardAlpha"/>
<feOffset dx="-1.55866" dy="-1.55866"/>
<feComposite in2="hardAlpha" operator="arithmetic" k2="-1" k3="1"/>
<feColorMatrix type="matrix" values="0 0 0 0 0.737442 0 0 0 0 0.603461 0 0 0 0 0.431199 0 0 0 1 0"/>
<feBlend mode="normal" in2="shape" result="effect1_innerShadow_7351_8120"/>
</filter>
</defs>
</svg>
