<svg width="40" height="47" viewBox="0 0 40 47" fill="none" xmlns="http://www.w3.org/2000/svg">
<path d="M20.1357 2.4375V10.5625M24.1982 6.5L16.0732 6.5" stroke="url(#paint0_linear_6497_31898)" stroke-width="1.61538" stroke-linecap="round" stroke-linejoin="round"/>
<path d="M9.45312 14.0312C11.3948 14.0312 12.9688 12.4573 12.9688 10.5156C12.9688 8.574 11.3948 7 9.45312 7C7.5115 7 5.9375 8.574 5.9375 10.5156C5.9375 12.4573 7.5115 14.0312 9.45312 14.0312Z" fill="#EAB308"/>
<path d="M12.9688 10.5156C12.9688 8.57398 11.3946 7 9.45312 7V14.0312C11.3946 14.0312 12.9688 12.4573 12.9688 10.5156Z" fill="#CA8A04"/>
<path d="M13.9785 20.6992L13.5934 24.9687L18.1848 33.518C18.1918 33.5359 18.1988 33.5547 18.2051 33.5726C18.2176 33.6094 18.2285 33.6453 18.2371 33.682C18.2457 33.718 18.2527 33.7547 18.2582 33.7914C18.2637 33.8266 18.2668 33.8617 18.2684 33.8969C18.2863 34.2469 18.1426 34.5805 17.8957 34.8109C17.8684 34.8367 17.8395 34.8609 17.8098 34.8844C17.6152 35.0336 17.3699 35.125 17.0965 35.125H1.80899C0.979307 35.125 0.412901 34.2875 0.720713 33.518L5.31212 24.9687L4.15431 16.8344C3.86368 15.3844 4.97306 14.0312 6.45196 14.0312H12.9684C14.4317 13.8031 15.716 16.0351 20.6426 20.7851L18.3426 25.0633L13.9785 20.6992Z" fill="#FDE047"/>
<path d="M13.9789 20.6992L13.5938 24.9687L18.1852 33.518C18.1922 33.5359 18.1992 33.5547 18.2055 33.5726C18.218 33.6094 18.2289 33.6453 18.2375 33.682C18.2469 33.7187 18.2539 33.7555 18.2586 33.7914C18.2641 33.8266 18.2672 33.8617 18.2687 33.8969C18.2867 34.2469 18.143 34.5805 17.8961 34.8109C17.8688 34.8367 17.8398 34.8609 17.8102 34.8844C17.6156 35.0336 17.3703 35.125 17.0969 35.125H9.45312V14.0312H12.9688C14.432 13.8031 15.7164 16.0351 20.643 20.7851L18.343 25.0633L13.9789 20.6992Z" fill="#FACC15"/>
<path d="M30.5469 14.0312C32.4885 14.0312 34.0625 12.4573 34.0625 10.5156C34.0625 8.574 32.4885 7 30.5469 7C28.6052 7 27.0312 8.574 27.0312 10.5156C27.0312 12.4573 28.6052 14.0312 30.5469 14.0312Z" fill="#347357"/>
<path d="M34.0625 10.5156C34.0625 8.57398 32.4884 7 30.5469 7V14.0312C32.4884 14.0312 34.0625 12.4573 34.0625 10.5156Z" fill="#2B6049"/>
<path d="M38.1914 35.125H22.9031C22.0734 35.125 21.507 34.2875 21.8148 33.518L26.4063 24.9687L26.0211 20.6992L21.657 25.0633C21.1992 25.5211 20.6 25.75 20 25.75C19.4 25.75 18.8008 25.5211 18.343 25.0633C17.4273 24.1476 17.4273 22.6648 18.343 21.7492C24.1164 16.3375 25.4727 13.7883 27.0313 14.0312H33.5477C35.0266 14.0312 36.1359 15.3844 35.8453 16.8344L34.6875 24.9687L39.2789 33.518C39.5867 34.2875 39.0203 35.125 38.1914 35.125Z" fill="#568A73"/>
<path d="M14.1406 35.125V45.8281C14.1406 46.4753 13.6159 47 12.9688 47H5.9375C5.29031 47 4.76562 46.4753 4.76562 45.8281V35.125H14.1406Z" fill="#EAB308"/>
<path d="M9.45312 47H12.9688C13.6159 47 14.1406 46.4753 14.1406 45.8281V35.125H9.45312V47Z" fill="#CA8A04"/>
<path d="M25.8594 35.125V45.8281C25.8594 46.4753 26.3841 47 27.0312 47H34.0625C34.7097 47 35.2344 46.4753 35.2344 45.8281V35.125" fill="#347357"/>
<path d="M30.5469 47H34.0625C34.7097 47 35.2344 46.4753 35.2344 45.8281V35.125H30.5469V47Z" fill="#2B6049"/>
<path d="M38.1914 35.125H30.5469V14.0312H33.5477C35.0266 14.0312 36.1359 15.3844 35.8453 16.8344L34.6875 24.9688L39.2789 33.518C39.5867 34.2875 39.0203 35.125 38.1914 35.125Z" fill="#347357"/>
<defs>
<linearGradient id="paint0_linear_6497_31898" x1="15.3107" y1="7" x2="25.0857" y2="7" gradientUnits="userSpaceOnUse">
<stop offset="0.496521" stop-color="#474C53"/>
<stop offset="0.496621" stop-color="#2A2C30"/>
</linearGradient>
</defs>
</svg>
