<svg width="35" height="49" viewBox="0 0 35 49" fill="none" xmlns="http://www.w3.org/2000/svg">
<path d="M6.36798 8.61887L17.9846 8.66888C21.5015 8.68402 24.3644 11.4837 24.379 14.9352L24.4971 42.756C24.5118 46.2074 21.6726 48.9826 18.1556 48.9674L6.53903 48.9174C3.01614 48.9023 0.159188 46.0963 0.144564 42.6511L0.0264746 14.8304C0.0118508 11.3852 2.84517 8.60371 6.36798 8.61887Z" fill="#444956"/>
<path d="M24.8993 14.944L25.0174 42.7618C25.032 46.2067 22.1749 48.9878 18.6226 48.9725L12.7656 48.9473L12.5946 8.65287L18.4515 8.67808C22.0038 8.69337 24.8847 11.4992 24.8993 14.944Z" fill="#000032"/>
<path d="M6.41663 11.0072L18.3283 11.0585C20.5698 11.0681 22.394 12.7965 22.4031 14.9271L22.5203 42.5575C22.5294 44.688 20.7198 46.4007 18.4783 46.3911L6.56661 46.3398C4.31723 46.3301 2.50083 44.594 2.49182 42.4712L2.37454 14.8409C2.36552 12.718 4.16734 10.9975 6.41663 11.0072Z" fill="#F0F7FF"/>
<path d="M22.4053 14.9177L22.5225 42.5177C22.5315 44.6382 20.7695 46.3571 18.5697 46.3476L12.7451 46.3225L12.5953 11.0286L18.4199 11.0536C20.6197 11.0631 22.3963 12.7972 22.4053 14.9177Z" fill="#DFE7F4"/>
<path d="M10.2309 16.0478L14.114 16.0645C14.7814 16.0674 15.3202 15.5447 15.3175 14.8972C15.3147 14.2496 14.7714 13.7223 14.1041 13.7194L10.221 13.7027C9.55362 13.6998 9.01479 14.2225 9.01754 14.87C9.02029 15.5176 9.56357 16.0449 10.2309 16.0478Z" fill="#444956"/>
<path d="M15.7495 14.8697C15.7522 14.2221 15.2134 13.6995 14.546 13.7023L12.6045 13.7107L12.5945 16.0558L14.5361 16.0474C15.2035 16.0445 15.7467 15.5172 15.7495 14.8697Z" fill="#000032"/>
<path d="M6.46673 43.6608L18.116 43.711C18.7834 43.7139 19.3222 43.1912 19.3194 42.5436C19.3167 41.8961 18.7734 41.3688 18.106 41.3659L6.45678 41.3157C5.7894 41.3129 5.25058 41.8355 5.25333 42.4831C5.25607 43.1306 5.79936 43.658 6.46673 43.6608Z" fill="#DFE7F4"/>
<path d="M18.4522 43.6816L12.7363 43.657L12.7264 41.3119L18.4423 41.3365C19.0972 41.3393 19.6304 41.8666 19.6331 42.5142C19.6359 43.1617 19.1072 43.6844 18.4522 43.6816Z" fill="#C7CFE1"/>
<path d="M10.3145 35.9771V38.8553C10.3145 39.1206 10.5551 39.3349 10.8529 39.3349H11.3914C11.6892 39.3349 11.9298 39.1206 11.9298 38.8553V37.5331C12.0964 37.632 12.2764 37.713 12.4682 37.7744V38.1372C12.4682 38.2691 12.5894 38.3771 12.7374 38.3771C12.8855 38.3771 13.0066 38.2691 13.0066 38.1372V37.8839C13.0958 37.8929 13.185 37.8974 13.2758 37.8974C13.3667 37.8974 13.4559 37.8929 13.5451 37.8839V38.1372C13.5451 38.2691 13.6662 38.3771 13.8143 38.3771C13.9623 38.3771 14.0835 38.2691 14.0835 38.1372V37.7744C14.2753 37.7145 14.4553 37.6335 14.6219 37.5331V38.8553C14.6219 39.1206 14.8625 39.3349 15.1603 39.3349H15.6988C15.9966 39.3349 16.2372 39.1206 16.2372 38.8553V36.4568L16.7756 36.9365V37.6785C16.7756 37.8209 16.8227 37.9588 16.9119 38.0773L17.6169 39.0202C17.765 39.2165 18.0123 39.3349 18.2782 39.3349C18.6568 39.3349 18.9832 39.0966 19.0572 38.7653L19.3988 37.2423C19.4425 37.0474 19.3937 36.845 19.2642 36.6831L19.1985 36.6007V35.3775C19.1985 35.1781 19.0185 35.0177 18.7947 35.0177C18.5709 35.0177 18.3909 35.1781 18.3909 35.3775V35.5933L17.5008 34.4825C17.0448 33.9159 16.3112 33.5786 15.5288 33.5786H11.1221C10.0066 33.5786 9.10304 34.3836 9.10304 35.3775V36.187C8.85738 36.3638 8.69922 36.6337 8.69922 36.9365V37.2003C8.69922 37.3202 8.8069 37.4162 8.94151 37.4162C9.47657 37.4162 9.91068 37.0294 9.91068 36.5527V35.3775C9.91068 35.0132 10.1143 34.6909 10.4239 34.4945C10.3532 34.6564 10.3145 34.8333 10.3145 35.0177V35.9771ZM18.1217 37.656C18.1217 37.5924 18.1501 37.5314 18.2005 37.4864C18.251 37.4414 18.3195 37.4162 18.3909 37.4162C18.4623 37.4162 18.5308 37.4414 18.5813 37.4864C18.6318 37.5314 18.6601 37.5924 18.6601 37.656C18.6601 37.7196 18.6318 37.7806 18.5813 37.8256C18.5308 37.8706 18.4623 37.8959 18.3909 37.8959C18.3195 37.8959 18.251 37.8706 18.2005 37.8256C18.1501 37.7806 18.1217 37.7196 18.1217 37.656ZM11.5024 35.1166C11.4317 35.0537 11.3914 34.9667 11.3914 34.8768C11.3914 34.6894 11.5613 34.538 11.7716 34.538H14.7784C14.9887 34.538 15.1587 34.6894 15.1587 34.8768C15.1587 34.9667 15.1183 35.0537 15.0476 35.1166L14.6539 35.4674C14.2888 35.7942 13.7924 35.9771 13.2758 35.9771C12.7593 35.9771 12.2629 35.7942 11.8978 35.4689L11.5041 35.1181L11.5024 35.1166Z" fill="url(#paint0_linear_6669_21589)"/>
<path d="M8.72332 27.8006L3.85643 30.4905C3.57761 30.6446 3.47305 30.9819 3.62289 31.2438L4.20414 32.2597C4.75439 33.2214 6.03497 33.5435 7.0588 32.9776L9.22191 31.7821C10.2457 31.2162 10.631 29.9734 10.0808 29.0117L9.49951 27.9958C9.34966 27.7339 9.00214 27.6465 8.72332 27.8006Z" fill="#568A73"/>
<path d="M7.81745 32.5547L9.01801 31.8912C10.1545 31.2632 10.6319 29.9707 10.0821 29.01L9.50145 27.9953C9.35175 27.7337 8.97947 27.6602 8.66997 27.8313L5.96875 29.324L7.81745 32.5547Z" fill="#347357"/>
<path d="M4.29732 29.4085C4.54444 29.8404 4.96584 30.1418 5.48388 30.2574L6.61334 30.5097C6.90451 30.5747 7.21741 30.4018 7.31218 30.1235L7.67962 29.0437C7.84817 28.549 7.80497 28.0385 7.55784 27.6067C7.31072 27.1748 6.88932 26.8733 6.37157 26.7578L5.24182 26.5054C4.95065 26.4404 4.63775 26.6133 4.54298 26.8916L4.17564 27.9711C4.00699 28.4662 4.05019 28.9766 4.29732 29.4085Z" fill="#347357"/>
<path d="M7.05781 30.2614L7.57446 29.0998C7.81141 28.5675 7.80604 28.0366 7.55916 27.605C7.31228 27.1735 6.85352 26.8932 6.26773 26.8157L4.98953 26.6461C4.82479 26.6243 4.64865 26.6652 4.49707 26.749L6.71253 30.6216C6.86411 30.5378 6.9912 30.4111 7.05781 30.2614Z" fill="#2B6049"/>
<ellipse cx="0.537083" cy="0.608345" rx="0.537083" ry="0.608345" transform="matrix(-0.549754 -0.835328 -0.855578 0.517682 13.7266 20.3081)" fill="#444956"/>
<path d="M11.3836 18.5211C11.727 18.3133 12.5411 18.2175 13.5167 18.4984C14.0702 18.6608 14.5906 18.9127 15.0554 19.2433C15.0706 19.2544 15.081 19.2706 15.0846 19.2886C15.0881 19.3067 15.0845 19.3254 15.0744 19.3411C15.0704 19.3477 15.0665 19.3542 15.0627 19.3612L14.8581 19.7516C14.49 20.424 13.9432 20.9914 13.2731 21.3965C12.603 21.8017 11.8333 22.0301 11.0419 22.0588L11.0308 22.0591L10.5843 22.0863C10.5606 22.0877 10.5371 22.0809 10.5183 22.0671C10.4994 22.0532 10.4865 22.0333 10.4818 22.0109C10.1169 20.1875 10.8544 18.8413 11.3836 18.5211ZM12.6155 20.3868C12.6499 20.4581 12.7067 20.5174 12.778 20.5561C12.8493 20.5949 12.9315 20.6113 13.0131 20.603C13.0947 20.5947 13.1715 20.5621 13.2328 20.5099C13.2941 20.4576 13.3368 20.3883 13.355 20.3116C13.3731 20.235 13.3657 20.1548 13.3339 20.0824C13.3021 20.01 13.2474 19.949 13.1775 19.9079C13.1076 19.8668 13.026 19.8478 12.9442 19.8535C12.8624 19.8591 12.7845 19.8892 12.7214 19.9394C12.6548 19.9924 12.6083 20.065 12.5891 20.1459C12.57 20.2269 12.5793 20.3115 12.6155 20.3868Z" fill="url(#paint1_linear_6669_21589)"/>
<path d="M13.6703 21.9957C14.4568 21.5202 15.0981 20.8537 15.5289 20.064L15.5317 20.059L15.6303 19.8711C15.6373 19.8576 15.6475 19.8459 15.6602 19.837C15.6728 19.8281 15.6875 19.8222 15.703 19.8199C15.7185 19.8176 15.7344 19.8188 15.7493 19.8236C15.7641 19.8283 15.7776 19.8365 15.7885 19.8472C16.0138 20.0702 16.2225 20.3081 16.4132 20.559C16.4356 20.5886 16.4666 20.6113 16.5024 20.6241C17.0581 20.823 18.0889 21.2601 18.7345 21.9509C18.7784 21.9982 18.8091 22.0554 18.8237 22.1172C18.8384 22.179 18.8365 22.2433 18.8182 22.3042C18.7999 22.3651 18.7659 22.4207 18.7192 22.4656C18.6726 22.5105 18.6148 22.5435 18.5514 22.5613L17.6422 22.8166C17.6186 22.8232 17.5985 22.8381 17.5857 22.8582C17.573 22.8783 17.5686 22.9023 17.5735 22.9254C17.7711 23.8286 17.6664 24.7729 17.5729 25.472C17.5674 25.5147 17.5773 25.5579 17.601 25.5943C17.6247 25.6308 17.6608 25.6584 17.7031 25.6725C17.7961 25.7036 17.8893 25.7368 17.9829 25.7721C19.1008 26.196 19.7882 27.0727 19.8167 27.1098C19.8531 27.1569 19.8775 27.2114 19.888 27.2691C19.8985 27.3269 19.8947 27.3861 19.877 27.4423C19.8593 27.4984 19.8281 27.5497 19.786 27.5923C19.7439 27.6348 19.692 27.6673 19.6345 27.6872C19.589 27.7031 18.671 28.0151 17.7361 27.956C17.6941 27.9533 17.6523 27.9634 17.6167 27.9849C17.5811 28.0064 17.5536 28.0383 17.5381 28.0758C17.1915 28.9102 16.5025 29.5706 16.468 29.6031C16.4245 29.6443 16.3716 29.6753 16.3134 29.6934C16.2552 29.7115 16.1935 29.7164 16.133 29.7076C16.0726 29.6987 16.0152 29.6765 15.9653 29.6426C15.9155 29.6087 15.8746 29.5641 15.846 29.5123C15.8228 29.4708 15.2949 28.4988 15.3763 27.3507C15.3832 27.2567 15.3919 27.1639 15.4022 27.0721C15.4072 27.0294 15.3967 26.9863 15.3725 26.9502C15.3483 26.914 15.3119 26.8869 15.2693 26.8733C14.5678 26.6524 13.6323 26.3358 12.8652 25.7744C12.8456 25.7603 12.8212 25.7538 12.7968 25.7561C12.7725 25.7584 12.7499 25.7694 12.7335 25.7869L12.1021 26.4648C12.058 26.5121 12.0022 26.5479 11.9398 26.5689C11.8774 26.59 11.8105 26.5955 11.7453 26.5851C11.6801 26.5747 11.6187 26.5487 11.5668 26.5094C11.515 26.4702 11.4743 26.419 11.4487 26.3606C11.2846 25.9836 11.0375 25.1694 11.1645 23.8666C11.168 23.8294 11.1601 23.7922 11.1417 23.7593C10.9874 23.4869 10.8529 23.2045 10.7392 22.9143C10.7339 22.9006 10.732 22.8858 10.7337 22.8713C10.7354 22.8567 10.7406 22.8427 10.7489 22.8304C10.7572 22.8181 10.7684 22.8079 10.7816 22.8005C10.7948 22.7931 10.8096 22.7887 10.8249 22.7878L11.0557 22.7733C11.9833 22.7396 12.8853 22.4713 13.6703 21.9957Z" fill="url(#paint2_linear_6669_21589)"/>
<path fill-rule="evenodd" clip-rule="evenodd" d="M23.3108 3.59766C23.7143 3.59766 24.0414 3.91981 24.0414 4.3172V10.7931H30.6167C31.0202 10.7931 31.3472 11.1152 31.3472 11.5126C31.3472 11.91 31.0202 12.2322 30.6167 12.2322H24.0414V18.708C24.0414 19.1054 23.7143 19.4276 23.3108 19.4276C22.9073 19.4276 22.5802 19.1054 22.5802 18.708V12.2322H16.005C15.6015 12.2322 15.2744 11.91 15.2744 11.5126C15.2744 11.1152 15.6015 10.7931 16.005 10.7931H22.5802V4.3172C22.5802 3.91981 22.9073 3.59766 23.3108 3.59766Z" fill="url(#paint3_linear_6669_21589)"/>
<defs>
<linearGradient id="paint0_linear_6669_21589" x1="19.0993" y1="36.6246" x2="8.69969" y2="36.4521" gradientUnits="userSpaceOnUse">
<stop offset="0.5549" stop-color="#000032"/>
<stop offset="0.555" stop-color="#444956"/>
</linearGradient>
<linearGradient id="paint1_linear_6669_21589" x1="13.2738" y1="21.3961" x2="11.4938" y2="18.4544" gradientUnits="userSpaceOnUse">
<stop offset="0.491403" stop-color="#FACC15"/>
<stop offset="0.5006" stop-color="#FDE047"/>
</linearGradient>
<linearGradient id="paint2_linear_6669_21589" x1="13.2206" y1="21.3128" x2="17.7673" y2="28.8274" gradientUnits="userSpaceOnUse">
<stop offset="0.40356" stop-color="#347357"/>
<stop offset="0.406324" stop-color="#568A73"/>
</linearGradient>
<linearGradient id="paint3_linear_6669_21589" x1="31.3472" y1="11.5126" x2="15.2744" y2="11.5126" gradientUnits="userSpaceOnUse">
<stop offset="0.505" stop-color="#FACC15"/>
<stop offset="0.5051" stop-color="#FDE047"/>
</linearGradient>
</defs>
</svg>
