<svg width="44" height="44" viewBox="0 0 44 44" fill="none" xmlns="http://www.w3.org/2000/svg">
<g clip-path="url(#clip0_6669_21464)">
<path d="M34.4609 29.3906H9.53906V1.28906C9.53906 0.577156 10.1162 0 10.8281 0H33.1719C33.8838 0 34.4609 0.577156 34.4609 1.28906V29.3906Z" fill="#E3EBF7"/>
<path d="M34.4609 29.3906H22V0H33.1719C33.8838 0 34.4609 0.577156 34.4609 1.28906V29.3906Z" fill="#C7CFE1"/>
<path d="M26.7266 15.0195V24.0625C26.7266 25.092 27.874 25.7061 28.7306 25.1351L30.5938 23.893L32.4569 25.1351C33.3135 25.7062 34.4609 25.0921 34.4609 24.0625V15.0195H26.7266Z" fill="#568A73"/>
<path d="M30.5938 15.0195V23.8929L32.4568 25.135C33.3135 25.7061 34.4609 25.0921 34.4609 24.0625V15.0195H30.5938Z" fill="#347357"/>
<path d="M30.5938 17.1875C32.9668 17.1875 34.8906 15.2637 34.8906 12.8906C34.8906 10.5175 32.9668 8.59375 30.5938 8.59375C28.2207 8.59375 26.2969 10.5175 26.2969 12.8906C26.2969 15.2637 28.2207 17.1875 30.5938 17.1875Z" fill="#EAB308"/>
<path d="M30.5938 8.59375V17.1875C32.9668 17.1875 34.8906 15.2637 34.8906 12.8906C34.8906 10.5175 32.9668 8.59375 30.5938 8.59375Z" fill="#CA8A04"/>
<path d="M30.5938 18.4766C27.5137 18.4766 25.0078 15.9707 25.0078 12.8906C25.0078 9.81054 27.5137 7.30469 30.5938 7.30469C33.6738 7.30469 36.1797 9.81054 36.1797 12.8906C36.1797 15.9707 33.6738 18.4766 30.5938 18.4766ZM30.5938 9.88281C28.9352 9.88281 27.5859 11.2321 27.5859 12.8906C27.5859 14.5491 28.9352 15.8984 30.5938 15.8984C32.2523 15.8984 33.6016 14.5491 33.6016 12.8906C33.6016 11.2321 32.2523 9.88281 30.5938 9.88281Z" fill="#FDE047"/>
<path d="M30.5938 7.30469V9.88281C32.2523 9.88281 33.6016 11.2321 33.6016 12.8906C33.6016 14.5491 32.2523 15.8984 30.5938 15.8984V18.4766C33.6738 18.4766 36.1797 15.9707 36.1797 12.8906C36.1797 9.81054 33.6738 7.30469 30.5938 7.30469Z" fill="#FACC15"/>
<path d="M19.2441 8.67969H14.5176C13.8057 8.67969 13.2285 8.10253 13.2285 7.39062C13.2285 6.67872 13.8057 6.10156 14.5176 6.10156H19.2441C19.956 6.10156 20.5332 6.67872 20.5332 7.39062C20.5332 8.10253 19.956 8.67969 19.2441 8.67969Z" fill="#C7CFE1"/>
<path d="M19.2441 13.8359H14.5176C13.8057 13.8359 13.2285 13.2588 13.2285 12.5469C13.2285 11.835 13.8057 11.2578 14.5176 11.2578H19.2441C19.956 11.2578 20.5332 11.835 20.5332 12.5469C20.5332 13.2588 19.956 13.8359 19.2441 13.8359Z" fill="#C7CFE1"/>
<path d="M19.2441 18.9922H14.5176C13.8057 18.9922 13.2285 18.415 13.2285 17.7031C13.2285 16.9912 13.8057 16.4141 14.5176 16.4141H19.2441C19.956 16.4141 20.5332 16.9912 20.5332 17.7031C20.5332 18.415 19.956 18.9922 19.2441 18.9922Z" fill="#C7CFE1"/>
<path d="M10.4059 13.8722L12.8063 19.8005L10.4059 28.2882L5.20296 29.4867H0V21.73C0 17.39 3.51789 13.8721 7.85791 13.8721L10.4059 13.8722Z" fill="#FDE047"/>
<path d="M22.6845 4.80273C22.6845 5.07214 22.6428 5.34646 22.5539 5.61669L19.0582 6.21797L17.6113 3.98796C18.0612 2.62293 19.5323 1.88163 20.8974 2.33147C20.8982 2.33147 20.8982 2.33147 20.899 2.33228C21.9922 2.69232 22.6845 3.71038 22.6845 4.80273Z" fill="#FFBFB3"/>
<path d="M22.5552 5.61652L20.573 11.6212C19.1728 15.9171 15.61 20.0547 15.61 20.0547V27.0888L10.4062 28.2881V13.872H10.6748C12.8718 13.872 14.8197 12.4621 15.5072 10.3762L17.6127 3.98779L22.5552 5.61652Z" fill="#FACC15"/>
<path d="M10.4063 4.15869L12.1701 8.4556L10.4063 13.8723C8.17991 13.8723 6.37402 12.0664 6.37402 9.83925V8.19174C6.37402 5.96458 8.17991 4.15869 10.4063 4.15869Z" fill="#FFD5CC"/>
<path d="M7.65137 27.0891L6.32365 27.9599L5.20215 27.0891V21.2839C5.20215 20.6076 5.75045 20.0593 6.42676 20.0593C7.10307 20.0593 7.65137 20.6076 7.65137 21.2839V27.0891Z" fill="#FACC15"/>
<path d="M10.4051 27.0891L13.2322 35.8919L10.4051 44.0002H6.42676C5.75077 44.0002 5.20215 43.4515 5.20215 42.7755V27.0891H10.4051Z" fill="#464B52"/>
<path d="M14.4393 8.19174V9.83925C14.4393 12.0664 12.6334 13.8723 10.4071 13.8723H10.4062V4.15869H10.4071C12.6334 4.15869 14.4393 5.96458 14.4393 8.19174Z" fill="#FFBFB3"/>
<path d="M15.61 27.0891V42.7755C15.61 43.4515 15.0622 44.0002 14.3854 44.0002H10.4062V27.0891H15.61Z" fill="#292B2F"/>
</g>
<defs>
<clipPath id="clip0_6669_21464">
<rect width="44" height="44" fill="white"/>
</clipPath>
</defs>
</svg>
