<svg width="14" height="15" viewBox="0 0 14 15" fill="none" xmlns="http://www.w3.org/2000/svg">
<path d="M2.2752 3.29999C1.40535 3.29999 0.700195 4.00514 0.700195 4.87499V10.125C0.700195 10.9948 1.40535 11.7 2.2752 11.7H7.5252C8.39504 11.7 9.1002 10.9948 9.1002 10.125V4.87499C9.1002 4.00514 8.39504 3.29999 7.5252 3.29999H2.2752Z" fill="#347357"/>
<path d="M13.3002 3.825C13.3002 3.61266 13.1723 3.42123 12.9761 3.33997C12.7799 3.25871 12.5541 3.30362 12.404 3.45377L10.304 5.55377C10.2055 5.65223 10.1502 5.78576 10.1502 5.925V9.075C10.1502 9.21424 10.2055 9.34778 10.304 9.44623L12.404 11.5462C12.5541 11.6964 12.7799 11.7413 12.9761 11.66C13.1723 11.5788 13.3002 11.3873 13.3002 11.175V3.825Z" fill="#347357"/>
</svg>
